<?xml version="1.0" encoding="UTF-8"?>
<svg id="Ebene_1" xmlns="http://www.w3.org/2000/svg" xmlns:xlink="http://www.w3.org/1999/xlink" version="1.1" viewBox="0 0 861.1 221.5">
  <!-- Generator: Adobe Illustrator 29.5.1, SVG Export Plug-In . SVG Version: 2.1.0 Build 141)  -->
  <defs>
    <style>
      .st0 {
        fill: #8f9ca4;
      }

      .st1 {
        fill: #c7d300;
      }

      .st2 {
        fill: #e2000b;
      }

      .st3 {
        fill: #c51415;
      }

      .st4 {
        fill: #1d1d1b;
      }

      .st5 {
        isolation: isolate;
      }

      .st6 {
        fill: #00376d;
      }

      .st7 {
        fill: #f8d100;
      }

      .st8 {
        fill: #fff;
      }

      .st9 {
        fill: #181716;
      }

      .st10 {
        fill: #e3001d;
      }
    </style>
  </defs>
  <g>
    <g id="RGB">
      <polygon class="st3" points="649.3 17.8 649.3 17.8 673.1 41.6 696.8 41.6 720.6 41.6 696.8 17.8 696.8 17.8 649.3 17.8"/>
      <path class="st8" d="M720.6,41.6h0Z"/>
      <polygon class="st1" points="696.8 65.3 696.8 65.3 720.6 65.3 744.3 65.3 768.1 41.6 744.3 41.6 720.6 41.6 720.6 41.6 696.8 65.3"/>
      <polygon class="st0" points="815.5 41.6 815.5 65.3 839.3 65.3 815.5 41.6 815.5 41.6"/>
      <polygon class="st8" points="768.1 41.6 768.1 41.6 768.1 41.6 768.1 41.6"/>
      <polygon class="st6" points="791.8 17.8 768.1 41.6 791.8 41.6 815.5 41.6 791.8 17.8 791.8 17.8 791.8 17.8 791.8 17.8"/>
    </g>
    <g id="_x31_04pt_x2C__op_x2C__50spat">
      <path class="st4" d="M27.6,50.9v-24.6l-3.2-.6v-3.2h13.3c3,0,5.4.3,7.1.8,1.7.5,3,1.3,3.7,2.4.7,1,1.1,2.3,1.1,3.8s-.3,2.6-.9,3.7c-.6,1.1-1.4,1.9-2.4,2.6s-2.2,1.1-3.5,1.3c1.8,0,3.4.3,4.7.9,1.4.6,2.4,1.4,3.2,2.5s1.1,2.4,1.1,4c0,6.5-4.6,9.7-13.7,9.7h-13.8v-2.9l3.3-.5h0ZM37.9,51.5c2.2,0,3.7-.5,4.7-1.6s1.5-2.7,1.5-4.7-.2-2.5-.6-3.4c-.4-.8-1-1.4-1.9-1.8s-2-.6-3.3-.6h-3.7v11.8c.4.2,1.6.4,3.4.4h0ZM37.9,36.2c1.7,0,2.9-.5,3.6-1.5.8-1,1.1-2.4,1.1-4.3s-.4-3.1-1.2-3.9c-.8-.8-2.1-1.2-4-1.2s-1,0-1.6,0-1.1,0-1.3.2v10.5h3.3v.2Z"/>
      <path class="st4" d="M57.2,36.1c1-1.8,2.3-3.2,4.1-4.1,1.8-1,3.8-1.4,6.1-1.4s5.2.7,6.8,2.1c1.6,1.4,2.4,3.3,2.5,5.9,0,1.8-.1,3.1-.3,4.1h-13.5c.2,2.6.8,4.5,1.9,5.7,1.1,1.2,2.5,1.9,4.4,1.9s2.1-.2,3.3-.5c1.1-.4,2.1-.8,2.8-1.2l1.2,2.6c-.5.5-1.2,1-2.2,1.6-1,.5-2,1-3.3,1.3-1.2.4-2.5.5-3.7.5-2.6,0-4.7-.5-6.4-1.5s-2.9-2.4-3.7-4.1c-.8-1.8-1.2-3.8-1.2-6.2s.5-4.6,1.5-6.4l-.3-.3ZM70,39.7v-1.5c0-1.5-.2-2.6-.7-3.5-.5-.8-1.3-1.2-2.5-1.2s-1.5.2-2,.5c-.6.3-1,1-1.3,1.9-.3.9-.5,2.2-.6,3.8h7.2,0Z"/>
      <path class="st4" d="M83.5,51.3v-15.6l-2.5-.8v-3.3l7-1h.1l1.2.9v4.5c-.1,0,0,0,0,0,.2-.6.6-1.4,1.3-2.2.7-.9,1.6-1.6,2.6-2.3,1.1-.6,2.2-1,3.5-1s.7,0,.9,0c.3,0,.5,0,.7.2v7.3c-.5-.4-1-.7-1.5-.9-.5-.2-1.1-.3-1.8-.3-1,0-2,0-2.8.4-.9.3-1.5.6-2,1v12.9l4.9.4v2.6h-14.4v-2.7l2.8-.4v.3Z"/>
      <path class="st4" d="M103.5,51.1v-27.7l-3.1-.5v-2.6l8.4-1h.1l1.3.9v30.9l2.8.4v2.8h-12.3v-2.8l2.8-.4Z"/>
      <path class="st4" d="M119.9,51.1v-16l-2.8-.9v-3.2l8.2-1h.1l1.3.9v20.2l2.7.4v2.8h-12.3v-2.8l2.8-.4ZM119.4,21.2c.3-.6.8-1.1,1.4-1.5.6-.4,1.3-.6,2.2-.6h0c.8,0,1.5.2,2,.5.6.3,1,.7,1.3,1.3.3.5.4,1.1.4,1.8,0,1.2-.4,2.2-1.1,2.9-.7.8-1.8,1.1-3.1,1.1h0c-.7,0-1.3-.2-1.9-.5-.5-.3-1-.7-1.3-1.2s-.5-1.1-.5-1.8.2-1.4.5-2.1h.1Z"/>
      <path class="st4" d="M136.2,51.3v-15.6l-2.6-.8v-3.4l7.5-1h.1l1.1.9v2.5c.9-.9,2.2-1.7,3.7-2.3,1.5-.6,3.1-1,4.7-1s3.1.3,4.1.9c1,.6,1.7,1.6,2.1,2.9.4,1.3.7,3.2.7,5.5v11.4l2.5.4v2.7h-11.6v-2.7l2.2-.4v-11.3c0-1.3,0-2.4-.3-3.2-.2-.8-.5-1.3-1-1.7s-1.2-.5-2-.5-1.6.2-2.4.5c-.8.4-1.5.8-2.1,1.3v14.9l2.4.4v2.7h-11.7v-2.7l2.4-.4h.2Z"/>
      <path class="st4" d="M180.8,26.2l-2.7-.6v-3h13.6v3l-3.5.6v15.5c0,3.3.6,5.7,1.7,7.3,1.1,1.6,2.8,2.4,5,2.4s3.9-.8,4.9-2.5c1.1-1.7,1.6-4,1.6-7v-15.7l-3.6-.6v-3h10.9v3l-2.8.6v15.3c0,3-.5,5.4-1.5,7.3s-2.4,3.3-4.2,4.2c-1.8.9-3.9,1.3-6.3,1.3s-5.4-.5-7.4-1.4c-1.9-.9-3.4-2.3-4.3-4.3-.9-1.9-1.4-4.5-1.4-7.6v-15,.2Z"/>
      <path class="st4" d="M213.8,51.3v-15.6l-2.6-.8v-3.4l7.5-1h.1l1.1.9v2.5c.9-.9,2.2-1.7,3.7-2.3s3.1-1,4.7-1,3.1.3,4.1.9c1,.6,1.7,1.6,2.1,2.9.4,1.3.7,3.2.7,5.5v11.4l2.5.4v2.7h-11.6v-2.7l2.2-.4v-11.3c0-1.3,0-2.4-.3-3.2-.2-.8-.5-1.3-1-1.7s-1.2-.5-2-.5-1.6.2-2.4.5c-.8.4-1.5.8-2.1,1.3v14.9l2.4.4v2.7h-11.7v-2.7l2.4-.4h.2Z"/>
      <path class="st4" d="M244.7,51.1v-16l-2.8-.9v-3.2l8.2-1h.1l1.3.9v20.2l2.7.4v2.8h-12.3v-2.8l2.8-.4h0ZM244.1,21.2c.3-.6.8-1.1,1.4-1.5s1.3-.6,2.2-.6h0c.8,0,1.5.2,2,.5.6.3,1,.7,1.3,1.3.3.5.4,1.1.4,1.8,0,1.2-.4,2.2-1.1,2.9-.7.8-1.8,1.1-3.1,1.1h0c-.7,0-1.3-.2-1.9-.5-.5-.3-1-.7-1.3-1.2s-.5-1.1-.5-1.8.2-1.4.5-2.1h.1Z"/>
      <path class="st4" d="M255.9,33.3v-2.7h12.1v2.7l-2.8.5,3.6,10.9,1.2,4.3,1-4.2,3.4-11-2.7-.5v-2.7h9.8v2.7l-2.2.5-7.8,20.5h-5.5l-8.5-20.5-1.8-.5h.2Z"/>
      <path class="st4" d="M284.5,36.1c1-1.8,2.3-3.2,4.1-4.1,1.8-1,3.8-1.4,6.1-1.4s5.2.7,6.8,2.1c1.6,1.4,2.4,3.3,2.5,5.9,0,1.8-.1,3.1-.3,4.1h-13.5c.2,2.6.8,4.5,1.9,5.7s2.5,1.9,4.4,1.9,2.1-.2,3.3-.5c1.1-.4,2.1-.8,2.8-1.2l1.2,2.6c-.5.5-1.2,1-2.2,1.6-1,.5-2,1-3.3,1.3-1.2.4-2.5.5-3.7.5-2.6,0-4.7-.5-6.4-1.5-1.7-1-2.9-2.4-3.7-4.1-.8-1.8-1.2-3.8-1.2-6.2s.5-4.6,1.5-6.4l-.3-.3ZM297.3,39.7v-1.5c0-1.5-.2-2.6-.7-3.5-.5-.8-1.3-1.2-2.5-1.2s-1.5.2-2,.5c-.6.3-1,1-1.3,1.9-.3.9-.5,2.2-.6,3.8h7.2-.1Z"/>
      <path class="st4" d="M310.8,51.3v-15.6l-2.5-.8v-3.3l7-1h.1l1.2.9v4.5c-.1,0,0,0,0,0,.2-.6.6-1.4,1.3-2.2.7-.9,1.6-1.6,2.6-2.3,1.1-.6,2.2-1,3.5-1s.7,0,.9,0c.3,0,.5,0,.7.2v7.3c-.5-.4-1-.7-1.5-.9-.5-.2-1.1-.3-1.8-.3-1,0-2,0-2.8.4-.9.3-1.5.6-2,1v12.9l4.9.4v2.6h-14.4v-2.7l2.8-.4v.3Z"/>
      <path class="st4" d="M334,47.2l1.1,3.1c.2.3.7.6,1.4.9.7.3,1.5.4,2.3.4,1.2,0,2.1-.2,2.7-.7s.9-1.1.9-1.9-.2-1.1-.7-1.5c-.4-.5-1-.9-1.7-1.2-.7-.4-1.8-.8-3.1-1.4l-1.1-.5c-1.9-.8-3.4-1.8-4.3-2.9s-1.4-2.5-1.4-4.3.4-2.4,1.1-3.3c.8-1,1.9-1.8,3.3-2.3,1.4-.6,3.1-.8,5-.8s2.5,0,3.4.3c.9.2,2,.4,3.1.7.6.2,1.1.3,1.5.4v5.5h-3.8l-1.1-2.9c-.2-.3-.5-.5-1-.8-.5-.2-1.2-.3-1.9-.3-1.1,0-2,.2-2.6.7s-.9,1-.9,1.8.2,1.1.6,1.6c.4.4.9.8,1.4,1.1.6.3,1.4.7,2.5,1.1l1,.4c1.5.6,2.8,1.3,3.8,1.9s1.8,1.4,2.5,2.3,1,2.1,1,3.4-.4,2.5-1.1,3.5-1.8,1.9-3.3,2.5-3.3.9-5.4.9-2.9,0-4.1-.4-2.5-.6-3.9-1c-.3,0-.7-.2-1.1-.3v-5.4h4v-.6Z"/>
      <path class="st4" d="M355.4,51.1v-16l-2.8-.9v-3.2l8.2-1h.1l1.3.9v20.2l2.7.4v2.8h-12.3v-2.8l2.8-.4h0ZM354.9,21.2c.3-.6.8-1.1,1.4-1.5s1.3-.6,2.2-.6h0c.8,0,1.5.2,2,.5.6.3,1,.7,1.3,1.3.3.5.4,1.1.4,1.8,0,1.2-.4,2.2-1.1,2.9-.7.8-1.8,1.1-3.1,1.1h0c-.7,0-1.3-.2-1.9-.5-.5-.3-1-.7-1.3-1.2s-.5-1.1-.5-1.8.2-1.4.5-2.1h.1Z"/>
      <path class="st4" d="M367.7,34.1v-2.4c.3,0,.8-.3,1.4-.6s1-.4,1-.5c.5-.5,1-1.3,1.3-2.1.3-.6.5-1.3.8-2.1.3-.9.5-1.6.7-2.3h3.9l.2,6.7h6.3v3.5h-6.2v11.1c0,1.6,0,2.7.1,3.3,0,.6.2,1,.5,1.2s.7.3,1.4.3h0c1.2,0,2.5-.2,3.9-.6h0l.9,2.6c-.5.4-1.2.8-2.1,1.1-.9.4-1.8.6-2.9.9-1.1.2-2.1.3-3.1.3h0c-1.9,0-3.3-.4-4.2-1.3-.9-.8-1.4-2.1-1.4-3.9v-15.1h-2.6.1Z"/>
      <path class="st4" d="M389.7,59.3c.2,0,.6.3,1.3.4.6,0,1.2.2,1.8.2,1.4,0,2.5-.4,3.4-1.3.9-.8,1.8-2.3,2.5-4.2h-2.7l-7.8-20.5-1.9-.5v-2.7h12.4v2.7l-2.9.5,3.6,11.6,1.3,4.4,1.1-4.4,3.3-11.6-2.6-.5v-2.7h9.6v2.7l-2,.5c-1.2,3.8-2.7,8-4.4,12.8s-2.7,7.5-2.9,8.1c-.8,2.2-1.7,4.1-2.6,5.5s-2,2.5-3.1,3.3c-1.2.8-2.6,1.1-4.2,1.1s-1.1,0-1.8,0c-.6,0-1.1-.2-1.3-.3v-5h0Z"/>
      <path class="st4" d="M429.3,51l9.6-28.4h7.4l9.7,28.4,2.4.5v2.8h-13.2v-2.8l3-.5-1.5-5.2h-10.5l-1.5,5.2,3.3.5v2.8h-11.2v-2.8l2.5-.5ZM445.8,42.6l-3.8-12.7-.6-2.9-.6,2.9-3.6,12.7h8.7-.1Z"/>
      <path class="st4" d="M464.3,51.1v-27.7l-3.1-.5v-2.6l8.4-1h0l1.3.9v30.9l2.8.4v2.8h-12.3v-2.8l2.8-.4Z"/>
      <path class="st4" d="M480.6,51.1v-27.7l-3.1-.5v-2.6l8.4-1h0l1.3.9v30.9l2.8.4v2.8h-12.3v-2.8l2.8-.4Z"/>
      <path class="st4" d="M497,51.1v-16l-2.8-.9v-3.2l8.2-1h0l1.3.9v20.2l2.7.4v2.8h-12.3v-2.8l2.8-.4ZM496.5,21.2c.3-.6.8-1.1,1.4-1.5.6-.4,1.3-.6,2.2-.6h0c.8,0,1.5.2,2,.5.6.3,1,.7,1.3,1.3.3.5.4,1.1.4,1.8,0,1.2-.4,2.2-1.1,2.9-.7.8-1.8,1.1-3.1,1.1h0c-.7,0-1.3-.2-1.9-.5-.5-.3-1-.7-1.3-1.2s-.5-1.1-.5-1.8.2-1.4.5-2.1h0Z"/>
      <path class="st4" d="M523.8,38.5c0-.8,0-1.5-.3-2s-.7-.9-1.3-1.1c-.6-.2-1.5-.4-2.6-.4s-2.7,0-3.8.4c-1.1.3-2.3.6-3.5,1h0l-1.4-2.5c.5-.4,1.2-.8,2.3-1.4,1.1-.5,2.3-1,3.7-1.4s2.9-.6,4.4-.6c2.2,0,4,.3,5.2.8s2.2,1.4,2.7,2.6c.5,1.2.8,2.8.8,4.8v12.2h2.3v2.7c-.7.2-1.6.3-2.7.5-1.1.2-2,.2-2.8.2s-1.3,0-1.7-.2c-.4,0-.7-.4-.8-.7s-.3-.8-.3-1.5v-.6c-.7.8-1.6,1.5-2.8,2.1s-2.5.9-4,.9-2.6-.3-3.7-.8c-1.1-.6-2-1.4-2.6-2.4-.7-1.1-1-2.4-1-3.9,0-2.6,1.2-4.6,3.7-5.9,2.4-1.3,5.8-2,10.2-2v-.7h0ZM523.8,42c-2.3,0-4,.4-5,1.2-1,.8-1.6,1.9-1.6,3.1s.3,2.3.9,3c.6.7,1.4,1,2.4,1s1.1,0,1.7-.4c.6-.3,1.2-.6,1.6-1v-7h0Z"/>
      <path class="st4" d="M538.9,51.3v-15.6l-2.6-.8v-3.4l7.5-1h0l1.1.9v2.5c.9-.9,2.2-1.7,3.7-2.3s3.1-1,4.7-1,3.1.3,4.1.9c1,.6,1.7,1.6,2.1,2.9.4,1.3.7,3.2.7,5.5v11.4l2.5.4v2.7h-11.6v-2.7l2.2-.4v-11.3c0-1.3,0-2.4-.3-3.2-.2-.8-.5-1.3-1-1.7s-1.2-.5-2-.5-1.6.2-2.4.5c-.8.4-1.5.8-2.1,1.3v14.9l2.4.4v2.7h-11.7v-2.7l2.4-.4h.2Z"/>
      <path class="st4" d="M581.3,30.8c.8.2,1.7.4,2.7.7.7.2,1.2.3,1.6.4l-.3,7.1h-4.2l-1.1-4.2c0-.4-.4-.7-.8-.8-.4-.2-.9-.3-1.4-.3-2.9,0-4.3,2.6-4.3,7.9s.2,3.5.7,4.8,1.1,2.3,1.9,2.9c.8.6,1.8,1,2.8,1s2.3,0,3.2-.4,1.8-.7,2.5-1.1l1.1,2.4c-.4.5-1.1,1-1.9,1.5-.8.5-1.8.9-3,1.3-1.1.4-2.3.5-3.6.5-2.5,0-4.6-.5-6.2-1.5-1.6-1-2.9-2.3-3.6-4.1-.8-1.7-1.2-3.7-1.2-6s.5-4.5,1.5-6.4c1-1.8,2.4-3.3,4.3-4.3,1.8-1,4-1.5,6.4-1.5s2.1,0,2.9.2h0Z"/>
      <path class="st4" d="M590.8,36.1c1-1.8,2.3-3.2,4.1-4.1,1.8-1,3.8-1.4,6.1-1.4s5.2.7,6.8,2.1c1.6,1.4,2.4,3.3,2.5,5.9,0,1.8,0,3.1-.3,4.1h-13.5c.2,2.6.8,4.5,1.9,5.7,1.1,1.2,2.5,1.9,4.4,1.9s2.1-.2,3.3-.5c1.1-.4,2.1-.8,2.8-1.2l1.2,2.6c-.5.5-1.2,1-2.2,1.6-1,.5-2,1-3.3,1.3-1.2.4-2.5.5-3.7.5-2.6,0-4.7-.5-6.4-1.5s-2.9-2.4-3.7-4.1c-.8-1.8-1.2-3.8-1.2-6.2s.5-4.6,1.5-6.4l-.3-.3ZM603.5,39.7v-1.5c0-1.5-.2-2.6-.7-3.5-.5-.8-1.3-1.2-2.5-1.2s-1.5.2-2,.5c-.6.3-1,1-1.3,1.9-.3.9-.5,2.2-.6,3.8h7.2-.1Z"/>
    </g>
  </g>
  <g>
    <path class="st9" d="M77.7,132.1c0,.3,0,.6-.1.9,0,.3-.2.5-.4.7-.1.2-.3.3-.5.5-.2.1-.4.2-.6.3h0c.3,0,.5.2.7.3s.4.3.6.5c.2.2.3.4.4.7.1.3.2.6.2.9s0,.8-.2,1.1c-.1.3-.3.6-.6.8s-.6.4-1.1.6c-.4.1-.9.2-1.5.2h-2v-9.9h1.9c.6,0,1.1,0,1.5.2.4.1.8.3,1,.5.3.2.5.5.6.8s.2.7.2,1h0ZM76.4,132.1c0-.5-.2-.8-.5-1.1s-.8-.4-1.5-.4h-.7v3.4h.6c.7,0,1.2-.2,1.5-.5s.5-.8.5-1.4h0ZM76.6,136.7c0-.5-.2-1-.5-1.3-.4-.3-.9-.5-1.5-.5h-.8v3.5h.8c.7,0,1.3-.1,1.6-.4.3-.3.5-.7.5-1.3h-.1ZM84.3,139.5h-1.1v-.8h0s0,.1-.2.3c0,.1-.2.2-.4.3-.1,0-.3.2-.5.3-.2,0-.4.1-.7.1s-.6,0-.8-.1c-.2,0-.5-.2-.6-.4-.2-.2-.3-.5-.4-.8,0-.3-.1-.7-.1-1.2v-4.5h1.2v4.4c0,.6,0,1,.3,1.2.2.2.5.4.9.4s.6,0,.8-.3c.2-.2.4-.3.5-.5v-5.3h1.2v6.9h0ZM89.8,139.5v-4.4c0-.6,0-1-.3-1.3-.2-.3-.5-.4-.9-.4s-.6,0-.9.3c-.2.2-.4.3-.5.5v5.3h-1.2v-6.9h1.1v.8h0s0-.1.2-.3c0-.1.2-.2.4-.3.2,0,.3-.2.5-.3.2,0,.5-.1.7-.1s.6,0,.8.1c.2,0,.5.2.6.4.2.2.3.5.4.8,0,.3.1.7.1,1.2v4.5h-1.2.2ZM92.4,136.1c0-.7,0-1.3.3-1.8.2-.5.4-.8.7-1.1s.6-.5,1-.6.7-.2,1.1-.2h.6c.2,0,.3,0,.4.1v-3.3h1.2c0-.1,0,10.2,0,10.2h-1.1v-.7h0s0,.1-.2.2c0,.1-.2.2-.3.3s-.3.2-.5.3c-.2,0-.4.1-.7.1s-.6,0-.9-.2c-.3-.1-.5-.3-.8-.6-.2-.3-.4-.6-.5-1.1-.1-.4-.2-1-.2-1.6h-.1ZM95.2,138.6h.5c.1,0,.3-.1.4-.2.1,0,.2-.1.3-.2l.2-.2v-4.3c-.1,0-.2-.1-.4-.2h-.5c-.2,0-.5,0-.8.1-.2,0-.4.2-.6.5-.2.2-.3.5-.4.8,0,.3-.1.7-.1,1.2s0,.9.1,1.2c0,.3.2.6.3.8s.3.3.5.4c.2,0,.4.1.6.1h-.1ZM103.8,134.9v1.4h-3.5c0,.8.2,1.4.5,1.8.3.4.8.6,1.3.6h.5c.2,0,.3-.1.4-.2.1,0,.2-.1.3-.2l.2-.2.4.8-.2.2s-.2.2-.4.3c-.2,0-.4.2-.6.2s-.5.1-.8.1-.8,0-1.2-.2c-.3-.1-.6-.4-.9-.7-.2-.3-.4-.7-.6-1.2-.1-.5-.2-1-.2-1.7s0-1.1.2-1.6c.1-.4.3-.8.6-1.1.2-.3.5-.5.8-.6s.7-.2,1-.2c.7,0,1.2.2,1.6.6s.6,1,.6,1.9h0ZM101.6,133.4c-.4,0-.7.2-1,.5s-.4.8-.4,1.5h2.5v-.5c0-.5,0-.8-.3-1.1-.2-.3-.5-.4-.8-.4ZM108.4,134l-.4-.4c-.2-.1-.5-.2-.8-.2s-.5,0-.7.2c-.2.1-.2.3-.2.5s0,.5.2.6c.1.2.4.3.7.5l.4.3c.5.3.8.6,1.1.9.3.3.4.7.4,1.2s-.2,1-.6,1.4c-.4.4-.9.6-1.6.6s-.5,0-.7,0-.4-.1-.6-.2c-.2,0-.3-.2-.4-.2s-.2-.2-.3-.3l.6-.9.2.2s.2.2.3.2.2.1.4.2h.5c.3,0,.6,0,.8-.2s.3-.3.3-.6v-.4c0-.1-.1-.2-.2-.3l-.3-.3c-.1,0-.3-.2-.4-.3l-.4-.3c-.4-.3-.8-.6-1-.9-.2-.3-.4-.7-.4-1.2s0-.5.2-.7c0-.2.2-.4.4-.6.2-.2.4-.3.6-.4.2,0,.5-.1.8-.1h.7c.2,0,.4.1.5.2.1,0,.3.2.3.2,0,0,.2.1.2.2l-.5.8v.3ZM114,139.5v-4.4c0-.6,0-1-.2-1.2s-.4-.4-.8-.4h-.5c-.1,0-.3.1-.4.2-.1,0-.2.2-.3.2l-.2.2v5.3h-1.2v-6.9h1.1v.8h0s.1-.2.2-.3c0-.1.2-.2.4-.3.1-.1.3-.2.5-.3.2,0,.4-.1.6-.1.8,0,1.3.3,1.7.9l.3-.3c.1-.1.2-.2.4-.3.2,0,.3-.2.5-.2h.6c1.4,0,2.1.8,2.1,2.4v4.6h-1.2v-4.4c0-.6-.1-1-.3-1.2s-.5-.4-.9-.4-.6,0-.8.2-.4.3-.5.5v5.3h-1.2,0ZM121.7,139.5h-1.2v-6.9h1.2v6.9ZM121.2,130.9c-.2,0-.4,0-.6-.2-.1-.2-.2-.4-.2-.6s0-.4.2-.6c.1-.2.3-.2.6-.2s.4,0,.6.2c.1.2.2.3.2.6s0,.4-.2.6c-.1.2-.3.2-.6.2ZM127.3,139.5v-4.4c0-.6,0-1-.3-1.3-.2-.3-.5-.4-.9-.4s-.6,0-.9.3c-.2.2-.4.3-.5.5v5.3h-1.2v-6.9h1.1v.8h0s0-.1.2-.3c0-.1.2-.2.4-.3.2,0,.3-.2.5-.3.2,0,.5-.1.7-.1s.6,0,.8.1c.2,0,.5.2.6.4.2.2.3.5.4.8,0,.3.1.7.1,1.2v4.5h-1.2.2ZM131.3,139.5h-1.2v-6.9h1.2v6.9ZM130.8,130.9c-.2,0-.4,0-.6-.2-.1-.2-.2-.4-.2-.6s0-.4.2-.6c.1-.2.3-.2.6-.2s.4,0,.6.2c.1.2.2.3.2.6s0,.4-.2.6c-.1.2-.3.2-.6.2ZM136.1,134l-.4-.4c-.2-.1-.5-.2-.8-.2s-.5,0-.7.2c-.2.1-.2.3-.2.5s0,.5.2.6c.1.2.4.3.7.5l.4.3c.5.3.8.6,1.1.9.3.3.4.7.4,1.2s-.2,1-.6,1.4c-.4.4-.9.6-1.6.6s-.5,0-.7,0-.4-.1-.6-.2c-.2,0-.3-.2-.4-.2s-.2-.2-.3-.3l.6-.9.2.2s.2.2.3.2.2.1.4.2h.5c.3,0,.6,0,.8-.2s.3-.3.3-.6v-.4c0-.1-.1-.2-.2-.3l-.3-.3c-.1,0-.3-.2-.4-.3l-.4-.3c-.4-.3-.8-.6-1-.9-.2-.3-.4-.7-.4-1.2s0-.5.2-.7c.1-.2.2-.4.4-.6.2-.2.4-.3.6-.4.2,0,.5-.1.8-.1h.7c.2,0,.4.1.5.2.1,0,.3.2.3.2,0,0,.2.1.2.2l-.5.8v.3ZM141.1,133.5h-1.5v3.8c0,.5,0,.8.2,1,.1.2.3.3.6.3h.4c.1,0,.2,0,.3-.1l.2.9s-.2,0-.3.2c-.2,0-.4.1-.7.1-.6,0-1-.2-1.3-.5s-.4-.9-.4-1.6v-4h-.8v-.8l.8-.2v-1.9h1.2v1.9h1.7v.9h-.4ZM146.8,134.9v1.4h-3.5c0,.8.2,1.4.5,1.8.3.4.8.6,1.3.6h.5c.2,0,.3-.1.4-.2.1,0,.2-.1.3-.2,0,0,.1-.1.2-.2l.4.8s-.1.1-.2.2c0,0-.2.2-.4.3-.2,0-.4.2-.6.2s-.5.1-.9.1-.8,0-1.2-.2c-.3-.1-.6-.4-.9-.7-.2-.3-.4-.7-.6-1.2-.1-.5-.2-1-.2-1.7s0-1.1.2-1.6c.1-.4.3-.8.6-1.1.2-.3.5-.5.8-.6s.7-.2,1-.2c.7,0,1.2.2,1.6.6.4.4.6,1,.6,1.9h.1ZM144.6,133.4c-.4,0-.7.2-1,.5s-.4.8-.4,1.5h2.5v-.5c0-.5,0-.8-.3-1.1-.2-.3-.5-.4-.8-.4h0ZM151.3,133.6h-.6c-.4,0-.7,0-.9.3-.2.2-.4.4-.4.6v5.1h-1.2v-6.9h1.1v.9h0c0-.1.1-.3.2-.4,0-.1.2-.2.3-.3.1,0,.3-.2.4-.2h1.2v1h-.1ZM153.7,139.5h-1.2v-6.9h1.2v6.9ZM153.1,130.9c-.2,0-.4,0-.6-.2-.1-.2-.2-.4-.2-.6s0-.4.2-.6c.1-.2.3-.2.6-.2s.4,0,.6.2c.1.2.2.3.2.6s0,.4-.2.6c-.1.2-.3.2-.6.2ZM160.3,139.5h-1.1v-.8h0s0,.1-.2.3c0,.1-.2.2-.4.3-.1,0-.3.2-.5.3-.2,0-.4.1-.7.1s-.6,0-.8-.1c-.2,0-.5-.2-.6-.4-.2-.2-.3-.5-.4-.8,0-.3-.1-.7-.1-1.2v-4.5h1.2v4.4c0,.6,0,1,.3,1.2.2.2.5.4.9.4s.6,0,.8-.3c.2-.2.4-.3.5-.5v-5.3h1.2v6.9h0ZM165.7,139.5v-4.4c0-.6,0-1-.2-1.2s-.4-.4-.8-.4h-.5c-.1,0-.3.1-.4.2-.1,0-.2.2-.3.2l-.2.2v5.3h-1.2v-6.9h1.1v.8h0s.1-.2.2-.3c0-.1.2-.2.4-.3.1-.1.3-.2.5-.3.2,0,.4-.1.6-.1.8,0,1.3.3,1.7.9,0,0,.2-.2.3-.3.1-.1.2-.2.4-.3.2,0,.3-.2.5-.2h.6c1.4,0,2.1.8,2.1,2.4v4.6h-1.2v-4.4c0-.6-.1-1-.3-1.2-.2-.2-.5-.4-.9-.4s-.6,0-.8.2c-.2.2-.4.3-.5.5v5.3h-1.2,0ZM75.1,148h-1.4v6h-1.2v-6h-.8v-.8l.8-.2v-1.4c0-.4,0-.7.2-1,.1-.3.2-.5.4-.7s.4-.3.6-.4c.2,0,.5-.1.7-.1s.5,0,.6.1c.2,0,.3.1.3.2l-.2,1s-.1,0-.2-.1h-.4c-.3,0-.5,0-.6.3-.1.2-.2.5-.2,1v1.2h1.6v.9h-.2ZM81.1,154h-1.1v-.8h0s0,.1-.2.3c0,.1-.2.2-.4.3-.1,0-.3.2-.5.3-.2,0-.4.1-.7.1s-.6,0-.8-.1c-.2,0-.5-.2-.6-.4-.2-.2-.3-.5-.4-.8,0-.3-.1-.7-.1-1.2v-4.5h1.2v4.4c0,.6,0,1,.3,1.2.2.2.5.4.9.4s.6,0,.8-.3c.2-.2.4-.3.5-.5v-5.3h1.2v6.9h0ZM78.2,145.1c0,.2,0,.4-.2.5-.1.1-.3.2-.5.2s-.4,0-.5-.2c-.1-.1-.2-.3-.2-.5s0-.4.2-.5c.1-.1.3-.2.5-.2s.4,0,.5.2c.1.1.2.3.2.5ZM80.5,145.1c0,.2,0,.4-.2.5-.1.1-.3.2-.5.2s-.4,0-.5-.2c-.1-.1-.2-.3-.2-.5s0-.4.2-.5c.1-.1.3-.2.5-.2s.4,0,.5.2c.1.1.2.3.2.5ZM85.9,148.1h-.6c-.4,0-.6,0-.9.3-.2.2-.4.4-.4.6v5.1h-1.2v-6.9h1.1v.9h0c0-.1.1-.3.2-.4,0-.1.2-.2.3-.3s.3-.2.4-.2h1.2v1h-.1ZM95.2,146.6c0,.3,0,.6-.1.9,0,.3-.2.5-.4.7-.1.2-.3.3-.5.5-.2.1-.4.2-.6.3h0c.3,0,.5.2.7.3s.4.3.6.5c.2.2.3.4.4.7.1.3.2.6.2.9s0,.8-.2,1.1c-.1.3-.3.6-.6.8s-.6.4-1.1.6c-.4.1-.9.2-1.5.2h-2v-9.9h1.9c.6,0,1.1,0,1.5.2.4.1.8.3,1,.5.3.2.5.5.6.8s.2.7.2,1h0ZM94,146.6c0-.5-.2-.8-.5-1.1s-.8-.4-1.5-.4h-.7v3.4h.6c.7,0,1.2-.2,1.5-.5s.5-.8.5-1.4h0ZM94.2,151.2c0-.5-.2-1-.5-1.3s-.9-.5-1.5-.5h-.8v3.5h.8c.7,0,1.3-.1,1.6-.4.3-.3.5-.7.5-1.3h-.1ZM98.2,154h-1.2v-6.9h1.2v6.9ZM97.6,145.4c-.2,0-.4,0-.6-.2-.1-.2-.2-.4-.2-.6s0-.4.2-.6c.1-.2.3-.2.6-.2s.4,0,.6.2c.1.2.2.4.2.6s0,.5-.2.6c-.1.2-.3.2-.6.2ZM101.1,152.4c0,.3,0,.5.1.6,0,.1.2.2.4.2h.5v.9h-.2c-.2.1-.4.1-.6.1-.4,0-.7-.1-.9-.4-.2-.2-.4-.7-.4-1.3v-8.7h1.2c0-.1,0,8.6,0,8.6h-.1ZM102.9,150.6c0-.7,0-1.3.3-1.8.2-.5.4-.8.7-1.1s.6-.5,1-.6.7-.2,1.1-.2h.6c.2,0,.3,0,.4.1v-3.3h1.2c0-.1,0,10.2,0,10.2h-1.1v-.7h0s0,.1-.2.2l-.3.3c-.1,0-.3.2-.5.3-.2,0-.4.1-.7.1s-.6,0-.9-.2c-.3-.1-.5-.3-.8-.6-.2-.3-.4-.6-.5-1.1-.1-.4-.2-1-.2-1.6h-.1ZM105.7,153.1h.5c.1,0,.3-.1.4-.2.1,0,.2-.1.3-.2l.2-.2v-4.3c-.1,0-.2-.1-.4-.2h-.5c-.2,0-.5,0-.8.1-.2,0-.4.2-.6.5-.2.2-.3.5-.4.8-.1.3-.2.7-.2,1.2s0,.9.1,1.2c0,.3.2.6.3.8s.3.3.5.4c.2,0,.4.1.6.1h0ZM114.7,154h-1.1v-.8h0s0,.1-.2.3c0,.1-.2.2-.4.3-.1,0-.3.2-.5.3-.2,0-.4.1-.7.1s-.6,0-.8-.1c-.2,0-.5-.2-.6-.4-.2-.2-.3-.5-.4-.8,0-.3-.1-.7-.1-1.2v-4.5h1.2v4.4c0,.6,0,1,.3,1.2.2.2.5.4.9.4s.6,0,.8-.3c.2-.2.4-.3.5-.5v-5.3h1.2v6.9h0ZM120.3,154v-4.4c0-.6,0-1-.3-1.3-.2-.3-.5-.4-.9-.4s-.6,0-.9.3c-.2.2-.4.3-.5.5v5.3h-1.2v-6.9h1.1v.8h0s0-.1.2-.3c0-.1.2-.2.4-.3s.3-.2.5-.3c.2,0,.5-.1.7-.1s.6,0,.8.1c.2,0,.5.2.6.4.2.2.3.5.4.8,0,.3.1.7.1,1.2v4.5h-1.2.2ZM128.1,148h-.9c.2.4.3.8.3,1.2s0,.7-.2,1c-.1.3-.3.5-.5.7s-.5.4-.8.5-.6.2-.9.2h-.4c-.1,0-.2.1-.4.2-.1.1-.2.2-.2.4s0,.3.2.4c.1,0,.3.1.5.1h1.8c.3,0,.5.2.7.3s.4.3.5.6c.1.2.2.5.2.8s0,.7-.2,1-.4.6-.7.8-.6.4-1,.5-.9.2-1.4.2-1.3-.2-1.7-.5-.6-.8-.6-1.4,0-.5.1-.7c0-.2.2-.3.3-.5.1-.1.3-.2.4-.3.1,0,.2-.1.3-.2h0c-.3-.2-.4-.6-.4-1s0-.3.1-.5c0-.1.2-.2.2-.3,0,0,.2-.2.3-.2,0,0,.2,0,.2-.1h0c-.4-.2-.6-.4-.9-.8-.2-.3-.3-.8-.3-1.3s0-.7.2-1c.1-.3.3-.5.5-.7s.5-.3.7-.4c.3,0,.6-.1.9-.1s.6,0,.9.2h2.1l-.2.9h.3ZM124.9,153.8h-.5s-.2.1-.3.2c0,0-.2.1-.2.2,0,0-.1.2-.2.3v.5c0,.7.4,1.1,1.2,1.1s1.2-.1,1.6-.4c.3-.3.5-.6.5-.9s-.1-.6-.3-.7c-.2-.1-.5-.2-.8-.2h-1ZM126.5,149.2c0-.5-.1-.9-.4-1.1-.2-.2-.5-.3-.8-.3s-.6.1-.9.3c-.2.2-.4.6-.4,1.1s.1.9.4,1.1c.2.2.5.3.8.3s.6-.1.9-.3c.2-.2.4-.6.4-1.1ZM77,168.5h-1.1v-.8h0s0,.1-.2.3c0,.1-.2.2-.4.3-.1.1-.3.2-.5.3-.2,0-.4.1-.7.1s-.6,0-.8-.1c-.2,0-.5-.2-.6-.4-.2-.2-.3-.5-.4-.8,0-.3-.1-.7-.1-1.2v-4.5h1.2v4.4c0,.6,0,1,.3,1.2.2.2.5.4.9.4s.6,0,.8-.3c.2-.2.4-.3.5-.5v-5.3h1.2v6.9h0ZM82.6,168.5v-4.4c0-.6,0-1-.3-1.3-.2-.3-.5-.4-.9-.4s-.6,0-.9.3c-.2.2-.4.3-.5.5v5.3h-1.2v-6.9h1.1v.8h0s0-.1.2-.3c0-.1.2-.2.4-.3s.3-.2.5-.3c.2,0,.4-.1.7-.1s.6,0,.8.1c.2,0,.5.2.6.4.2.2.3.5.4.8,0,.3.1.7.1,1.2v4.5h-1.2.2ZM85.2,165.1c0-.7,0-1.3.3-1.8.2-.5.4-.8.7-1.1s.6-.5,1-.6.7-.2,1.1-.2h.6c.2,0,.3,0,.4.1v-3.3h1.2c0-.1,0,10.2,0,10.2h-1.1v-.7h0s0,.1-.2.2c0,.1-.2.2-.3.3s-.3.2-.5.3c-.2,0-.4.1-.7.1s-.6,0-.9-.2c-.3-.1-.5-.3-.8-.6-.2-.3-.4-.6-.5-1.1-.1-.4-.2-1-.2-1.6h-.1ZM87.9,167.6h.5c.1,0,.3-.1.4-.2.1,0,.2-.1.3-.2l.2-.2v-4.3c-.1,0-.2-.1-.4-.2h-.5c-.2,0-.5,0-.8.1-.2,0-.4.2-.6.5-.2.2-.3.5-.4.8-.1.3-.2.7-.2,1.2s0,.9.1,1.2c0,.3.2.6.3.8s.3.3.5.4c.2,0,.4.1.6.1h0ZM95.4,168.5v-9.9h4.9v1h-3.6v3.7h3.3v1h-3.3v4.3h-1.3,0ZM101.2,165c0-.6,0-1.2.2-1.6.1-.5.3-.8.6-1.1s.5-.5.9-.6c.3-.1.7-.2,1.1-.2s.7,0,1.1.2c.3.1.6.4.8.6.2.3.4.7.6,1.1.1.5.2,1,.2,1.6s0,1.2-.2,1.7c-.1.5-.3.8-.6,1.1s-.5.5-.9.6c-.3.1-.7.2-1.1.2s-.7,0-1.1-.2c-.3-.1-.6-.3-.8-.6s-.4-.7-.6-1.1c-.1-.5-.2-1-.2-1.7ZM105.4,165c0-.9-.1-1.6-.4-2-.3-.4-.6-.6-1.1-.6s-.9.2-1.1.6c-.3.4-.4,1.1-.4,2s.1,1.6.4,2c.3.4.6.6,1.1.6s.8-.2,1.1-.6c.3-.4.4-1.1.4-2ZM111.1,162.6h-.6c-.4,0-.6,0-.9.3-.2.2-.4.4-.4.6v5.1h-1.2v-6.9h1.1v.9h0c0-.1.1-.3.2-.4,0-.1.2-.2.3-.3s.3-.2.4-.2h1.2v1h-.1ZM115.2,163l-.4-.4c-.2-.1-.5-.2-.8-.2s-.5,0-.7.2c-.2.1-.2.3-.2.5s0,.5.2.6c.1.2.4.3.7.5l.4.3c.5.3.8.6,1.1.9.3.3.4.7.4,1.2s-.2,1-.6,1.4c-.4.4-.9.6-1.6.6s-.5,0-.7,0-.4-.1-.6-.2c-.2,0-.3-.2-.4-.3-.1,0-.2-.2-.3-.3l.6-.9.2.2s.2.2.3.2.2.1.4.2h.5c.3,0,.6,0,.8-.2s.3-.3.3-.6v-.4c0-.1-.1-.2-.2-.3l-.3-.3c-.1,0-.3-.2-.4-.3l-.4-.3c-.4-.3-.8-.6-1-.9-.2-.3-.4-.7-.4-1.2s0-.5.2-.7c.1-.2.2-.4.4-.6.2-.2.4-.3.6-.4.2,0,.5-.1.8-.1h.7c.2,0,.4.1.5.2.1,0,.3.2.3.2l.2.2-.5.8v.4ZM121.1,162.9h-.1c0-.1-.1-.2-.2-.3,0,0-.2-.1-.3-.2h-.5c-.3,0-.5,0-.7.1-.2,0-.4.2-.6.4-.2.2-.3.5-.4.8,0,.3-.1.7-.1,1.2s0,.9.1,1.3c0,.3.2.6.3.8s.3.4.5.4.4.1.7.1.6,0,.8-.2.3-.2.4-.3l.5.8-.2.2s-.2.2-.4.2-.3.1-.5.2h-.7c-.4,0-.7,0-1.1-.2-.3-.1-.6-.3-.9-.6-.2-.3-.4-.7-.6-1.1-.1-.5-.2-1-.2-1.7s0-1.2.3-1.7c.2-.5.4-.8.7-1.1s.6-.5.9-.6c.3-.1.7-.2,1-.2h.7c.2,0,.4.1.5.2.1,0,.3.1.3.2l.2.2-.5.8v.3ZM126.6,168.5v-4.4c0-.6,0-1-.3-1.3-.2-.3-.5-.4-.9-.4s-.6,0-.9.3c-.2.2-.4.3-.5.5v5.3h-1.2v-10.2h1.2c0-.1,0,4,0,4h0s0-.1.2-.2l.3-.3c.1,0,.3-.2.5-.3.2,0,.4-.1.7-.1.6,0,1.1.2,1.4.6.4.4.5,1,.5,2v4.5h-1.2.2ZM134.3,168.5h-1.1v-.8h0s0,.1-.2.3c0,.1-.2.2-.4.3-.1.1-.3.2-.5.3-.2,0-.4.1-.7.1s-.6,0-.8-.1c-.2,0-.5-.2-.6-.4-.2-.2-.3-.5-.4-.8,0-.3-.1-.7-.1-1.2v-4.5h1.2v4.4c0,.6,0,1,.3,1.2.2.2.5.4.9.4s.6,0,.8-.3c.2-.2.4-.3.5-.5v-5.3h1.2v6.9h0ZM139.9,168.5v-4.4c0-.6-.1-1-.3-1.3s-.5-.4-.9-.4-.6,0-.9.3c-.2.2-.4.3-.5.5v5.3h-1.2v-6.9h1.1v.8h0s0-.1.2-.3c0-.1.2-.2.4-.3s.3-.2.5-.3c.2,0,.5-.1.7-.1s.6,0,.8.1c.2,0,.5.2.6.4.2.2.3.5.4.8,0,.3.1.7.1,1.2v4.5h-1.2.2ZM147.7,162.5h-.9c.2.4.3.8.3,1.2s0,.7-.2,1c-.1.3-.3.5-.5.7s-.5.4-.8.5c-.3.1-.6.2-.9.2h-.4c-.1,0-.2.1-.4.2-.1.1-.2.2-.2.4s0,.3.2.4c.1,0,.3.1.5.1h.9c.3,0,.6,0,.9.1.3,0,.5.2.7.3s.4.3.5.6c.1.2.2.5.2.8s0,.7-.2,1-.4.6-.7.8c-.3.2-.6.4-1,.5s-.9.2-1.4.2-1.3-.2-1.7-.5-.6-.8-.6-1.4,0-.5.1-.7c0-.2.2-.3.3-.5.1-.1.3-.2.4-.3.1,0,.2-.1.3-.2h0c-.3-.3-.4-.6-.4-1s0-.3.1-.5c0-.1.2-.2.2-.3,0,0,.2-.2.3-.2,0,0,.2,0,.2-.1h0c-.4-.2-.6-.4-.9-.8-.2-.3-.3-.8-.3-1.3s0-.7.2-1c.1-.3.3-.5.5-.7s.5-.3.7-.4c.3,0,.6-.1.9-.1s.6,0,.9.2h2.1l-.2.9h.3ZM144.5,168.3h-.5s-.2.1-.3.2c0,0-.2.1-.2.2,0,0-.1.2-.2.3v.5c0,.7.4,1.1,1.2,1.1s1.2-.1,1.6-.4c.3-.3.5-.6.5-.9s-.1-.6-.3-.7-.5-.2-.8-.2h-1ZM146.1,163.7c0-.5-.1-.9-.4-1.1-.2-.2-.5-.3-.8-.3s-.6.1-.9.3c-.2.2-.4.6-.4,1.1s.1.9.4,1.1c.2.2.5.3.8.3s.6-.1.9-.3c.2-.2.4-.6.4-1.1Z"/>
    <polygon class="st7" points="61.7 178.1 63.5 178.1 63.5 202.3 59.2 202.3 59.2 178.1 61.7 178.1"/>
    <polygon class="st2" points="61.7 153.9 63.5 153.9 63.5 178.1 59.2 178.1 59.2 153.9 61.7 153.9"/>
    <path class="st9" d="M48.2,138.3c1.2,2,2.2,1.9,3.7,1.9-1.2-.9-2-2.1-2.4-2.7l-2.3-3.6c-.2-1.1-.8-2.2-1.7-2.9.3-.1.5-.2.7-.3-1.5,0-2.9-.7-3.7-.7s-.9.3-.9.7.5.9,1.4.9.4,0,.7,0c.5.7.8,1.2.8,2.1,0,1.6-1.9,2.8-3.8,2.8s-.2,0-.3,0c-.2-.4-.7-1.1-.7-1.8,0-1.3.8-2.3.8-3.5s-.4-1.3-.5-1.5c.2-.2.5-.5.6-.7h-.5c-.9,0-1.7-.2-2.4-.2s-.5.1-.5.3,0,0,0,.1c-.2,0-.3-.1-.5-.1h-.7c-.9,0-1.2.4-1.2.7s.2.8.5,1.1c.3-.2.8-.3.9-.3.5,0,.9.4,1.1,1h-.7c-.9,0-1.4-.3-1.6-.3s0,0,0,0c0,.1.2.4.7.6.6.2,1.6.3,1.7.4,0,0-.2.3-.3.4h-.1c-.7-.1-.8-.2-1.7-.5h0c0,.3.9,1.1,1.6,1.3-.6.8-1.4,1.7-1.8,2.9h-.3c-1.9,0-3.8-1.2-3.8-2.8s.4-1.4.8-2.1h.7c.9,0,1.3-.5,1.4-.9,0-.4-.3-.7-.9-.7s-2.3.7-3.7.7c.1.1.4.2.7.3-.9.8-1.4,1.8-1.7,2.9l-2.3,3.6c-.4.6-1.2,1.8-2.4,2.7,1.5,0,2.4,0,3.7-1.9l1.2-1.9c0,.2.2.5.3.7l-2.3,3.7c-.4.6-1.2,1.8-2.4,2.7,1.5,0,2.4,0,3.7-1.9l2-3.2c.1.2.3.3.5.5l-2.8,4.5c-.4.6-1.2,1.8-2.4,2.7,1.5,0,2.4,0,3.7-1.9l2.7-4.4c.2.1.4.2.6.3l-3.3,5.3c-.4.6-1.2,1.8-2.4,2.7,1.5,0,2.4,0,3.7-1.9l3.4-5.5c.2,0,.4.2.6.2l-3.9,6.2c-.4.6-1.2,1.8-2.4,2.7,1.5,0,2.4,0,3.7-1.9l4.1-6.6h.1c.1.4.2.7.2,1,0,2.1-1.4,3.9-3,5.3h1.2c-.4.9-1.2,2-1.6,2.5-.5,0-1.3-.2-1.8-.2s-.6.3-.6.6c0,.5.2.9.5,1.1,0-.2.3-.6,1.3-.6s0,0,0,0c-.3.3-1.2,1-1.2,1.6s.4,1,1,1v-.3c0-.5.4-1,.8-1.4v.2c0,1.1.1,1.6.8,1.6s.6-.2.7-.2c-.5-.4-.5-.8-.5-1.4v-1h.6s1,0,1.3.4c.3-.3.7-.6.7-1s-.1-.6-.6-.6-.8.1-1.3.1c.1-.3.8-1.2,1.3-1.9,0,.3.2.5.5.8,0-.4.3-1.8,1-2.6,0,.5.2,1.1.2,2.2,0,2.8-.7,4.9-2.1,5.3.2.3.6.6,1,.6s.8-.6,1.1-1.1c.2.4.6,1.4,1,1.4s.8-1,1-1.4c.3.6.6,1.1,1.1,1.1s.8-.3,1-.6c-1.4-.4-2.1-2.5-2.1-5.3s.1-1.7.2-2.2c.7.8.9,2.1,1,2.6.3-.2.4-.5.5-.8.5.7,1.2,1.6,1.3,1.9-.5,0-1.1-.1-1.3-.1-.5,0-.6.3-.6.6s.4.7.7,1c.2-.5,1.3-.4,1.3-.4h.6v1c0,.6,0,1-.5,1.4,0,0,.3.2.7.2.7,0,.8-.5.8-1.6s0-.1,0-.2c.4.4.8.9.8,1.4s0,.2,0,.3c.6,0,1-.6,1-1,0-.6-.9-1.3-1.2-1.6h0c1,0,1.2.3,1.3.6.3-.2.5-.6.5-1.1s0-.6-.6-.6-1.3,0-1.8.2c-.4-.6-1.2-1.7-1.6-2.5h1.2c-1.6-1.4-3-3.3-3-5.3s0-.7.2-1h.1l4.1,6.6c1.2,2,2.2,1.9,3.7,1.9-1.2-.9-2-2.1-2.4-2.7l-3.9-6.2c.2,0,.4-.1.6-.2l3.4,5.5c1.2,2,2.2,1.9,3.7,1.9-1.2-.9-2-2.1-2.4-2.7l-3.3-5.3c.2-.1.4-.2.6-.3l2.7,4.4c1.2,2,2.2,1.9,3.7,1.9-1.2-.9-2-2.1-2.4-2.7l-2.8-4.5c.2-.1.3-.3.5-.5l2,3.2c1.2,2,2.2,1.9,3.7,1.9-1.2-.9-2-2.1-2.4-2.7l-2.3-3.7c.1-.2.2-.5.3-.7l1.2,1.9h-.9ZM29.7,134c0-1.4,1-2.5,1.4-2.8h.3c-.4.5-1,1.2-1,2.2,0,2,2.2,3.8,4.6,3.8v1.3c-2.8,0-5.2-2.3-5.2-4.7v.2ZM33.5,150.5h1.7c.2,0,.4,0,.4.3s-.2.4-.4.6c-.3-.3-.7-.3-1.3-.3h-.8v1.2c0,.7,0,1,.3,1.3h-.2c-.4,0-.5-.2-.5-1.4s0-.5,0-.6v-.2h0c-.6.5-1.2,1.3-1.3,1.9-.2-.1-.4-.4-.4-.6,0-.3.5-.8,1.1-1.4l.3-.3h-.7c-.7,0-1.1.1-1.3.4,0-.1-.2-.4-.2-.6s0-.2,0-.2h.2c.7,0,1.6.1,1.9.2h0s1.4-1.9,1.8-2.9h.3c.3,0,.3.2.4.5-.9,1.1-1.4,1.9-1.6,2.4l.3-.3ZM40.9,147.6h.3c.4,1,1.7,2.8,1.8,2.9h0c.3,0,1.2-.2,1.9-.2h.2v.2c0,.2,0,.5-.2.6-.3-.3-.7-.4-1.3-.4h-.6l.4.4c.6.6,1.1,1.1,1.1,1.4s-.2.5-.4.6c0-.6-.7-1.4-1.3-1.9h0v.8c0,1.2-.1,1.4-.5,1.4s-.2,0-.2,0c.2-.3.3-.7.3-1.3v-1.1h-.8c-.6,0-1,0-1.3.3-.2-.2-.4-.4-.4-.6s.2-.3.4-.3h1.7c-.2-.6-.7-1.4-1.6-2.5,0-.3.2-.5.4-.5v.2ZM37.7,131.6c0-.4-.3-.7-.5-1s-.6-.5-1-.5-.6.1-.8.2c0-.2-.3-.5-.3-.7s.3-.4.9-.4c1.2,0,2,.6,2,1.5s-.1.6-.3.9h0ZM38.3,130.3c0-.3-.1-.5-.3-.7,0-.2.1-.5.5-.3-.2.2,0,.6,0,.6,0,0,.4-.2.3-.5.6.2.2,1-.5.9ZM40.7,138.7v-1.3c2.4,0,4.5-1.8,4.5-3.8s-.7-1.8-1-2.2h.3c.4.3,1.4,1.4,1.4,2.8,0,2.4-2.4,4.6-5.1,4.7v-.2Z"/>
    <polygon class="st9" points="63.5 129.8 63.5 154 61.7 154 59.2 154 59.2 129.8 63.5 129.8"/>
  </g>
  <g>
    <path class="st9" d="M81.1,96.5c0-.8-.3-1.2-1.2-1.2s-1.2,0-1.2,1.4v2.2c0,1.4.4,1.8,1.2,1.8s1-.2,1.2-.3v-2h-1.2v-.7h2.1v3.2c-.5.3-1.2.5-2,.5-1.4,0-2.1-.7-2.1-2.6v-2.2c0-1.3.7-2.2,2.1-2.2s2.1.5,2.1,1.9h-.9v.2Z"/>
    <path class="st9" d="M83.6,101.3v-6.6h3.4v.7h-2.6v2.1h2.4v.7h-2.4v2.3h2.6v.7h-3.5.1Z"/>
    <path class="st9" d="M88.1,101.3v-6.6h3.3v.7h-2.4v2.1h2.3v.7h-2.3v3h-.9Z"/>
    <path class="st9" d="M92.2,98.9v-2.2c0-1.3.7-2.2,2.1-2.2s2.1.8,2.1,2.2v2.2c0,1.8-.7,2.6-2.1,2.6s-2.1-.7-2.1-2.6ZM93.9,93.9h-.9v-1h.9v1ZM95.5,98.9v-2.2c0-1.4-1-1.4-1.2-1.4s-1.2,0-1.2,1.4v2.2c0,1.4.4,1.8,1.2,1.8s1.2-.4,1.2-1.8ZM95.5,93.9h-.9v-1h.9v1Z"/>
    <path class="st9" d="M98.6,98.3v3h-.8v-6.6h2.3c1.2,0,1.6.8,1.6,1.6s-.4,1.4-1.2,1.5h0c.8,0,1,.4,1.1,1.7,0,.3.1,1.3.2,1.7h-.9c-.2-.5-.2-1.3-.3-2.2,0-.8-.7-.8-1-.8h-1ZM98.6,97.5h1.3c.6,0,.9-.5.9-1.1s-.2-1-.9-1h-1.3v2.1Z"/>
    <path class="st9" d="M102.9,94.7h2c.8,0,1.4.3,1.8,1,.3.6.3,1.9.3,2.1,0,1.4-.1,2.2-.4,2.7-.4.6-1,.9-2.2.9h-1.5v-6.6h0ZM103.8,100.6h.8c1.2,0,1.6-.4,1.6-2v-1.3c0-1.3-.4-1.8-1.3-1.8h-1.1v5.1Z"/>
    <path class="st9" d="M108.5,101.3v-6.6h3.4v.7h-2.6v2.1h2.4v.7h-2.4v2.3h2.6v.7h-3.5.1Z"/>
    <path class="st9" d="M113.9,98.3v3h-.8v-6.6h2.3c1.2,0,1.6.8,1.6,1.6s-.4,1.4-1.2,1.5h0c.8,0,1,.4,1.1,1.7,0,.3.1,1.3.2,1.7h-.9c-.2-.5-.2-1.3-.3-2.2,0-.8-.7-.8-1-.8h-1ZM113.9,97.5h1.3c.6,0,.9-.5.9-1.1s-.2-1-.9-1h-1.3v2.1Z"/>
    <path class="st9" d="M121.9,94.7v.7h-1.7v5.9h-.8v-5.9h-1.7v-.7h4.3-.1Z"/>
    <path class="st9" d="M127.1,101.3h-1l-1.9-6.6h.9l1.5,5.8h0l1.5-5.8h.9l-1.9,6.6Z"/>
    <path class="st9" d="M129.8,98.9v-2.2c0-1.3.7-2.2,2.1-2.2s2.1.8,2.1,2.2v2.2c0,1.8-.7,2.6-2.1,2.6s-2.1-.7-2.1-2.6ZM133.1,98.9v-2.2c0-1.4-1-1.4-1.2-1.4s-1.2,0-1.2,1.4v2.2c0,1.4.4,1.8,1.2,1.8s1.2-.4,1.2-1.8Z"/>
    <path class="st9" d="M136.2,101.3h-.8v-6.6h1.4l1.7,5.5h0l1.7-5.5h1.4v6.6h-.8v-5.9h0l-1.8,5.9h-.8l-1.8-5.9h0v5.9h-.2Z"/>
  </g>
  <path class="st9" d="M230.3,97.5v105.7h158.6v-105.7h-158.6ZM231.3,98.6h104.7v50.8h-104.7v-50.8ZM387.8,202.2h-156.5v-51.8h156.5v51.8ZM387.8,149.3h-50.8v-50.8h50.8v50.8Z"/>
  <path class="st10" d="M320.9,115.4v11.6c0,.2-.1.2-.2,0l-6.6-11.8c0-.1-.2-.2-.4-.2h-2.8c-.2,0-.3.1-.3.3v17c0,.2.1.3.3.3h2.5c.2,0,.3-.1.3-.3v-11.6c0-.2.1-.2.2,0l6.6,11.8c0,.1.2.2.4.2h2.8c.2,0,.3-.1.3-.3v-17c0-.2-.1-.3-.3-.3h-2.5c-.2,0-.3.1-.3.3M303.1,132.7h2.5c.2,0,.3-.1.3-.3v-17c0-.2-.1-.3-.3-.3h-2.5c-.2,0-.3.1-.3.3v17c0,.2.1.3.3.3M293.1,129.7v-14.2c0-.2-.1-.3-.3-.3h-2.5c-.2,0-.3.1-.3.3v17c0,.2.1.3.3.3h8.6c.2,0,.3-.1.3-.3v-2.3c0-.2-.1-.3-.3-.3h-5.6c-.1,0-.2,0-.2-.2M276.8,118h2.3c2,0,3.7,1.1,3.7,3.3s-1.6,3.3-3.7,3.3h-2.3c-.1,0-.2,0-.2-.2v-6.3c0-.1,0-.2.2-.2M282.7,132.7h3.2c.3,0,.3-.2.2-.4l-3.8-5.1v-.2c2.2-.9,3.7-2.9,3.7-5.7s-3-6.2-6.7-6.2h-5.4c-.2,0-.3.1-.3.3v17c0,.2.1.3.3.3h2.5c.2,0,.3-.1.3-.3v-4.7c0-.1,0-.2.2-.2h1.9s.2,0,.2.1l3.4,4.8c0,.1.2.2.4.2M269,117.7v-2.3c0-.2-.1-.3-.3-.3h-9.2c-.2,0-.3.1-.3.3v17c0,.2.1.3.3.3h9.2c.2,0,.3-.1.3-.3v-2.3c0-.2-.1-.3-.3-.3h-6.2c-.1,0-.2,0-.2-.2v-4.2c0-.1,0-.2.2-.2h6.2c.2,0,.3-.1.3-.3v-2.3c0-.2-.1-.3-.3-.3h-6.2c-.1,0-.2,0-.2-.2v-4c0-.1,0-.2.2-.2h6.2c.2,0,.3-.1.3-.3M249.4,129.8h-2.7c-.1,0-.2,0-.2-.2v-4.2c0-.1,0-.2.2-.2h2.7c1.6,0,2.5.9,2.5,2.3s-.9,2.3-2.5,2.3M249.1,118c1.6,0,2.5.9,2.5,2.2s-.9,2.2-2.5,2.2h-2.4c-.1,0-.2,0-.2-.2v-4c0-.1,0-.2.2-.2h2.4ZM252.8,123.6c1.3-.8,2-2.1,2-3.7,0-2.7-1.9-4.8-5.3-4.8h-5.7c-.2,0-.3.1-.3.3v17c0,.2.1.3.3.3h6c3.5,0,5.4-2.1,5.4-5s-.9-3.2-2.3-4c-.1,0-.1-.2,0-.2"/>
  <path d="M370.2,138.9s-.9-6.1-1.4-8.7h.2c.4,0,.6-.5.4-.8-1-1.8-1.4-4-1.4-6.3s.2-2.7.7-3.9v-.4c.3-.6.8-1.9.9-3.4.1-1.2,0-2.2-.2-3.2s-.4-1.2-.5-1.6h0c.4-.5.5-1.1.2-1.6-.3-.6-1-.8-1.6-.5,0,0-.2.1-.2.2h-.2c0-.1-.1-.1-.3-.3h0c-.5-.2-1.1-.4-1.7-.4h-.9c-.6.1-1.2.4-1.7.8-.3,0-.5.1-.5.1h-1.4c-.2,0-.3.1-.3.3s.1,1,.1,1c0,.2.1.5.3.6h.1c0,.3.2.5.3.6h.1c.1-.5.5,0,1.1-.3.2,0,.2.3.2.5h0c-.1.5-.4.7-.7.7s-.4,0-.4.1c0,.3,0,.6.3.7h.1c.5.1,1.8.6,0,2.7,0,0-.2.2-.3.4v.2h0l-5.2-1.9c-.2,0-.4-.2-.5-.4l-.5-.9c-.3-.4-.6-.6-1.2-.7h-.7q-.2,0-.3.1s0,.3.1.7l.4.8.6,1.3c0,.2.2.3.3.4l5.4,4.1-5.6,2.8c-.2,0-.4.1-.5,0-.2,0-.5-.2-.5-.2-.9-.4-1.6-.1-2,.2l-.2.2c-.2.2,0,.4,0,.4,0,0,.9.5,1.1.7l1.4.8c.2.1.5.2.7.1l5.5-1.1c.1,2.1.7,3.8.7,3.8-1,1-2.4,2.8-2.8,5.3-.3,1.5-.2,2.8.2,4.4-.8,0-1.5.2-2.1.6-.6.4-.7,1.1-.7,1.5h4.7c.5,0,.6-.5.6-.5v-.4c.1-.9.2-1.7,1-3.3.6-1.2,1.7-2.4,1.7-2.4,0,0,1.8,2.7,4.8,4.5-.6,0-1.3.2-1.8.5-.7.4-.9,1.2-.9,1.6h4.4c.3,0,.6-.2.7-.5h0c0-.1,0,0,0,0Z"/>
  <g>
    <path class="st9" d="M243.4,165.3h0c0-.1.5-.3.5-.3h.1c.2.7.7,1.1,1.5,1.1s1.4-.5,1.4-1.2-.5-1.1-1.2-1.3h-.5c-1-.3-1.6-.9-1.6-1.9s.8-1.8,2-1.8,1.7.5,2,1.3h0c0,.1-.5.3-.5.3h-.1c-.2-.6-.7-.9-1.3-.9s-1.2.5-1.2,1.1.3,1,1,1.1h.5c.9.3,1.8.9,1.8,2s-.8,1.9-2.1,1.9-1.8-.6-2.1-1.5h-.2Z"/>
    <path class="st9" d="M248.5,164.5c0-1.4.9-2.3,2.1-2.3s2.1.9,2.1,2.2,0,.1,0,.2h-3.3s-.1,0,0,.1c.1.8.7,1.3,1.5,1.3s.9-.2,1.2-.5h.2l.3.3h0c-.4.6-1,.8-1.7.8-1.3,0-2.2-.9-2.2-2.3l-.2.2ZM252,164c-.1-.7-.6-1.2-1.4-1.2s-1.3.5-1.4,1.2h0c0,.1,2.6.1,2.6.1,0,0,.1,0,0-.1h.2Z"/>
    <path class="st9" d="M254.3,166.6h-.5v-4.1h.4v.3h0c.3-.3.6-.5,1.1-.5,1,0,1.5.6,1.5,1.4v2.9h-.5v-2.8c0-.6-.3-.9-.9-.9s-.8.2-1,.6v3.1h-.1Z"/>
    <path class="st9" d="M258.1,164.5c0-1.4.9-2.3,2.1-2.3s1.1.2,1.4.6h0v-.4h.5v4.1h-.5v-.4h0c-.3.3-.8.6-1.4.6-1.2,0-2.1-.9-2.1-2.3h0ZM261.6,165.4v-2c-.2-.4-.7-.7-1.3-.7-.9,0-1.5.7-1.5,1.6s.6,1.6,1.5,1.6,1.1-.3,1.3-.7v.2Z"/>
    <path class="st9" d="M264.1,160.6l.5-.3h.1v1.8h.5v.4h-.5v3.6h-.5v-3.6h-.5v-.4h.5v-1.5h0c0-.1-.1,0-.1,0Z"/>
    <path class="st9" d="M266,165.7h0c0-.1.4-.3.4-.3h.1c.1.4.5.6.8.6.5,0,.8-.3.8-.7s-.3-.6-.8-.7h-.4c-.6-.2-1-.7-1-1.3s.6-1.2,1.4-1.2,1.2.4,1.4,1h0c0,.1-.4.1-.4.1,0,.1-.1.1-.1,0,0-.4-.4-.6-.8-.6s-.7.3-.7.6.2.6.6.6h.4c.7.2,1.2.6,1.2,1.4s-.6,1.3-1.5,1.3-1.3-.4-1.5-1v.2Z"/>
    <path class="st9" d="M272.6,162.3h.5c0,.1-1.4,4.3-1.4,4.3h-.9l-1.4-4.2h0c0-.1.5-.1.5-.1h.1l1.1,3.4h0l1.1-3.4h.4Z"/>
    <path class="st9" d="M273.8,164.5c0-1.4.9-2.3,2.1-2.3s2.1.9,2.1,2.2,0,.1,0,.2h-3.3s-.1,0,0,.1c.1.8.7,1.3,1.5,1.3s.9-.2,1.2-.5h.2l.3.3h0c-.4.6-1,.8-1.7.8-1.3,0-2.2-.9-2.2-2.3l-.2.2ZM277.3,164c-.1-.7-.6-1.2-1.4-1.2s-1.3.5-1.4,1.2h0c0,.1,2.6.1,2.6.1,0,0,.1,0,0-.1h.2Z"/>
    <path class="st9" d="M281.1,162.2h0v.5h-.3c-.5,0-.8.2-1,.6v3.1h-.5v-4.1h.4v.3h0c.2-.3.6-.6,1.2-.6s0,0,.1,0v.2Z"/>
    <path class="st9" d="M286.5,162.3h.5s.1,0,0,.1l-1,4.1h-.8s-.1,0-.1-.1l-.8-3h0l-.8,3s0,.1-.1.1h-.8l-1-4.1h0c0-.1.5-.1.5-.1h.1l.8,3.3h0l.8-3.3h.7l.8,3.3h0l.8-3.3h.4Z"/>
    <path class="st9" d="M287.7,164.5c0-1.4.9-2.3,2.1-2.3s1.1.2,1.4.6h0v-.4h.5v4.1h-.5v-.4h0c-.3.3-.8.6-1.4.6-1.2,0-2.1-.9-2.1-2.3h0ZM291.3,165.4v-2c-.2-.4-.7-.7-1.3-.7-.9,0-1.5.7-1.5,1.6s.6,1.6,1.5,1.6,1.1-.3,1.3-.7v.2Z"/>
    <path class="st9" d="M294.6,166.2v.4h-.2c-.6,0-.9-.3-.9-.9v-5.8h.5v5.8c0,.2,0,.3.3.3h.1l.2.2Z"/>
    <path class="st9" d="M295.9,160.6l.5-.3h.1v1.8h.5v.4h-.5v3.6h-.5v-3.6h-.5v-.4h.5v-1.5h0c0-.1-.1,0-.1,0Z"/>
    <path class="st9" d="M300.8,162.3h.5v4.1h-.4v-.3h0c-.3.3-.6.5-1.1.5-1,0-1.4-.6-1.4-1.4v-2.9h.5v2.8c0,.6.3.9.9.9s.8-.2,1-.6v-3.1h0Z"/>
    <path class="st9" d="M303.4,166.6h-.5v-4.1h.4v.3h0c.3-.3.6-.5,1.1-.5,1,0,1.5.6,1.5,1.4v2.9h-.5v-2.8c0-.6-.3-.9-.9-.9s-.8.2-1,.6v3.1h-.1Z"/>
    <path class="st9" d="M307.6,167.9h0c0-.1.3-.4.3-.4h.1c.3.3.7.6,1.3.6.9,0,1.4-.4,1.4-1.2v-.6h0c-.3.3-.8.5-1.3.5-1.2,0-2.1-.9-2.1-2.2s.9-2.2,2.1-2.2,1,.2,1.4.5h0v-.3h.5v4.4c0,1.2-.9,1.8-2.1,1.8s-1.3-.3-1.7-.7v-.2ZM310.6,165.3v-1.8c-.2-.4-.7-.7-1.3-.7-.9,0-1.5.6-1.5,1.5s.6,1.5,1.5,1.5,1-.3,1.3-.7v.2Z"/>
    <path class="st9" d="M243.8,178.6v-3.6h-.4v-.4h.4v-1.4c0-.7.3-1.1,1-1.1s.4,0,.5.1h0v.5h-.6c-.2,0-.4.2-.4.5v1.3h.6v.4h-.6v3.6h-.5Z"/>
    <path class="st9" d="M248.8,174.4h.5v4.1h-.4v-.3h0c-.3.3-.6.5-1.1.5-1,0-1.4-.6-1.4-1.4v-2.9h.5v2.8c0,.6.3.9.9.9s.8-.2,1-.6v-3.1h0ZM246.4,172.9c0-.3.2-.5.5-.5s.5.2.5.5-.2.5-.5.5-.5-.2-.5-.5ZM248.2,172.9c0-.3.2-.5.5-.5s.5.2.5.5-.2.5-.5.5-.5-.2-.5-.5Z"/>
    <path class="st9" d="M252.9,174.3h0v.5h-.3c-.5,0-.8.2-1,.6v3.1h-.5v-4.1h.4v.3h0c.2-.3.6-.6,1.2-.6s0,0,.1,0v.2Z"/>
    <path class="st9" d="M256.9,178.6l-1.5-6.3h0c0-.1.5-.1.5-.1h.1l1.2,5.3h0l1.2-5.3h.7l1.2,5.3h0l1.2-5.3h.6s.1,0,0,.1l-1.5,6.3h-.9l-1.2-5h0l-1.2,5h-.9.5Z"/>
    <path class="st9" d="M263.4,172.9c0-.3.2-.5.5-.5s.5.2.5.5-.2.5-.5.5-.5-.2-.5-.5ZM263.5,178.6v-4.1h.5v4.1h-.5Z"/>
    <path class="st9" d="M265.3,177.8h0c0-.1.4-.3.4-.3h.1c.1.4.5.6.8.6.5,0,.8-.3.8-.7s-.3-.6-.8-.7h-.4c-.6-.2-1-.7-1-1.3s.6-1.2,1.4-1.2,1.2.4,1.4,1h0c0,.1-.4.1-.4.1,0,.1-.1.1-.1,0,0-.4-.4-.6-.8-.6s-.7.3-.7.6.2.6.6.6h.4c.7.2,1.2.6,1.2,1.4s-.6,1.3-1.5,1.3-1.3-.4-1.5-1v.2Z"/>
    <path class="st9" d="M269.1,177.8h0c0-.1.4-.3.4-.3h.1c.1.4.5.6.8.6.5,0,.8-.3.8-.7s-.3-.6-.8-.7h-.4c-.6-.2-1-.7-1-1.3s.6-1.2,1.4-1.2,1.2.4,1.4,1h0c0,.1-.4.1-.4.1,0,.1-.1.1-.1,0,0-.4-.4-.6-.8-.6s-.7.3-.7.6.2.6.6.6h.4c.7.2,1.2.6,1.2,1.4s-.6,1.3-1.5,1.3-1.3-.4-1.5-1v.2Z"/>
    <path class="st9" d="M272.8,176.6c0-1.4.9-2.3,2.1-2.3s2.1.9,2.1,2.2,0,.1,0,.2h-3.3s-.1,0,0,.1c.1.8.7,1.3,1.5,1.3s.9-.2,1.2-.5h.2l.3.3h0c-.4.6-1,.8-1.7.8-1.3,0-2.2-.9-2.2-2.3l-.2.2ZM276.3,176.1c-.1-.7-.6-1.2-1.4-1.2s-1.3.5-1.4,1.2h0c0,.1,2.6.1,2.6.1,0,0,.1,0,0-.1h.2Z"/>
    <path class="st9" d="M278.7,178.7h-.5v-4.1h.4v.3h0c.3-.3.6-.5,1.1-.5,1,0,1.5.6,1.5,1.4v2.9h-.5v-2.8c0-.6-.3-.9-.9-.9s-.8.2-1,.6v3.1h-.1Z"/>
    <path class="st9" d="M282.5,177.8h0c0-.1.4-.3.4-.3h.1c.1.4.5.6.8.6.5,0,.8-.3.8-.7s-.3-.6-.8-.7h-.4c-.6-.2-1-.7-1-1.3s.6-1.2,1.4-1.2,1.2.4,1.4,1h0c0,.1-.4.1-.4.1,0,.1-.1.1-.1,0,0-.4-.4-.6-.8-.6s-.7.3-.7.6.2.6.6.6h.4c.7.2,1.2.6,1.2,1.4s-.6,1.3-1.5,1.3-1.3-.4-1.5-1v.2Z"/>
    <path class="st9" d="M288.4,174.3c.7,0,1.4.3,1.7.9h0c0,.1-.4.3-.4.3h-.1c-.2-.4-.7-.6-1.2-.6-.9,0-1.5.7-1.5,1.6s.6,1.6,1.5,1.6.9-.2,1.2-.6h.1l.4.2h0c-.3.7-1,1-1.7,1-1.3,0-2.2-.9-2.2-2.3s.9-2.3,2.2-2.3v.2Z"/>
    <path class="st9" d="M291.8,178.7h-.5v-6.6h.5v2.7h0c.3-.3.6-.5,1.1-.5,1,0,1.5.6,1.5,1.4v2.9h-.5v-2.8c0-.6-.3-.9-.9-.9s-.8.2-1,.6v3.1h-.2Z"/>
    <path class="st9" d="M295.6,176.6c0-1.4.9-2.3,2.1-2.3s1.1.2,1.4.6h0v-.4h.5v4.1h-.5v-.4h0c-.3.3-.8.6-1.4.6-1.2,0-2.1-.9-2.1-2.3h0ZM299.1,177.5v-2c-.2-.4-.7-.7-1.3-.7-.9,0-1.5.7-1.5,1.6s.6,1.6,1.5,1.6,1.1-.3,1.3-.7v.2Z"/>
    <path class="st9" d="M301.4,178.6v-3.6h-.4v-.4h.4v-1.4c0-.7.3-1.1,1-1.1s.4,0,.5.1h0v.5h-.6c-.2,0-.4.2-.4.5v1.3h.6v.4h-.6v3.6h-.5Z"/>
    <path class="st9" d="M304,172.7l.5-.3h.1v1.8h.5v.4h-.5v3.6h-.5v-3.6h-.5v-.4h.5v-1.5h0c0-.1-.1,0-.1,0Z"/>
    <path class="st9" d="M307.2,178.3c0,.4-.2.7-.3,1l-.7,1.2h-.1l-.3-.2h0c0-.1.7-1.3.7-1.3h0c-.2-.1-.4-.4-.4-.7s.3-.6.6-.6.6.2.6.7h-.1Z"/>
    <path class="st9" d="M313.9,176v-.5h2.7c0,2.1-1.4,3.3-3.2,3.3s-3.3-1.4-3.3-3.4,1.4-3.4,3.3-3.4,2.1.5,2.7,1.3h0c0,.1-.4.4-.4.4h-.1c-.5-.7-1.2-1-2.2-1-1.5,0-2.6,1.1-2.6,2.7s1.1,2.7,2.5,2.7,2.2-.7,2.4-2h-2,.2Z"/>
    <path class="st9" d="M317.6,176.6c0-1.4.9-2.3,2.1-2.3s2.1.9,2.1,2.2,0,.1,0,.2h-3.3s-.1,0,0,.1c.1.8.7,1.3,1.5,1.3s.9-.2,1.2-.5h.2l.3.3h0c-.4.6-1,.8-1.7.8-1.3,0-2.2-.9-2.2-2.3l-.2.2ZM321.1,176.1c-.1-.7-.6-1.2-1.4-1.2s-1.3.5-1.4,1.2h0c0,.1,2.6.1,2.6.1,0,0,.1,0,0-.1h.2Z"/>
    <path class="st9" d="M322.6,177.8h0c0-.1.4-.3.4-.3h.1c.1.4.5.6.8.6.5,0,.8-.3.8-.7s-.3-.6-.8-.7h-.4c-.6-.2-1-.7-1-1.3s.6-1.2,1.4-1.2,1.2.4,1.4,1h0c0,.1-.4.1-.4.1,0,.1-.1.1-.1,0,0-.4-.4-.6-.8-.6s-.7.3-.7.6.2.6.6.6h.4c.7.2,1.2.6,1.2,1.4s-.6,1.3-1.5,1.3-1.3-.4-1.5-1v.2Z"/>
    <path class="st9" d="M329.3,174.4h.5v4.1h-.4v-.3h0c-.3.3-.6.5-1.1.5-1,0-1.4-.6-1.4-1.4v-2.9h.5v2.8c0,.6.3.9.9.9s.8-.2,1-.6v-3.1h0Z"/>
    <path class="st9" d="M331.9,178.7h-.5v-4.1h.4v.3h0c.3-.3.6-.5,1.1-.5,1,0,1.5.6,1.5,1.4v2.9h-.5v-2.8c0-.6-.3-.9-.9-.9s-.8.2-1,.6v3.1h-.1Z"/>
    <path class="st9" d="M339.3,172h.5v6.6h-.5v-.3h0c-.3.3-.8.5-1.4.5-1.2,0-2.1-.9-2.1-2.3s.9-2.3,2.1-2.3,1,.2,1.3.5h0v-2.7h.1ZM339.1,177.5h0v-1.7h0c-.2-.5-.7-.8-1.3-.8-.9,0-1.5.7-1.5,1.6s.6,1.6,1.5,1.6,1-.3,1.3-.7Z"/>
    <path class="st9" d="M341.9,178.7h-.5v-6.6h.5v2.7h0c.3-.3.6-.5,1.1-.5,1,0,1.5.6,1.5,1.4v2.9h-.5v-2.8c0-.6-.3-.9-.9-.9s-.8.2-1,.6v3.1h-.2Z"/>
    <path class="st9" d="M345.6,176.6c0-1.4.9-2.3,2.1-2.3s2.1.9,2.1,2.2,0,.1,0,.2h-3.3s-.1,0,0,.1c.1.8.7,1.3,1.5,1.3s.9-.2,1.2-.5h.2l.3.3h0c-.4.6-1,.8-1.7.8-1.3,0-2.2-.9-2.2-2.3l-.2.2ZM349.1,176.1c-.1-.7-.6-1.2-1.4-1.2s-1.3.5-1.4,1.2h0c0,.1,2.6.1,2.6.1,0,0,.1,0,0-.1h.2Z"/>
    <path class="st9" d="M350.7,172.9c0-.3.2-.5.5-.5s.5.2.5.5-.2.5-.5.5-.5-.2-.5-.5ZM350.9,178.6v-4.1h.5v4.1h-.5Z"/>
    <path class="st9" d="M353.3,172.7l.5-.3h.1v1.8h.5v.4h-.5v3.6h-.5v-3.6h-.5v-.4h.5v-1.5h0c0-.1-.1,0-.1,0Z"/>
    <path class="st9" d="M356.5,178.3c0,.4-.2.7-.3,1l-.7,1.2h-.1l-.3-.2h0c0-.1.7-1.3.7-1.3h0c-.2-.1-.4-.4-.4-.7s.3-.6.6-.6.6.2.6.7h-.1Z"/>
    <path class="st9" d="M248,186.5c0,1.4-.9,2.3-2.5,2.3h-.9v1.8h-.5v-6.3h1.5c1.5,0,2.5.9,2.5,2.3h-.1ZM244.6,188.2h.8c1.1,0,1.8-.5,1.8-1.6s-.7-1.6-1.8-1.6h-.8v3.2h0Z"/>
    <path class="st9" d="M249.1,190.7v-3.6h-.4v-.4h.4v-1.4c0-.7.3-1.1,1-1.1s.4,0,.5.1h0v.5h-.6c-.2,0-.4.2-.4.5v1.3h.6v.4h-.6v3.6h-.5Z"/>
    <path class="st9" d="M252.5,190.3v.4h-.2c-.6,0-.9-.3-.9-.9v-5.8h.5v5.8c0,.2,0,.3.3.3h.1l.2.2Z"/>
    <path class="st9" d="M253.2,188.6c0-1.4.9-2.3,2.1-2.3s2.1.9,2.1,2.2,0,.1,0,.2h-3.3s-.1,0,0,.1c.1.8.7,1.3,1.5,1.3s.9-.2,1.2-.5h.2l.3.3h0c-.4.6-1,.8-1.7.8-1.3,0-2.2-.9-2.2-2.3l-.2.2ZM256.7,188.2c-.1-.7-.6-1.2-1.4-1.2s-1.3.5-1.4,1.2h0c0,.1,2.6.1,2.6.1,0,0,.1,0,0-.1h.2Z"/>
    <path class="st9" d="M258.6,192h0c0-.1.3-.4.3-.4h.1c.3.3.7.6,1.3.6.9,0,1.4-.4,1.4-1.2v-.6h0c-.3.3-.8.5-1.3.5-1.2,0-2.1-.9-2.1-2.2s.9-2.2,2.1-2.2,1,.2,1.4.5h0v-.3h.5v4.4c0,1.2-.9,1.8-2.1,1.8s-1.3-.3-1.7-.7v-.2ZM261.7,189.4v-1.8c-.2-.4-.7-.7-1.3-.7-.9,0-1.5.6-1.5,1.5s.6,1.5,1.5,1.5,1-.3,1.3-.7v.2Z"/>
    <path class="st9" d="M263.5,188.6c0-1.4.9-2.3,2.1-2.3s2.1.9,2.1,2.2,0,.1,0,.2h-3.3s-.1,0,0,.1c.1.8.7,1.3,1.5,1.3s.9-.2,1.2-.5h.2l.3.3h0c-.4.6-1,.8-1.7.8-1.3,0-2.2-.9-2.2-2.3l-.2.2ZM266.9,188.2c-.1-.7-.6-1.2-1.4-1.2s-1.3.5-1.4,1.2h0c0,.1,2.6.1,2.6.1,0,0,.1,0,0-.1h.2Z"/>
    <path class="st9" d="M273.8,186.5h.5v4.1h-.4v-.3h0c-.3.3-.6.5-1.1.5-1,0-1.4-.6-1.4-1.4v-2.9h.5v2.8c0,.6.3.9.9.9s.8-.2,1-.6v-3.1h0Z"/>
    <path class="st9" d="M276.4,190.8h-.5v-4.1h.4v.3h0c.3-.3.6-.5,1.1-.5,1,0,1.5.6,1.5,1.4v2.9h-.5v-2.8c0-.6-.3-.9-.9-.9s-.8.2-1,.6v3.1h-.1Z"/>
    <path class="st9" d="M283.8,184h.5v6.6h-.5v-.3h0c-.3.3-.8.5-1.4.5-1.2,0-2.1-.9-2.1-2.3s.9-2.3,2.1-2.3,1,.2,1.3.5h0v-2.7h.1ZM283.7,189.6h0v-1.7h0c-.2-.5-.7-.8-1.3-.8-.9,0-1.5.7-1.5,1.6s.6,1.6,1.5,1.6,1-.3,1.3-.7Z"/>
    <path class="st9" d="M291.5,188.1v-.5h2.7c0,2.1-1.4,3.3-3.2,3.3s-3.3-1.4-3.3-3.4,1.4-3.4,3.3-3.4,2.1.5,2.7,1.3h0c0,.1-.4.4-.4.4h-.1c-.5-.7-1.2-1-2.2-1-1.5,0-2.6,1.1-2.6,2.7s1.1,2.7,2.5,2.7,2.2-.7,2.4-2h-2,.2Z"/>
    <path class="st9" d="M296.7,190.3v.4h-.2c-.6,0-.9-.3-.9-.9v-5.8h.5v5.8c0,.2,0,.3.3.3h.1l.2.2Z"/>
    <path class="st9" d="M297.3,188.6c0-1.4.9-2.3,2.1-2.3s2.1.9,2.1,2.2,0,.1,0,.2h-3.3s-.1,0,0,.1c.1.8.7,1.3,1.5,1.3s.9-.2,1.2-.5h.2l.3.3h0c-.4.6-1,.8-1.7.8-1.3,0-2.2-.9-2.2-2.3l-.2.2ZM300.8,188.2c-.1-.7-.6-1.2-1.4-1.2s-1.3.5-1.4,1.2h0c0,.1,2.6.1,2.6.1,0,0,.1,0,0-.1h.2Z"/>
    <path class="st9" d="M302.5,184.9c0-.3.2-.5.5-.5s.5.2.5.5-.2.5-.5.5-.5-.2-.5-.5ZM302.6,190.7v-4.1h.5v4.1h-.5Z"/>
    <path class="st9" d="M306.6,186.4c.7,0,1.4.3,1.7.9h0c0,.1-.4.3-.4.3h-.1c-.2-.4-.7-.6-1.2-.6-.9,0-1.5.7-1.5,1.6s.6,1.6,1.5,1.6.9-.2,1.2-.6h.1l.4.2h0c-.3.7-1,1-1.7,1-1.3,0-2.2-.9-2.2-2.3s.9-2.3,2.2-2.3v.2Z"/>
    <path class="st9" d="M310,190.8h-.5v-6.6h.5v2.7h0c.3-.3.6-.5,1.1-.5,1,0,1.5.6,1.5,1.4v2.9h-.5v-2.8c0-.6-.3-.9-.9-.9s-.8.2-1,.6v3.1h-.2Z"/>
    <path class="st9" d="M313.7,189.9h0c0-.1.4-.3.4-.3h.1c.1.4.5.6.8.6.5,0,.8-.3.8-.7s-.3-.6-.8-.7h-.4c-.6-.2-1-.7-1-1.3s.6-1.2,1.4-1.2,1.2.4,1.4,1h0c0,.1-.4.1-.4.1,0,.1-.1.1-.1,0,0-.4-.4-.6-.8-.6s-.7.3-.7.6.2.6.6.6h.4c.7.2,1.2.6,1.2,1.4s-.6,1.3-1.5,1.3-1.3-.4-1.5-1v.2Z"/>
    <path class="st9" d="M318,184.8l.5-.3h.1v1.8h.5v.4h-.5v3.6h-.5v-3.6h-.5v-.4h.5v-1.5h0c0-.1-.1,0-.1,0Z"/>
    <path class="st9" d="M319.9,188.6c0-1.4.9-2.3,2.1-2.3s2.1.9,2.1,2.2,0,.1,0,.2h-3.3s-.1,0,0,.1c.1.8.7,1.3,1.5,1.3s.9-.2,1.2-.5h.2l.3.3h0c-.4.6-1,.8-1.7.8-1.3,0-2.2-.9-2.2-2.3l-.2.2ZM323.4,188.2c-.1-.7-.6-1.2-1.4-1.2s-1.3.5-1.4,1.2h0c0,.1,2.6.1,2.6.1,0,0,.1,0,0-.1h.2Z"/>
    <path class="st9" d="M326.3,190.3v.4h-.2c-.6,0-.9-.3-.9-.9v-5.8h.5v5.8c0,.2,0,.3.3.3h.1l.2.2Z"/>
    <path class="st9" d="M328.6,190.3v.4h-.2c-.6,0-.9-.3-.9-.9v-5.8h.5v5.8c0,.2,0,.3.3.3h.1l.2.2Z"/>
    <path class="st9" d="M332.3,186.5h.5v4.1h-.4v-.3h0c-.3.3-.6.5-1.1.5-1,0-1.4-.6-1.4-1.4v-2.9h.5v2.8c0,.6.3.9.9.9s.8-.2,1-.6v-3.1h0Z"/>
    <path class="st9" d="M334.9,190.8h-.5v-4.1h.4v.3h0c.3-.3.6-.5,1.1-.5,1,0,1.5.6,1.5,1.4v2.9h-.5v-2.8c0-.6-.3-.9-.9-.9s-.8.2-1,.6v3.1h-.1Z"/>
    <path class="st9" d="M339.1,192h0c0-.1.3-.4.3-.4h.1c.3.3.7.6,1.3.6.9,0,1.4-.4,1.4-1.2v-.6h0c-.3.3-.8.5-1.3.5-1.2,0-2.1-.9-2.1-2.2s.9-2.2,2.1-2.2,1,.2,1.4.5h0v-.3h.5v4.4c0,1.2-.9,1.8-2.1,1.8s-1.3-.3-1.7-.7v-.2ZM342.1,189.4v-1.8c-.2-.4-.7-.7-1.3-.7-.9,0-1.5.6-1.5,1.5s.6,1.5,1.5,1.5,1-.3,1.3-.7v.2Z"/>
  </g>
  <image class="st5" width="1304" height="816" transform="translate(426.9 59.8) scale(.2)" xlink:href="ExStra_Logo_4c_EN.png"/>
</svg>