<?xml version="1.0" encoding="UTF-8"?>
<svg id="Ebene_1" xmlns="http://www.w3.org/2000/svg" xmlns:xlink="http://www.w3.org/1999/xlink" version="1.1" viewBox="0 0 1700.8 283.5">
  <!-- Generator: Adobe Illustrator 29.5.1, SVG Export Plug-In . SVG Version: 2.1.0 Build 141)  -->
  <defs>
    <style>
      .st0 {
        fill: none;
      }

      .st1 {
        fill: #084780;
      }

      .st2 {
        fill: #fff;
      }

      .st3 {
        fill: #c40d1e;
      }

      .st4 {
        fill: #878787;
      }

      .st5 {
        clip-path: url(#clippath);
      }

      .st6 {
        fill: #cf0;
      }
    </style>
    <clipPath id="clippath">
      <rect class="st0" x="542" y="83.9" width="250.8" height="117.6"/>
    </clipPath>
  </defs>
  <g>
    <g id="CD_Raster">
      <rect class="st6" x="139.2" y="88.7" width="69.2" height="28.3"/>
      <rect class="st6" x="202.9" y="88.7" width="56.6" height="70.8"/>
      <rect class="st6" x="294.9" y="117" width="56.6" height="42.5"/>
      <rect class="st6" x="188.7" y="117" width="113.2" height="70.8"/>
      <rect class="st6" x="294.9" y="173.6" width="113.2" height="21.2"/>
      <rect class="st6" x="125" y="173.6" width="56.6" height="21.2"/>
    </g>
    <g id="Logo_3-zeilig">
      <g>
        <g>
          <polygon points="153.3 102.8 199.4 102.8 199.4 113.5 167.5 113.5 167.5 138.2 153.3 138.2 153.3 102.8"/>
          <polygon points="167.5 138.2 195.8 138.2 195.8 148.8 167.5 148.8 167.5 138.2"/>
          <polygon points="139.2 152.3 153.3 152.3 153.3 180.7 139.2 180.7 139.2 152.3"/>
        </g>
        <g>
          <g>
            <path d="M353.1,129.8c1.1,0,1.9-.8,1.9-1.9s-.8-1.9-1.9-1.9-1.9.8-1.9,1.9.8,1.9,1.9,1.9Z"/>
            <path d="M347.1,129.8c1.1,0,1.9-.8,1.9-1.9s-.8-1.9-1.9-1.9-1.9.8-1.9,1.9.8,1.9,1.9,1.9Z"/>
          </g>
          <g>
            <path d="M217,140.6v-9.5h4v9.9c0,3.5,1.1,4.6,3.1,4.6s3.1-1.2,3.1-4.6v-9.9h3.8v9.5c0,5.9-2.4,8.5-7,8.5s-7.1-2.6-7.1-8.5h0Z"/>
            <path d="M234.7,131.1h4.1l4.6,8.8,1.8,3.9h.1c-.2-1.9-.5-4.4-.5-6.5v-6.2h3.8v17.7h-4.1l-4.6-8.8-1.8-3.8h-.1c.2,1.9.5,4.3.5,6.4v6.3h-3.8v-17.7h0Z"/>
            <path d="M252.6,131.1h4v17.7h-4v-17.7Z"/>
            <path d="M258.6,131.1h4.2l2.2,8.3c.5,1.9.9,3.7,1.4,5.7h.1c.5-1.9.9-3.7,1.4-5.7l2.1-8.3h4.1l-5.3,17.7h-4.8l-5.4-17.7h0Z"/>
            <path d="M276.1,131.1h11.1v3.4h-7.1v3.6h6.1v3.3h-6.1v4.1h7.4v3.3h-11.4v-17.7h0Z"/>
            <path d="M304.9,148.8l-4-7.1c1.9-.8,3.2-2.5,3.2-5.1,0-4.2-3.1-5.5-6.9-5.5h-6.3v17.7h4v-6.4h2.2l3.4,6.3h4.4,0ZM294.9,134.3h2c2.1,0,3.2.6,3.2,2.3s-1.1,2.7-3.2,2.7h-2v-5Z"/>
            <path d="M306.1,146.6l2.3-2.7c1.2,1.1,2.9,1.9,4.4,1.9s2.5-.7,2.5-1.7-1-1.5-2.5-2.1l-2.3-1c-1.8-.7-3.6-2.3-3.6-4.8s2.6-5.3,6.3-5.3,4.2.8,5.7,2.3l-2,2.5c-1.2-.9-2.3-1.4-3.7-1.4s-2.3.6-2.3,1.6,1.1,1.5,2.7,2.1l2.3.9c2.2.8,3.5,2.3,3.5,4.8s-2.4,5.5-6.7,5.5c-2.3-.2-4.8-1.1-6.6-2.7h0Z"/>
            <path d="M322.6,131.1h4v17.7h-4v-17.7Z"/>
            <path d="M334.2,134.5h-4.9v-3.4h13.7v3.4h-4.9v14.3h-4v-14.3h0Z"/>
            <path d="M353.9,148.8h4.2l-5.5-17.7h-4.8l-5.5,17.7h4.1l1.1-4.2h5.4l1.1,4.2h-.1ZM348.2,141.5l.5-1.6c.5-1.8,1-3.8,1.4-5.7h.1c.5,1.9,1,4,1.4,5.7l.4,1.6h-3.8Z"/>
            <path d="M362,134.5h-4.9v-3.4h13.8v3.4h-4.9v14.3h-4v-14.3h0Z"/>
          </g>
        </g>
        <g>
          <path d="M217,102.8h11.2v3.3h-7.2v4.1h6.1v3.3h-6.1v6.9h-4v-17.7h0Z"/>
          <path d="M245.4,120.5l-4-7.1c1.9-.8,3.2-2.5,3.2-5.1,0-4.2-3.1-5.5-6.9-5.5h-6.4v17.7h4v-6.5h2.2l3.4,6.3h4.5v.2ZM235.4,106h2c2.1,0,3.2.6,3.2,2.3s-1.1,2.7-3.2,2.7h-2v-5Z"/>
          <path d="M248.2,102.8h11.1v3.3h-7.1v3.6h6.1v3.3h-6.1v4.1h7.4v3.3h-11.4v-17.7h0Z"/>
          <path d="M263.2,102.8h4v17.7h-4v-17.7Z"/>
          <path d="M271.2,102.8h11.1v3.3h-7.1v3.6h6.1v3.3h-6.1v4.1h7.4v3.3h-11.4v-17.7h0Z"/>
        </g>
        <g>
          <path d="M217,162.9h5c3.6,0,6,1.2,6,4.3s-1,3.3-2.7,3.8h0c2.2.5,3.7,1.9,3.7,4.4s-2.7,5.2-6.6,5.2h-5.4v-17.7ZM221.7,170.6c3.3,0,4.6-1.2,4.6-3.1s-1.5-3.1-4.5-3.1h-2.9v6.2h2.8,0ZM222.1,179.2c3.2,0,5.2-1.2,5.2-3.7s-1.9-3.4-5.2-3.4h-3.3v7.1h3.3Z"/>
          <path d="M232.9,162.9h10v1.6h-8.2v6h6.9v1.6h-6.9v7h8.4v1.6h-10.2v-17.7h0Z"/>
          <path d="M258.9,180.7l-4.6-7.9c2.5-.5,4.2-2.2,4.2-4.9s-2.5-4.9-6.1-4.9h-5.3v17.7h1.9v-7.8h3.4l4.5,7.8h2.1,0ZM248.9,164.5h3.2c2.9,0,4.5.9,4.5,3.3s-1.6,3.6-4.5,3.6h-3.2v-6.9h0Z"/>
          <path d="M262.3,162.9h1.9v16.1h7.9v1.6h-9.7v-17.7h0Z"/>
          <path d="M275.2,162.9h1.9v17.7h-1.9v-17.7Z"/>
          <path d="M282.2,162.9h1.9l6.8,11.7,1.9,3.6h.1c-.1-1.8-.2-3.6-.2-5.4v-9.9h1.8v17.7h-1.9l-6.8-11.7-1.9-3.6h-.1c.1,1.8.2,3.5.2,5.3v10h-1.8v-17.7h0Z"/>
        </g>
      </g>
    </g>
  </g>
  <g class="st5">
    <g>
      <path class="st2" d="M793,142.7c0,32.5-26.4,58.8-58.8,58.8s-58.8-26.4-58.8-58.8,26.4-58.8,58.8-58.8,58.8,26.4,58.8,58.8Z"/>
      <polygon class="st1" points="557.8 120 563.2 120 563.2 123.5 561.8 123.5 561.8 124.2 566.2 124.2 566.2 123.5 564.8 123.5 564.8 115.7 566.2 115.7 566.2 115 561.8 115 561.8 115.7 563.2 115.7 563.2 119.2 557.8 119.2 557.8 115.7 559.2 115.7 559.2 115 554.7 115 554.7 115.7 556.2 115.7 556.2 123.5 554.7 123.5 554.7 124.2 559.2 124.2 559.2 123.5 557.8 123.5 557.8 120"/>
      <path class="st1" d="M578.8,120.8v-5h1.5v-.8h-4v.8h1.5v5c0,1.6-1,2.8-2.6,2.8s-2.4-1.1-2.4-2.8v-5h1.6v-.8h-4.5v.8h1.5v5.4c0,1.9,1.6,3.3,3.7,3.3s3.8-1.6,3.8-3.7h0Z"/>
      <polygon class="st1" points="593.1 116.8 593.1 123.5 591.5 123.5 591.5 124.2 596 124.2 596 123.5 594.5 123.5 594.5 115.8 596 115.8 596 115 592.9 115 589.7 121.8 586.6 115 583.5 115 583.5 115.8 585.1 115.8 585.1 123.5 583.5 123.5 583.5 124.2 587.6 124.2 587.6 123.5 586 123.5 586 117.2 589.4 124.4 593.1 116.8"/>
      <path class="st1" d="M607.7,121.8c0-1.5-1.1-2.4-3-2.4,1.5,0,2.5-.9,2.5-2.1s-1-2.3-2.8-2.3h-4.8v.8h1.5v7.8h-1.5v.8h5.2c1.8,0,2.9-1,2.9-2.5h0ZM602.5,115.8h1.4c1,0,1.5.5,1.5,1.6s-.6,1.6-1.6,1.6h-1.3v-3.2h0ZM602.5,123.4v-3.6h1.5c1.3,0,2,.6,2,1.9s-.7,1.7-2,1.7h-1.5Z"/>
      <path class="st1" d="M615.5,124.4c2.5,0,4.7-2.2,4.7-4.9s-2.2-4.8-4.7-4.8-4.8,2.2-4.8,4.8,2.2,4.9,4.8,4.9h0ZM615.5,115.6c1.6,0,3,1.8,3,4s-1.3,4.1-3,4.1-3-1.8-3-4.1,1.4-4,3-4Z"/>
      <polygon class="st1" points="630.1 123.4 626.9 123.4 626.9 115.8 628.3 115.8 628.3 115 623.8 115 623.8 115.8 625.3 115.8 625.3 123.5 623.8 123.5 623.8 124.2 630.9 124.2 630.9 122.2 630.1 122.2 630.1 123.4"/>
      <path class="st1" d="M643.2,119.6c0-2.6-2.1-4.6-4.8-4.6h-4.8v.8h1.5v7.8h-1.5v.8h4.8c2.8-.2,4.8-2.2,4.8-4.8ZM636.6,123.4v-7.6h1.6c1.8,0,3.3,1.6,3.3,3.8s-1.4,3.8-3.3,3.8c0,0-1.6,0-1.6,0Z"/>
      <polygon class="st1" points="649 123.5 647.4 123.5 647.4 124.2 652.2 124.2 652.2 123.5 650.6 123.5 650.6 115.8 653.5 115.8 653.5 116.9 654.2 116.9 654.2 114.6 653.5 114.6 653.5 115 646.1 115 646.1 114.6 645.4 114.6 645.4 116.9 646.1 116.9 646.1 115.8 649 115.8 649 123.5"/>
      <rect class="st1" x="655.8" y="119.5" width="3.4" height="1.2"/>
      <path class="st1" d="M548.4,135.9h1.5v5c0,1.6-1,2.8-2.6,2.8s-2.4-1.1-2.4-2.8v-5h1.6v-.8h-4.5v.8h1.6v5.4c0,1.9,1.6,3.3,3.7,3.3s3.8-1.5,3.8-3.6v-5h1.5v-.8h-4v.7h-.2Z"/>
      <polygon class="st1" points="562 135.9 563.6 135.9 563.6 141.7 557.9 135.2 555.4 135.2 555.4 135.9 556.7 135.9 557.2 136.5 557.2 143.6 555.7 143.6 555.7 144.4 559.7 144.4 559.7 143.6 558.2 143.6 558.2 137.8 563.9 144.6 564.5 144.6 564.5 135.9 566.1 135.9 566.1 135.2 562 135.2 562 135.9"/>
      <polygon class="st1" points="570.7 143.6 569.3 143.6 569.3 144.4 573.8 144.4 573.8 143.6 572.3 143.6 572.3 135.9 573.8 135.9 573.8 135.2 569.3 135.2 569.3 135.9 570.7 135.9 570.7 143.6"/>
      <polygon class="st1" points="576.8 135.9 577.7 135.9 581.3 144.6 581.8 144.6 585.4 135.9 586.2 135.9 586.2 135.2 583.3 135.2 583.3 135.9 584.5 135.9 582 142.2 579.4 135.9 580.6 135.9 580.6 135.2 576.8 135.2 576.8 135.9"/>
      <polygon class="st1" points="594.8 143.6 591.4 143.6 591.4 140.1 593.9 140.1 593.9 141.1 594.7 141.1 594.7 138.4 593.9 138.4 593.9 139.3 591.4 139.3 591.4 135.9 594.6 135.9 594.6 137 595.4 137 595.4 134.8 594.6 134.8 594.6 135.2 588.4 135.2 588.4 135.9 589.9 135.9 589.9 143.6 588.4 143.6 588.4 144.4 595.5 144.4 595.5 142.5 594.8 142.5 594.8 143.6"/>
      <path class="st1" d="M608.4,144.4v-.8h-.5c-.4,0-.8-.3-1.1-.8l-1.8-2.7c1.3-.3,2.2-1.2,2.2-2.6s-1-2.5-2.9-2.5h-4.7v.8h1.5v7.7h-1.5v.8h4.5v-.8h-1.5v-3.3h1l2.2,3.2c.5.8.7.9,1.6.9h1.2-.2ZM602.2,139.6v-3.5h1.4c1,0,1.6.6,1.6,1.7s-.6,1.8-1.6,1.8h-1.4Z"/>
      <path class="st1" d="M615.1,139.1c-.4-.3-.9-.5-1.4-.8-.7-.4-.9-.7-.9-1.2,0-.8.6-1.3,1.6-1.3s.9,0,1.6.5v1h.8v-2.4h-.8v.5c-.6-.3-1.1-.4-1.8-.4-1.6,0-2.9,1.1-2.9,2.6s.6,1.9,2.3,2.8c1.6.9,2.2,1.4,2.2,2.1s-.7,1.3-1.7,1.3-1.2-.2-2.1-.7v-1h-.8v2.5h.8v-.5c.8.4,1.5.7,2.2.7,1.6,0,2.9-1.1,2.9-2.6.2-1.5-.3-2.1-2.1-3h.1Z"/>
      <polygon class="st1" points="623.7 135.9 625.3 135.9 625.3 135.2 620.8 135.2 620.8 135.9 622.3 135.9 622.3 143.6 620.8 143.6 620.8 144.4 625.3 144.4 625.3 143.6 623.7 143.6 623.7 135.9"/>
      <polygon class="st1" points="628.6 134.8 627.8 134.8 627.8 137.1 628.6 137.1 628.6 135.9 631.4 135.9 631.4 143.6 629.8 143.6 629.8 144.4 634.7 144.4 634.7 143.6 633 143.6 633 135.9 635.9 135.9 635.9 137.1 636.6 137.1 636.6 134.8 635.9 134.8 635.9 135.2 628.6 135.2 628.6 134.8"/>
      <path class="st1" d="M641,131.6c-.5,0-1,.4-1,1s.4,1,1,1,1-.4,1-1-.5-1-1-1Z"/>
      <path class="st1" d="M644.2,144.4h3.4v-.8h-.9l-3.6-8.7h-.5l-3.8,8.8h-.8v.8h2.8v-.8h-1.1l1-2.2h3.6l.9,2.2h-.9v.7h-.1ZM640.9,140.7l1.6-3.5,1.5,3.5h-3.1Z"/>
      <path class="st1" d="M644.5,133.7c.5,0,1-.4,1-1s-.4-1-1-1-1,.4-1,1,.5,1,1,1Z"/>
      <polygon class="st1" points="656.9 134.8 656.9 135.2 649.5 135.2 649.5 134.8 648.8 134.8 648.8 137.1 649.5 137.1 649.5 135.9 652.5 135.9 652.5 143.6 650.7 143.6 650.7 144.4 655.7 144.4 655.7 143.6 653.9 143.6 653.9 135.9 656.9 135.9 656.9 137.1 657.6 137.1 657.6 134.8 656.9 134.8"/>
      <polygon class="st1" points="573.2 155.8 573.2 155.4 566.1 155.4 566.1 155 565.4 155 565.4 157.2 566.1 157.2 566.1 156.2 571.1 156.2 565.4 164.1 565.4 164.6 573.4 164.6 573.4 162.4 572.7 162.4 572.7 163.8 567.4 163.8 573.2 155.8"/>
      <path class="st1" d="M582.9,156.2h1.5v5c0,1.6-1,2.8-2.6,2.8s-2.4-1.1-2.4-2.8v-5h1.6v-.8h-4.5v.8h1.6v5.4c0,1.9,1.6,3.3,3.7,3.3s3.8-1.5,3.8-3.6v-5h1.5v-.9h-4v.8h-.2Z"/>
      <path class="st1" d="M600,159.7c1.5,0,2.5-.9,2.5-2.1s-1-2.3-2.8-2.3h-4.8v.8h1.5v7.8h-1.5v.8h5.2c1.9,0,3-.9,3-2.4s-1.2-2.4-3.1-2.5h0ZM597.9,156.2h1.4c1,0,1.5.5,1.5,1.6s-.6,1.6-1.6,1.6h-1.3v-3.2h0ZM599.3,163.8h-1.4v-3.6h1.5c1.3,0,2,.6,2,1.9s-.8,1.7-2.1,1.7h0Z"/>
      <polygon class="st1" points="609.5 160.3 612.1 160.3 612.1 161.3 612.8 161.3 612.8 158.5 612.1 158.5 612.1 159.5 609.5 159.5 609.5 156.2 612.8 156.2 612.8 157.2 613.5 157.2 613.5 155 612.8 155 612.8 155.4 606.5 155.4 606.5 156.1 608 156.1 608 163.9 606.5 163.9 606.5 164.6 613.6 164.6 613.6 162.8 612.9 162.8 612.9 163.8 609.5 163.8 609.5 160.3"/>
      <path class="st1" d="M624.8,163.1l-1.8-2.7c1.3-.3,2.2-1.2,2.2-2.6s-1-2.5-2.9-2.5h-4.7v.8h1.5v7.7h-1.5v.8h4.5v-.8h-1.5v-3.3h1l2.2,3.2c.5.8.7.9,1.6.9h1.5v-.8h-.5c-.7,0-1.1-.2-1.4-.7h-.2ZM620.4,159.7v-3.5h1.4c1,0,1.6.6,1.6,1.7s-.6,1.8-1.6,1.8h-1.4Z"/>
      <polygon class="st1" points="632.2 156.2 633.7 156.2 633.7 155.4 629.2 155.4 629.2 156.2 630.7 156.2 630.7 163.9 629.2 163.9 629.2 164.6 636.3 164.6 636.3 162.6 635.6 162.6 635.6 163.8 632.2 163.8 632.2 156.2"/>
      <polygon class="st1" points="640.5 163.9 639.1 163.9 639.1 164.6 643.5 164.6 643.5 163.9 642 163.9 642 156.2 643.5 156.2 643.5 155.4 639.1 155.4 639.1 156.2 640.5 156.2 640.5 163.9"/>
      <polygon class="st1" points="655.1 161.9 649.5 155.4 646.9 155.4 646.9 156.2 648.3 156.2 648.7 156.7 648.7 163.9 647.2 163.9 647.2 164.6 651.2 164.6 651.2 163.9 649.7 163.9 649.7 158 655.5 164.7 656.1 164.7 656.1 156.2 657.6 156.2 657.6 155.4 653.6 155.4 653.6 156.2 655.1 156.2 655.1 161.9"/>
      <path class="st1" d="M695.6,173.3c.4-.3.5-1,.2-1.5-.3-.4-1-.5-1.5-.2-.4.3-.5,1-.2,1.5.3.4,1,.5,1.5.2Z"/>
      <polygon class="st1" points="701.7 183.2 698.8 180.8 705.6 179 705.8 178.8 701.9 175.5 702.1 175.3 701.7 174.9 700.7 176.2 701 176.5 701.6 176 704.3 178.2 697.5 180 697.2 180.3 701.7 184 702.7 182.8 702.3 182.5 701.7 183.2"/>
      <path class="st1" d="M715,184.4l-2.5-1.4-.3.5,1,.5-1.7,3.1c-.6,1-1.6,1.4-2.6.9s-1.1-1.6-.6-2.6l1.7-3.1,1,.5.3-.5-2.9-1.6-.3.5,1,.5-1.9,3.4c-.7,1.2-.2,2.6,1.2,3.4,1.5.8,2.9.4,3.7-1l1.7-3.2,1,.5.3-.5h-.1Z"/>
      <path class="st1" d="M721.9,193.4c1.3.3,2.2,0,2.5-1.1.3-1-.3-1.9-1.6-2.2,1,.3,1.9-.2,2.1-1,.3-1-.3-1.8-1.6-2.1l-3.4-.9v.5l1,.3-1.4,5.4-1-.3-.2.5,3.6.9h0ZM721.1,190.1l1,.3c1,.3,1.3.8,1,1.6-.2.8-.8,1-1.7.9l-1-.3.6-2.5h.1ZM721.8,187.2l1,.3c.7.2,1,.7.8,1.4s-.8,1-1.5.9l-.9-.3.6-2.2h0Z"/>
      <polygon class="st1" points="733.7 194.2 731.3 194.1 731.4 191.6 733.2 191.7 733.2 192.4 733.7 192.4 733.8 190.4 733.3 190.4 733.2 191.1 731.4 191 731.5 188.7 733.8 188.7 733.8 189.5 734.3 189.5 734.4 187.9 733.9 187.8 733.8 188.2 729.3 188 729.3 188.5 730.4 188.6 730.2 194.1 729.1 194.1 729.1 194.7 734.2 194.8 734.3 193.4 733.7 193.4 733.7 194.2"/>
      <path class="st1" d="M745.8,192.9h-.4c-.3.2-.6,0-.9-.3l-1.6-1.7c1-.3,1.4-1.1,1.2-2.1-.2-1.1-1-1.6-2.4-1.4l-3.4.5v.6l1.1-.2.9,5.4-1,.2v.5l3.3-.5v-.5l-1.1.2-.3-2.3h.7l1.9,2c.4.5.6.5,1.2.4l1-.2v-.6h-.2ZM740.6,188.2l1-.2c.8,0,1.2.3,1.3,1,0,.8-.3,1.4-1,1.5l-1,.2-.3-2.5Z"/>
      <polygon class="st1" points="754.4 189.9 752.1 190.7 750.2 185.6 751.2 185.2 751 184.7 748 185.8 748.2 186.4 749.2 186 751.2 191.1 750.2 191.5 750.3 192.1 755.1 190.2 754.6 188.9 754.1 189 754.4 189.9"/>
      <polygon class="st1" points="757.5 182 758.4 181.4 758.1 181 755.3 182.6 755.6 183.2 756.6 182.6 759.4 187.3 758.5 187.8 758.7 188.3 761.5 186.6 761.2 186.2 760.4 186.8 757.5 182"/>
      <polygon class="st1" points="767.1 173.6 765 175.5 765.4 176 766.2 175.2 769 178.2 762.9 177.5 761.5 178.8 761.9 179.3 762.6 178.6 763.1 178.7 766.6 182.4 765.8 183.2 766.2 183.5 768.3 181.6 768 181.2 767.1 181.9 764.3 178.8 770.7 179.5 770.9 179.3 766.8 174.8 767.5 174 767.1 173.6"/>
      <path class="st1" d="M773.8,170.1c-.4-.3-1.1-.2-1.4.3-.3.4-.2,1.1.3,1.4.4.3,1.1.3,1.4-.3.3-.3.2-1-.3-1.4Z"/>
      <polygon class="st1" points="685.1 160.9 684.6 160 684.2 160.2 685.5 163.1 686 162.9 685.6 162 687.8 160.9 689.4 164.6 687.1 165.5 686.7 164.6 686.2 164.7 687.6 167.8 688 167.5 687.6 166.6 692.7 164.2 693.1 165.3 693.6 165 692.3 162.1 691.8 162.3 692.2 163.3 689.9 164.3 688.3 160.7 690.7 159.7 691.1 160.7 691.5 160.4 690.2 157.5 689.7 157.7 690.2 158.7 685.1 160.9"/>
      <path class="st1" d="M681.5,147l.4,2.9h.6l-.2-1.1,3.5-.5c1.1-.2,2.1.4,2.2,1.6.2,1-.5,1.8-1.6,2.1l-3.5.6-.2-1h-.6l.5,3.3h.6l-.2-1.1,3.9-.6c1.3-.2,2.2-1.5,1.9-3-.3-1.6-1.5-2.6-3-2.3l-3.5.6-.2-1-.7-.2v-.3Z"/>
      <polygon class="st1" points="682.8 133.4 683 132.4 682.4 132.3 682.1 134.6 686.6 137.4 681.5 139.1 681.2 141.2 681.9 141.3 682 140.3 687.5 140.9 687.4 142 687.9 142 688.2 139.1 687.7 139.1 687.6 140.2 683.1 139.7 688.5 137.9 683.4 134.7 688.2 135.3 688.1 136.3 688.6 136.4 688.9 133.1 688.4 133.1 688.3 134.1 682.8 133.4"/>
      <path class="st1" d="M691.4,125.5c.5-1.3.2-2.2-.9-2.6-1-.3-1.9,0-2.4,1.4.3-1,0-1.9-.7-2.2-1-.3-1.8.2-2.2,1.3l-1.3,3.3.5.2.3-1,5.2,2-.3,1,.5.2,1.3-3.5h0ZM688,125.8l.3-1c.3-.9,1-1.1,1.7-.9.8.3,1,.9.6,1.8l-.3,1-2.3-1h0ZM685.3,124.8l.3-1c.3-.7.8-.9,1.5-.6s1,.9.7,1.6l-.3.9-2.2-.9Z"/>
      <path class="st1" d="M696.1,117.4c1-1.5.6-3.7-1-4.8-1.6-1-3.7-.7-4.8.8-1,1.5-.6,3.7.9,4.8,1.6,1.1,3.8.7,4.8-.8h0ZM690.8,113.7c.7-1,2.3-1,3.6-.2,1.3,1,1.8,2.4,1.1,3.5-.7,1-2.3,1-3.6,0-1.3-.9-1.8-2.4-1.1-3.4h0Z"/>
      <polygon class="st1" points="703.5 107.8 701.7 109.5 697.9 105.6 698.7 104.8 698.4 104.4 696 106.6 696.4 107.1 697.2 106.3 701 110.3 700.3 111 700.6 111.4 704.2 107.8 703.3 106.8 702.9 107.2 703.5 107.8"/>
      <path class="st1" d="M706.7,105.9l2.9-1.8c1.6-1,2.2-3,1.2-4.7-1-1.6-3-2-4.7-1l-2.9,1.8.3.4,1-.6,2.9,4.8-1,.6.3.4h0ZM708.2,104.3l-2.9-4.7,1-.6c1.1-.7,2.6-.3,3.5,1.1.9,1.3.6,2.9-.5,3.5l-1,.6h0Z"/>
      <polygon class="st1" points="716.9 94 718.9 93.3 719.1 94.1 719.6 93.9 719.1 92.4 718.6 92.5 718.7 92.8 713.7 94.5 713.6 94.3 713.2 94.4 713.7 96 714.2 95.8 713.9 95.1 715.8 94.4 717.6 99.6 716.5 100.1 716.7 100.5 720.1 99.4 719.9 98.9 718.7 99.3 716.9 94"/>
      <polygon class="st1" points="724 95.5 726.7 95.1 726.5 93.9 723.8 94.4 724 95.5"/>
      <path class="st1" d="M737.9,90.8h-2.9v.5h1v3.6c0,1.1-.9,2-2,2s-1.7-.9-1.7-2v-3.6h1.2v-.6h-3.3v.5h1.1v3.9c0,1.4,1,2.3,2.5,2.4,1.6,0,2.8-1,2.8-2.6v-3.6h1.1v-.5h.2Z"/>
      <polygon class="st1" points="750.8 93.4 748.1 92.7 747.9 93.2 748.9 93.5 747.9 97.5 745.2 91.9 743.4 91.4 743.2 92 744.3 92.3 744.5 92.7 743.1 97.6 742 97.4 741.9 97.9 744.7 98.7 744.8 98.2 743.8 97.9 744.9 93.8 747.7 99.5 748.1 99.7 749.6 93.8 750.7 94 750.8 93.4"/>
      <polygon class="st1" points="757.7 97.2 758.6 97.7 758.9 97.2 756 95.7 755.8 96.2 756.7 96.7 754.1 101.6 753.2 101.1 752.9 101.5 755.8 103.1 756 102.7 755.1 102.1 757.7 97.2"/>
      <polygon class="st1" points="767.5 103.1 765.9 101.9 765.5 102.3 766.2 102.8 762.1 105.3 763.3 100.6 764 101.1 764.3 100.7 762.2 99 761.8 99.5 762.3 99.9 760.7 106.4 761 106.6 766.8 103.2 767.2 103.5 767.5 103.1"/>
      <polygon class="st1" points="769.5 113.8 767.9 112 769.8 110.3 771 111.7 770.5 112.2 770.8 112.5 772.3 111.2 771.9 110.9 771.4 111.3 770.1 109.9 771.9 108.3 773.5 110.1 773 110.6 773.3 111 774.5 109.9 774.2 109.5 773.9 109.7 770.9 106.3 770.6 106.7 771.3 107.5 767.1 111.2 766.4 110.4 766 110.8 769.4 114.6 770.5 113.7 770 113.3 769.5 113.8"/>
      <path class="st1" d="M776.8,127.4v1.7c.3,1.1,1.4,1.7,2.4,1.4.9-.3,1.2-.8,1.5-2.2,0-.3.2-.7.3-1.1,0-.5.3-.8.6-.9.5-.2,1,0,1.3.8,0,.3.2.6,0,1.3l-.7.2.2.5,1.6-.5-.2-.5h-.3v-1.3c-.3-1.1-1.4-1.7-2.4-1.4-.8.3-1.1.9-1.4,2.2-.2,1.3-.4,1.8-1,2-.5.2-1-.2-1.3-.9-.2-.4-.2-.9,0-1.6l.7-.3-.2-.5-1.7.5.2.5h.4Z"/>
      <polygon class="st1" points="784.7 136.3 784.9 137.3 785.5 137.2 785 134 784.5 134.1 784.6 135.2 779.1 135.9 779 134.9 778.4 134.9 779 138.2 779.5 138.1 779.3 137 784.7 136.3"/>
      <polygon class="st1" points="785.1 145.5 785.1 147.5 784.2 147.5 784.2 148.1 785.9 148.1 786 147.5 785.6 147.5 785.8 142.3 786.1 142.3 786.1 141.7 784.5 141.7 784.4 142.3 785.3 142.3 785.2 144.3 779.6 144.2 779.6 143 779.1 143 779 146.4 779.6 146.5 779.6 145.2 785.1 145.5"/>
      <path class="st1" d="M777.5,157.2l.2-.6,6.7-1v-.3l-5.4-4.2.2-.5h-.5l-.5,1.9h.5l.2-.7,1.4,1-.6,2.5-1.6.3.2-.6h-.5l-.6,2.2h.4-.1ZM785.4,157.8c.4,0,.9-.2,1-.5,0-.4-.2-.9-.6-1-.4,0-.8.2-1,.6,0,.3.3.7.6.9ZM786.1,155.3c.4,0,.9-.2,1-.5,0-.4-.2-.9-.6-1-.4,0-.8.2-1,.6,0,.3.2.8.6.9ZM780.7,153.1l2.2,1.6-2.7.4.5-2.1h0Z"/>
      <polygon class="st1" points="780 165.3 779.1 167.2 778.4 167 778.2 167.4 779.6 168.1 779.9 167.7 779.6 167.5 781.9 162.8 782.2 162.8 782.3 162.4 780.9 161.7 780.6 162.1 781.4 162.5 780.5 164.4 775.5 162.1 776 160.9 775.5 160.8 774 164 774.5 164.1 775 163 780 165.3"/>
      <path class="st1" d="M775.6,123.5l-.2-.3c-.2-.3-.2-.6,0-1l1-2.2c.6.8,1.6,1,2.3.4,1-.6,1.2-1.6.5-2.8l-1.6-2.9-.5.3.5,1-4.8,2.7-.5-1-.4.3,1.6,2.9.4-.3-.5-1,2.1-1.1.3.6-1.3,2.5c-.3.6-.3.7,0,1.3l.5,1,.5-.3h.1ZM778.3,117l.5.9c.3.7.2,1.2-.5,1.6-.7.3-1.4.3-1.7-.3l-.5-.9s2.2-1.3,2.2-1.3Z"/>
      <path class="st1" d="M745.1,121.5s-1.3-.6-1.6-.6-.7-.4-1.2-.8c-.5-.3-.8-.5-.9-.6,0,0-.7-.3-1-.4l-1.5-1-1.5-1s-.3-.3-.6-.3c0,0-.9-.3-2-.2-.7,0-2.4.3-2.4.3,0,0-1.7.3-1.8.4,0,0-1.4.9-1.8,1.1l-.2,1h0s1.2-1.2,2.2-1.6c0,0,2.3-.5,4-.5,0,0,1.6,0,2.9,1l1,.9,1.6.9s1.2,1,3.8,2c0,0,1.4.5,2.2,1.3h0c.4-.9-1.4-1.8-1.5-1.9h.3Z"/>
      <path class="st1" d="M751.6,129.1l-.3-1.6-.2-1-.3-1c-.3-1.3-1-2.2-1.6-3.1,0,0-.3-.6-1.2-1.5,0,0-.2-.2-.3-.3-.3-.3-.9-.9-1.6-1.2-.2,0-1.6-1-1.7-1h-.3c-.3,0-.8-.3-.9-.3-.3,0-.7-.2-1-.2h.2-.4c0,.2,0,.3.8.4.2,0,1.6.5,1.6.6,0,0,1.7,1,2,1.2,0,0,1.4,1,2.2,2.3,0,0,1.1,1.5,1.8,4.1l.8,2.2.9,1.6-.4-1.1h0Z"/>
      <path class="st1" d="M754.1,135.7c0-.6-.2-1.4-.3-1.8,0-.7-.5-1.8-.9-2.4-.3-.5-1-1-1.1-1.1h-.2l.6,1.3s.7,1.5,1.1,4.9l-.3,3.1-.3,1.1v1s.6-.7.8-1.5c0,0,.3-1.3.3-1.6,0,0,.3-1.8.2-2.4.2,0,0-.3,0-.7h.1Z"/>
      <path class="st1" d="M759.3,152.5c-.6-.5-.4-1-.4-1l.2-2.2c0-1.1-.4-2-.4-2-.2-.5-1-.9-1-1h-1.4c-1.3,0-1.6.3-1.8.3h-.2v-.2c0-.2.2-.5,0-1-.3-.7-.3-1.5-.3-1.6l1-1.4c1.4-2.4,1.1-5.4,1.1-5.4-.3-5-1.3-7.8-1.3-7.8-1.4-4.5-3.5-8.6-3.5-8.6-2.8-4.4-8.6-5.3-8.7-5.3-2.9-.6-7.9-.3-8-.3-2.6.2-4.1.9-4.1.9,0,0-2.3,1-3.3,2.4,0,0-.2.3-.3.6-.2.2-1,.6-2.1,0-1-.4-1.1-2.3-1.1-2.3,0,0-.3-.7-1-.7-2.3-.3-3.7.5-3.7.5,0,0-1.2,1-1.6,1.9-.3,0-1.5.3-2.9,2.3l-1.1,1.4-1.6,1.4s-.6,1.3-.3,3.6c0,.2.5.5,1.4,1,.2.3.2,2.7-.3,3.3,0,0-.4,1.1-.5,1.3l-.5.9s-.3.3-.3,1.2v.7s0,1-.4,1.5l-1.1,1.6-1,1.5s-.7,1.2-.9,1.5l-.2.2c-.3.3-.7.8-.8,1.4,0,0,0,.8.5,1.3.3.3.7.4,1.2.4h.6v1.9s-.2.8,0,1.1c0,0,.3.3.2.4v.4l-.2.3s-.2.8.2,1l.4.3s.5.4.3,1l-.4.7s-.3.4-.4,1c0,0-.3,1.3.4,2.4.5.8,1.4,1.3,2.6,1.5l2.3.3,2.5.4s.7.2.7,1.1v.3s0,.7.3,1.2l.5,1.2.6,1.1.6,1.5s.5,1.3.5,2.9v3h1v-4.2s-.2-1.6-.9-2.9l-.5-1-.8-1.3s-.5-1-.7-2.5v-.8c.3,0,1.6-.5,2.9-1.1.2,0,2.3-1.5,3.2-2.2,1.7-1.5,2.2-1.8,2.3-2,.2-.2,1.4-1.2,1.8-1.9h.6c.3.3.3,1.2.3,1.2l1.6,7.3-2.1,3.1-2.2,5.3-1.8,6.4h1.2v.2c0-5.2,4.1-12.4,4.1-12.5l3.8-5.2,4.2-4.7,3.7-3.9s3-2.1,3.4-2.3h.3c.3,0,.3.5.3.5.3.7.5,1.4.5,1.4.3,1.1.3,1.5.2,1.6h-.2c-1.3.2-1.9,1.1-1.9,1.1-.7,1.1-.5,2.4-.4,2.9h-.2c-1.6,0-2,1.2-2,1.2-1,2-.3,4.1-.3,4.1,0,0,.3,1.3.2,2.2,0,.2,0,1.5.5,1.8.4.3.8.4.9.4,0,0,.3.6.8.7h0c.5,0,1-.3,1.4-1h0c0-.2,1-1,1-1,0,0,.5-.3,1.3-.2h1.1c.8,0,1.2-.6,1.4-1,0,.6.3,2.4,1.7,2.9v.6c-.3,1.4.7,2.2.7,2.2,2.2,1.4,4.5,0,4.5,0,1.4-.8,1.5-2.7,1.5-2.7.2-1.5,0-2.4,0-2.4-1.2-1.9,0-3.3,0-3.3.4-.3.7-1.1.9-2.2.3-1.8-.5-2.5-.5-2.5l.2.4ZM758,160.4c.5.9.3,2.7.3,2.7-.3,1.6-1.6,2-2.2,2.2-1.1.3-2.2,0-2.8-.7-.3-.3-.3-.9-.3-1.4h0c.2-.4.4-1.3,2.3-1.4.3,0,1,.5,1,.9s-.2.3-.4.3h-.3c-.2,0-.3,0-.4.2v.2s.2.4.9.4h.6c.7-.2.6-1.1.6-1.2,0-.7-.7-1-.7-1l-.7-.4h-1.2c-1,.2-1.4.9-1.6,1.2-1-.9-1.2-1.6-1.2-1.6l-.4-1.2c0-.2.2-.3.3-.6h.3s1,.3,1.9.3h2.1s1,.3,1.5.7l.3.3v.3h0v-.2ZM743,158.5h0s0-.3.2-.4c.2-.2.5-.3,1-.3,0,0,.6,0,.8.5,0,0,.3.3.3.7-.2,0-.9,0-1.4.5-.4.3-.7.7-.8,1-.2-.6-.2-1.2-.2-1.6v-.3h.1ZM744.3,159.9c.4-.3,1-.3,1.4-.2l.7.6c0,.3,0,.8-.7,1-.4.5-.9.9-1.2.9s-.4-.3-.4-.3c-.2,0-.3-.3-.4-.4,0-.3,0-1.2.7-1.6h0ZM746.9,160l-.5-.3-.2-.3-.5-1.2s-.7-.9-1.2-1h-.7s-.5.2-.7.3h-.4c-.3-.9,0-1.8.2-2.2,0,0,.3-.3.4-.3.3,0,.6,0,1,.3l1,1,.6.8c0,.2,1,1.5,1.2,1.6h.2c0-.2-.2-.8-.3-1.1,0,0-.2-.3-.3-.4-.3-.6-.8-1.4-1.3-1.8,0,0,0,0-.2-.2-.5-.5-1-.9-1.6-1,.5-.6,1.3-.7,1.6-.8l.4.3.3.3.4.5.3.4.3,1,.2.7.3.6.7,1c.2.2.4.2.7.2h.3c.4,0,.8-.5,1-.9.7-1.5-1.5-4.7-1.6-4.9-.2-1.4.9-2.9,1.1-3.2h1.3v.2l-.2,1c0,.2-.2.6-.3.7,0,0-.5.7-.6,1.5v.8c.5.6,1.3,1.6,1.3,1.7.3,1.9,0,2.3-.4,3.3,0,.3-.3.5-.4.9l-.5.5c-.4.6-1.6.6-1.6.6h-1.1l-.2-.6ZM745.2,151.9c0-.7.4-1.6.4-1.6.7-.8,1.3-.9,1.3-.9.3,0,.5,0,.7-.3h.9c-.3.3-1.9,2.6-.7,4.2.9,1.1,1.7,2.8,1.6,3.4,0,0,0,.2-.2.3-.3.3-.5.4-.8.4s-.4-.5-.4-.6l-.4-.9-.3-1c0-.3-.6-1-.6-1l-.3-.3-.3-.3-.3-.4-.3-.3-.2-.2h0v-.6h-.1ZM710.4,148.2s.3-.3.5-.2c0,0,.4.3.6.3h1.1v-.3h-.9s-.2,0-.4-.4c0,0-.2-.2-.3-.2h-.7v-.7s.3-1.1,0-1.6h.7l.9.4s.4.2,1.4-.4c0-.8-.8-1.8-.8-1.8h0l-.2.3s.2.5.3.6c.2.4.2.6.2.7s0,0-.2,0c-.3,0-.8.2-1.1-.3,0,0-.5-.3-1.3-.4h-1.2c-.4,0-.8,0-.9-.2-.2-.2-.2-.4-.2-.7v-.3c0-.2.8-1.5,1.4-2l.3-.4,1-1.7.8-1s1-1,1-1.7v-1s0-.5.3-1.1l.4-.9.4-1.2.3-1.2.2-1.6v-.3c.2-.3.6-1,.7-1.5,0-.6.7-1.1,1.2-1.4.3-.2.6-.3.8-.3s.3,0,.3-.2c0,0,.2-.2,0-.3,0,0-.2-.2-.3-.3-.2,0-.8.3-1,.4-.4.3-.9.5-1.1.8-.2.2-.3.4-.5.6,0,.2-.2.3-.3.4-.2.2-.3.3-.4.3-.6-.3-1-.6-1-.9v-1.3c0-.3,0-1,.4-1.6,0,0,.3.2.5.2h.2c.8,0,1.9-.3,2.5-1,.4-.5,1.2-.6,1.7-.5,0,0,0,0-.2.2-.2.2-.5,1.3-.3,1.6v.3c.2.3.3.7.5.7h0v-.6c0-.4-.2-1,0-1.3.6-1,1.8-2,2.8-2.4,1.1-.5,2-.6,2.5-.3.4.3.9.8,1.2,1.1.2.2.3.3.5.5.3.3.7.3,1,.3,0,.3-.2.5-.3.9h-1.3c-.4-.4-1.9-1.7-2.9-1.3-1,.4-1.8,1-2.1,1.4-.2.2-.4.6-.4.9s0,0,0,0h0c.3,0,.7-.4.9-.6,0,0,1.1-1,1.9-1s1.4.6,1.6.9c0,0-.2,0-.3.2-.7.4-1,.8-1.2,1,0,0,0,0-.2.2-.5.5-.9.8-1.1.8s-.8-.3-1.1-.4c-.2,0-.3-.2-.5-.2-.3,0-.6,0-1,.2-.2,0-.4.3-.5.5h0c0,.2.3.2.9,0h.3c.2,0,.7.3,1,.4.3,0,.4.2.5.3h.2c.5,0,1.4-.7,1.5-.8,0,0,.3-.3.3-.4.3-.4.8-1,1.5-1.4.6-.3,1.1-.3,1.5-.2,0,.3-.2.5-.3.8v.3c-.2,0-.3.2-.5.4-1,.9-2.1,1.5-2.8,1.8h0c-.5.3-2,0-2.6-.2h0c0,.3.5.7,1.2.9h.7c.4,0,1.6,0,2.3-.7l1.5-1.1h0c0,.3-.7,1.6-.8,1.9-.3,1.3-.7,2-.7,2l-3.5,5.4c-.4.8-.4,1.5-.3,1.8,0,.3.2.5.6.5h1.2c.5,0,.6.4.6.4v2.7s0,.5.6.8v.4s-.3,1-.2,1.1h0c0,.2,0,.3.3.3.7.3.7.8.7.8,0,.2-.3,1-.6,1.6-.4.7-.3,2.7-.3,2.8.3,1,2.1,1.4,2.2,1.4,1.8,0,3.1.3,3.1.3h.5s0,0-.2.2l-3.3,2.8s-3.8,3.5-6.8,3.5h-2.3c-.3,0-1.3-.3-2.2-.3-2,0-3.3-.8-3.4-2.2-.2-1,0-1.5,0-1.6,0,0,1-1,1-1.5,0,0-.2-.9-.5-1.1-.3,0-.4,0-.5-.2-.3-.3-.3-1,0-1.3l.8-.3ZM755.4,138.5c-.2,2.9-1.5,4.1-1.8,4.3,0,0-.2,0-.3.2-.3.3-.6.5-1,.8h-.6c-.3,0-.6-.3-.8-.5.2-.3.5-1.1.3-1.6-.2-.4-.4-.7-.5-1,0,0,0-.2-.2-.3v-.7c0-.6-.2-1.3-.3-1.6-.5-.7-1.5-1.4-1.9-1.6h-1.5c0-.8-.8-2.9-1.5-3.5-.2-.2-1.1-.3-1.5-.3s-1.2.2-1.5-.2h0v-.5h0c0-.2-.9-2.7-1.1-3.5-.3-.7-.9-.9-1.4-1-.5-.2-1.3-.4-1.6-.7-.2,0-.3-.5-.3-1s-.2-1.3-.6-1.6c-.7-.6-3.3-.9-3.4-.9h-.4v-1h1c.5,0,1.6-.3,2.3-.2.5,0,.9.4,1.3.9,0,0,.3.3.3.4.3.3.5.8.8,1.3.3.7.8,1.5,1.4,2,.8.7,2,1.2,2.7,1.6.2,0,.3.2.4.2.3,0,.3.3.3.7s0,.5.3,1c.4,1.2,1,1.7,1.6,2.1.3.3,1.1.5,1.8.8s1.5.5,1.7.7c.3.2.3.6.4,1,0,.3,0,.7.3,1s.9.9,1.4,1.3c.3.3.6.5.8.7.3.3.4.7.5,1q0,.3.2.3h0c.2-.2,0-.7,0-1.4s-.4-.6-1-1c0,0-.2-.2-.3-.3.3-.3.5-.7.5-1.2,0-.9-.3-2.1-.7-2.7-.4-.6-1-1.3-1.8-1.6-.2,0-.3,0-.4-.2-.3,0-.4-.2-.8-.4-.4-.4-.9-2.4-1-3.9,0-1-.5-1.5-1.2-1.7-.3-.2-1-.3-1.8-.5-.6-.2-1.2-.3-1.7-.5-.7-.3-2.1-1.2-3.1-1.9-.5-.3-1-.7-1.2-.8-.8-.4-4.1-1-4.8-.8-.3.2-.5.3-.6.6,0-.2-.3-.3-.3-.3-.3-.2-.9-.4-1-.4h-.2c.2-.2.4-.3.8-.5.5-.3,1.6-.4,2.3-.4s1.2-.2,1.2-.2h0s-.3-.3-.9-.3h-2.6c-.4,0-1.6,1-1.8,1h-2c-.3,0-.7.2-.7.3-.2-.3-.3-.6-.3-1s.2-.7.3-.9c.3-.4,1.2-1,1.2-1,.3-.2,2.8-1.3,5.4-1.4,2.4,0,4.7,0,6.8.3,1.6.2,6.1,2.2,6.1,2.2,1.4.7,2.4,2.2,2.4,2.2.9.9,2.7,5.1,2.7,5.1,1.1,3.8,1.3,4.4,1.4,4.6,0,0,1,3.1,1.1,8.2l.4.2ZM753.7,146h0l-.2.6v.2h0v.3c-.2.6-2.9,1.2-4,1.4h-1.4v-.9h0c1.6,0,2.9-.6,2.9-.6,0,0,.9-.3,1.2-.5.3,0,.6-.4.6-.7h-.3c-.7.3-2.9,1-3,1.1h-1.3c-.3,0-.4-.4-.5-.8,0,0,.3-.3,1-.3h.3s2.4-.4,3.8-1.5h.6v.3c.3.9.2,1.3.2,1.3h.1ZM757.9,157.7h0c0,.4-.2.8-.2,1-.3-.3-.7-.5-1.2-.5h-1.6c0-.4-.3-1.8-1-2.6-.5-.5-.9-.8-1.2-1-.2,0-.3-.3-.5-.4-.5-.4-1.4-1.1-1.4-1.1-.4-.5-.4-.9,0-1.8.3-.3.3-1.9.4-2.4.3,0,.6,0,.9-.2,0,.3,0,1,.2,1.6,0,.5,0,1-.2,1.5,0,.3-.2.5,0,.6,0,.3,1.1,1.2,1.6,1.5,0,0,.2,0,.3.2.5.3,1.5.7,1.8,1,.3.2.7.6,1.1,1,.3.3.5.5.7.7.2,0,.3.4.5.6-.2.3-.2.5-.3.5v-.2ZM751.8,155.3v-.2h0l1,.8.9.9s.4.4.4.9v.6h-1.7s-.6,0-.8-.6v-1l.2-.4-.2-.9h.2ZM751.4,135.3c0,.3-.2.5-.3.7-.2-.3-.3-.4-.4-.6,0-.2,0-.3-.2-.5-.2-.5-.3-1.1-1-1.7-.5-.3-1.3-.6-2-.8s-1.4-.4-1.8-.7c-.3-.2-.5-1-.8-1.7-.2-.5-.3-1-.4-1.4-.3-.8-1.1-1-1.8-1h-.4c-.6-.2-2-1.2-2.9-3.2s-1.8-2.2-2.3-2.2h-3.1c-.1,0-.3,0-.4-.2,0-.4.3-1,.9-1,.9,0,2.3,0,3.9,1,.3.3.8.5,1.3.8,1.5.9,3.2,2,4.5,2.3h0c1.6.4,2.2.6,2.4,1.3,0,.3,0,.6.2,1,0,1,.3,2.1.7,2.8.3.4,1,.9,1.6,1.3.7.4,1.4.9,1.7,1.5.7,1,.9,1.9.8,2.4h-.2ZM747,144.6c0-.2-.3-.5-.4-.9-.2-.3-.6-.7-1.3-1.3,0,0-.4-.2-.9-.3v-.2h0c-.1-.2-.1-.4,0-.7v-1.4h.5c.4,0,1-.5,1.5-1.1.2-.2.3-.7.4-1.2.3,0,.7-.2,1,0,.4.2,1.5.7,1.6,1,0,.2.3.6.3,1v.3l-1.7.2-1.1.3-1.2.5.3.3s1.2-.2,1.3-.2c1.7-.5,2.8-.2,2.9-.2h0v.2c.3.3.4.7.4.9s-.2.8-.5,1.3c-.2,0-.6.3-1,.3h-.7l-.5-.2h-.3s-.3,0-.4-.2c-.4-.3-.5-.3-.5-.3,0,0-.3,0-.6-.2h-.6l.3.3.3.2h.3l.5.5.5.3.3.2.4.2h1.8c.3,0,.7.2.7.3v.3h0s-1,.7-2.7.7h-.3l-.4-.8h-.2ZM742.7,141.7c-.5-.3-.9-.6-1-.7h0c-.9-.8-1.3-.9-1.3-1h-.2c-.3-.3-.6-.7-.5-1,0-.3.3-.6.4-.7h1.2c.3.2,1,.6,1,.6.4.3.7.6.9,1,.2.6,0,1.5-.2,1.7h-.3ZM740.9,131.7c-.4,0-1,.2-1.3,0-.2-.2-.4-.4-.6-.7-.2-.3-.3-.4-.4-.6-.3-.3-.6-.4-1-.6,0-.3-.5-1-.8-1.1-.6-.5-1-.9-1.4-1.1-.2,0-.3-.3-.5-.3-1-.8-2-1.2-2.4-1.3.2-.6.3-1,.4-1.4h1c.9,0,1.9,0,2.8.8,0,0,.2.5.2,1s.2,1.3.4,1.4c.3.2.6.3,1,.4.7.3,1.5.6,2,1.2.7.7.7,2,.7,2.4h-.1ZM745.8,136.6c0,.4-.3,1.1-.4,1.5-.3.5-.6.7-1,.9h-.7c0-.2-.3-.3-.6-.4-.2,0-.3-.2-.4-.3-.2-.2-.5-.3-.8-.5.3-.3.6-.8.7-1.1,0-.6.2-1,0-1.5h0v-1.1c.3-.3.8-.7,1.6-.5.7.2,1.3,1.6,1.6,2.4v.6h0ZM734.6,127.5c.6.4,1.3,1.1,1.6,1.4h0c0,.2.2.3.2.4-.5,0-1-.2-1.3-.2s-1,.2-1.4.5h0c-.3-.9-1.1-1.6-1.1-1.7-.5-.5-.4-.8-.4-.8,0-.2.2-.4.3-.6.5,0,1.5.3,2.2.9h0ZM733.6,131.8v-1.3c.3-.3.5-.6.9-.6.6-.2,1.3,0,1.8,0,.5.2,1.4.3,1.8,1,0,.2.3.3.3.5.2.3.4.7.8.9.3,0,.9.3,1.2.3h.3c.3,0,.6.3.8.4,0,.3.4,1.4.4,2.4s0,.8-.3,1.4v.2c0,.2,0,.3-.2.3h-.2c-.2,0-.3,0-.3-.2-.2,0-.3,0-.4-.2h-.8s-.8.2-1.1-.3c-.2-.2-.2-.4-.3-.6,0-.3-.2-.5-.3-.5h-.2c.3-.5.3-.7.4-1v-1.3c-.2-.5-.5-1.1-.6-1.3-.2-.3-1.3-.7-1.6-.7s0,0,0,0c0,.2.7.6.8.7.4.3.8,1,1,1.4,0,.3-.2,1.3-.3,1.5-.2,0-1,.3-1.4.2-.3,0-.5-.2-.7-.3-.2,0-.3-.2-.6-.3-.3-.2-1-.9-1.3-1.2-.2-.8.2-1.3.2-1.3h-.1ZM734.2,134.5c.3,0,.4.3.6.5h0c0,.7.2,1.7.3,2.2,0,.3.2.4.3.6,0,.3.2.5.2.8v1h-1.2c-.2-.2-.5-2.6-.7-4.1l-.3-1.2c.3,0,.5.2.8.3h0ZM736,138.1v-.2c-.3-.5-.4-1.1-.4-1.6v-1c.2,0,.3.2.5.3.2,0,.3.3.5.3h.3c0,.2,0,.3-.2.3v1c0,.3,0,1,.2,1.2,0,.2.2.5.2.8h-1c.2-.3,0-.9,0-1.3v.2ZM738.4,140.4h0c-.2-.3-.3-.6-.3-.7v-.3h0s-.5-.4-.5-1v-.9c0-.4-.2-.9,0-1,0,0,.3-.3.4-.3.2.2.3.3.4.4v.2c.3.3.4.7,1,.7h0c.4,0,.7,0,1,.2-.3,0-.6,0-.7.2-.3.3-.5.6-.6,1v1h0c0,.2,0,.3.2.4-.2.2-.3.3-.5.4-.3-.3-.3-.4-.3-.4h-.1ZM758.1,151.9h-.2c-2.1.4-2.8.2-2.9-.2-.2-.2,0-.4,0-.6,0,0,.2,0,.6-1.6.2-.4-.3-1-.3-1.1,0-.2-.8-1-1-1.2h0c.3,0,1-.3,1-.3,1.5-.2,2.8-.2,3.1,1.8,0,.3-.3,1.7-.3,3.1h0ZM727,120.1l-.7,1.1s0,.2-.2.3h-.4c-.3,0-1-.8-1.5-1.3,0,0,0,0-.2-.2,0,0,.3,0,.4-.2h.2c.3.3,1,.4,1.7.3h.8-.2.1ZM724,119.2c-.2,0-.3.2-.5.3h0c-.7-.6-1.6-.4-2.2-.3-.2,0-.4.2-.7.4,0,0-.3,0-.3-.2h0c-.3-.4-.7-.8-.8-.9-.3-.2-.7-.3-1-.4v-.2l.3-.3s.4-.6.8-.9h0c.3-.2.6-.3.9-.3h1.6s1,0,1.2,1l.5,1.5.3.3h0ZM717.9,118.8c.3,0,.7.2,1.1.4.3.2.6.6.9.8-.6.4-1.1.9-1.3,1,0,0-.3.3-.4.4-1.6-.3-2.4.4-2.7.7-.8.9-1.7.9-2.2.6.3-.3.7-.5.9-.7.4-.3.8-.9,1.2-1.5s1.8-1.6,1.9-1.6l.7-.3v.2ZM725.8,149.4h-.3c-1.3,0-2.1-.3-2.5-1-.6-1,0-2.3,0-2.4l.4-1c0-.2.2-.2.3,0h.3c.2,0,.3,0,.3-.2s-.2-.5-.2-.5c-.2-.2-.3-.4-.3-.8s0-.3.3-.5h0c0-.2-.3-.2-.3,0-.5.3-.8,0-.8,0,0-.2-.2-.3,0-.4,0-.2.3-.3.3-.3,0,0,.3-.3,1.3,0h.9c.4,0,.4-.4.4-.4-.3-.2-.3-.3-.4-.3,0,0-.1,0-.3-.2-.2-.1-.3-.1-.2,0-.2.2-.3.4-1,0-.4-.4-.6-.4-.7-.4h-.3q-.3,0-.4-.4v-2.7h.9c.4.3.8.3.9.3s.3,0,.5-.3c.2-.2.3-.4,0-1h0c-.3.5-1.3.4-1.5.4-1-.7-2.2-.3-2.2-.3-.4,0-.8,0-.9-.2-.3-.3,0-.9,0-.9l1.6-2.4s1.7-2.3,2.6-3.9c.2-1.6.4-2.2.5-2.2.6-.7.9-1.3.9-1.5.9-2.9,1-3.5,1-3.5,0-.4.7-1.5,1.4-1.6h.3c.4,0,1.1-.2,1.4,0h.3c.4,0,1.1.2,2.2.6,1,.3.3,2.9.3,2.9l-1.5,3.2c-.2.3.4.8.4.8,0,0,.9,1,.9,1.1,0,0,.7.6.6,1.8,0,.8,0,1-.3,1.4,0,.2-.2.3-.3.4,0,.7.3,1.9.3,2h0c-.3.3-.9.7-1.8,1-.2,0-.4.2-.7.3-1.2.4-1.6.6-1.6.8h0c0,.2.3.2.5.2h.6c.3,0,1.2-.3,1.6-.5.3,0,1.1-.4,1.6-.7,0,.3.2.7.2,1-.2,0-.3.2-.5.3-.3.2-.7.3-1,.5-.2,0-.3.2-.3.2-.2,0-.8.4-.8.5h0c0,.2.3.3.4.3s.5-.2,1-.4c.2,0,.3-.2.4-.2.3,0,.6-.3.8-.3h0c.2,2.1.3,2.4.3,2.5.2.2,1.3.2,3.5,0,1,.4,1.1,1.1,1.1,1.5l-.2.6c-.3.8-1.6,4.3-1.6,4.3v.3c-.2.4-.4,1-1.5,1.2-1,.4-1.7.6-2.9.8-2.1.4-3.5.5-3.6.5l-2.3.2-.3-.5ZM730.6,150v-.2s.5-.3,1-.3c4.5-.8,5.2-2,5.4-2.4h0c.8-1.4,2.2-5.4,2.2-5.5,0,0,.5-.5.9-.7s.9.3,1,.3c.2,0,1.1.9,1.1.9.3.3,1.1.4,1.1.4.3,0,1,.3,1.3.4h.3s.7.4.7.5v.5l-.3.3-3.8,2.8c-3,2.3-7,7.3-7,7.4l-2.2,2.8-.3.4-.3-1.6-1-4.3c-.3-1.3-.5-1.6-.5-1.8h.4ZM758.6,156.5c-.3-.2-.5-.4-.9-.9-.8-.8-1.6-1.4-2.4-1.8,0,0-.2,0-.3-.2-.9-.4-1.6-.9-1.9-1.5v-.8c.2-.3.3-.7.2-1.3-.2-.7-.3-1.3-.4-1.6.3-.2.5-.3.6-.3,0,0,.3-.2.3-.3,0,.2.3.4.3.5,0,0,.7.6.8,1,0,.2-.7,1.8-.7,1.8-.2.6-.2,1,0,1.3.2.2.3.2.7.2l3.8.3c.7,1,.7,1.9.6,2.3,0,0,0,.2-.5.9-.2,0-.3.3-.3.4h.1Z"/>
      <path class="st1" d="M714.2,137.2v-1.2h1.7s.2,0,.3.2h.2c.2,0,.5.2.6.3.2,0,.4.5.5.6,0,0,.2.3.3.3l.3.2h.3c0-.2-.3-.6-.6-1s-.4-.6-.4-.7c0,0-.2-.2-.3-.2h-.6c0,0-.2,0-.3-.2,0,0-.3,0-.3-.2h-.2c-.3,0-.6-.3-.8-.3h-1.6s-.2.2-.2.3v2.3h0c0,.2-.2.3-.3.4-.2.2-.2.3-.2.3h0c.2,0,.7,0,.8-.2.2,0,.4-.7.4-1h.4Z"/>
      <path class="st1" d="M717.1,137.9h0c0-.2-.2-.3-.3-.3h-.2c-.2,0,0,0,0,0h-.2l-.3-.2h-.3v-.2h-.5l-.3.2v.3h.3v.9s.2.3.3.4l.3.2h0v-.7h0c0-.2,0-.3.2-.5,0,0,0,0,.2,0,0,0,.4.3.5.4h0c0,.2.2.2.2.3,0,.3-.2.3-.3.3,0,0-.3.2-.4.2h-.8s-.2,0-.2.2v.2h1.1s.3,0,.4-.2c.2,0,.7-.3.8-.4,0,0,0-.2.2-.2v-.3c0-.3,0-.5-.2-.5h-.5Z"/>
      <path class="st1" d="M725.9,128.9h0c.3,0,1.1.2,1.5.3.3,0,.5.2.6.3,0,0,.5.4.8.7,0,0,.2.2.3.2,0,0,.2,0,.2.3h.4c.2,0,.3,0,.3-.2v-.4s-.2,0-.3-.3c-.2-.2-.3-.3-.5-.5,0,0-.2,0-.2-.2-.3-.3-.5-.4-.7-.5h0c-.3-.2-1-.6-2-.6s-.8.3-.9.4v.3c.2,0,.4.2.6,0v.2Z"/>
      <path class="st1" d="M729.4,132.1h.4l.2-.2h0s-1-.2-1.2,0h-.4c-.3,0-.5,0-.6.2h-.3c-.3,0-.4.2-.4.3s0,0,0,0h.2c.2,0,.4,0,.7-.2h1.4,0Z"/>
      <path class="st1" d="M727.2,130.3c.3,0,.8.4.9.6,0,0-.3.2-.5.3-.4.2-.5.3-.6.3h0c.2,0,1-.3,1.2-.3s.3-.3.3-.3v-.3s-.2-.2-.3-.3c-.2-.2-1-.7-1.2-.7,0,0-1.4-.3-1.6,0-.2,0,0,.5,0,.5h.4v.4h0q0,.3.2.5h0s0,.2.3.2h0c.2,0,.2-.3.2-.4v-.3c0-.2,0-.3.2-.4q0,.3.3.3h.2Z"/>
    </g>
  </g>
  <g>
    <path class="st3" d="M1004.3,187.3c6.9,0,11.9-2.1,15.8-4.6,3.6-2.4,6.4-5.3,8.5-9,2.8-4.8,3.1-9.2,3.3-11.8l5.2-53.4h-25.1l-7.6,78.7h-.1Z"/>
    <path class="st3" d="M980.1,123.4l-3.8,39.5c-.6,8.6,2.6,13.1,4.6,15.4,3.7,4.3,10.4,7.6,18.3,9,.2-2.3,7.3-75.5,7.3-75.5.2-3.6-.8-6.7-3.2-9.5-2.8-3.2-6.9-3.9-8.6-3.9h-62.3c-4.6,0-11.5,4.5-11.5,12.2s8.5,12.8,11.4,12.8h48-.2Z"/>
    <path class="st3" d="M944.7,177c.6-6.3,4.7-48.5,4.7-48.5h25.2l-4.7,48.5h-25.2Z"/>
    <g>
      <path class="st3" d="M1052.8,110.7v12.9h-2.4v-12.9h-4.1v-2h10.6v2h-4.1Z"/>
      <path class="st3" d="M1060.1,123.5v-14.9h7.9v2h-5.5v4.2h5.2v2h-5.2v4.6h5.5v2.1s-7.9,0-7.9,0Z"/>
      <path class="st3" d="M1078.4,123.7c-5,0-6.8-3.2-6.8-7.2s2.3-8,7.3-8,2.3.2,3.3.4l-.3,2.2c-1.1-.3-2.1-.5-3.2-.5-3.1,0-4.5,2.4-4.5,5.5s1.5,5.4,4.7,5.4,2.3-.3,3.1-.7l.3,2.1c-1.1.4-2.5.7-4,.7h0Z"/>
      <path class="st3" d="M1096.1,123.5v-6.7h-7v6.7h-2.4v-14.9h2.4v6.2h7v-6.2h2.4v14.9h-2.4Z"/>
      <path class="st3" d="M1112.6,123.5l-5.1-8.5c-.7-1.1-1.2-2.1-1.7-3.1,0,1.5,0,4.5,0,6.6v5h-2.3v-14.9h3.2l4.9,8.1c.7,1.1,1.3,2.3,1.8,3.4,0-1.7-.2-4.9-.2-7.1v-4.4h2.3v14.9h-3.1,0Z"/>
      <path class="st3" d="M1120.9,123.5v-14.9h2.4v14.9h-2.4Z"/>
      <path class="st3" d="M1130.8,123.8c-1.1,0-2.1,0-3-.4v-2.3c1,.3,2.1.6,3.2.6,1.6,0,3-.7,3-2.3,0-3.1-6.5-1.8-6.5-6.6s2-4.3,5.5-4.3,1.8,0,2.7.3v2.1c-1-.3-1.9-.4-2.8-.4-1.9,0-2.8.9-2.8,2.1,0,3,6.5,1.9,6.5,6.5s-2.2,4.7-5.7,4.7h0Z"/>
      <path class="st3" d="M1146.6,123.7c-5,0-6.8-3.2-6.8-7.2s2.3-8,7.3-8,2.3.2,3.3.4l-.3,2.2c-1.1-.3-2.1-.5-3.2-.5-3.1,0-4.5,2.4-4.5,5.5s1.5,5.4,4.7,5.4,2.3-.3,3.1-.7l.3,2.1c-1.1.4-2.5.7-4,.7h0Z"/>
      <path class="st3" d="M1164.2,123.5v-6.7h-7v6.7h-2.4v-14.9h2.4v6.2h7v-6.2h2.4v14.9h-2.4Z"/>
      <path class="st3" d="M1171.8,123.5v-14.9h7.9v2h-5.5v4.2h5.2v2h-5.2v4.6h5.5v2.1s-7.9,0-7.9,0Z"/>
      <path class="st3" d="M1053.3,150.5c-4.7,0-5.7-2.6-5.7-5.3v-9.8h2.4v9.6c0,2,.7,3.5,3.4,3.5s3.5-1,3.5-3.8v-9.3h2.4v9.2c0,4-2.1,6-6,6h0Z"/>
      <path class="st3" d="M1073.2,150.3l-5.1-8.5c-.7-1.1-1.2-2.1-1.7-3.1,0,1.5,0,4.5,0,6.6v5h-2.3v-14.9h3.2l4.9,8.1c.7,1.1,1.3,2.3,1.8,3.4,0-1.7-.2-4.9-.2-7.1v-4.4h2.3v14.9h-3.1,0Z"/>
      <path class="st3" d="M1081.3,150.3v-14.9h2.4v14.9h-2.4Z"/>
      <path class="st3" d="M1094.7,150.3h-2.7l-5.3-14.9h2.6l3.1,9.2c.3.9.7,1.9.9,3h0c.3-1,.5-2,1-3.2l3.2-9h2.5l-5.4,14.9h.1Z"/>
      <path class="st3" d="M1103.1,150.3v-14.9h7.9v2h-5.5v4.2h5.2v2h-5.2v4.6h5.5v2.1h-7.9Z"/>
      <path class="st3" d="M1122.4,150.3l-4.6-6.4h0v6.4h-2.4v-14.9h4c3.1,0,5.2,1.1,5.2,4s-1.8,3.9-4.2,4.2c.4.5.9,1.1,1.3,1.6l3.9,5.2h-3.1ZM1118.9,137.3h-1.3v4.7h1.2c1.9,0,3.1-1,3.1-2.5s-1-2.3-3-2.3h0Z"/>
      <path class="st3" d="M1131.2,150.5c-1.1,0-2.1-.1-3-.4v-2.3c1,.3,2.1.6,3.2.6,1.6,0,3-.7,3-2.3,0-3.1-6.5-1.8-6.5-6.6s2-4.3,5.5-4.3,1.8.1,2.7.3v2.1c-1-.3-1.9-.4-2.8-.4-1.9,0-2.8.9-2.8,2.1,0,3,6.5,1.9,6.5,6.5s-2.2,4.7-5.7,4.7h0Z"/>
      <path class="st3" d="M1140.8,150.3v-14.9h2.4v14.9h-2.4Z"/>
      <path class="st3" d="M1152.8,137.4v12.9h-2.4v-12.9h-4.1v-2h10.6v2h-4.1Z"/>
      <path class="st3" d="M1167.6,150.3l-1.1-3.3h-6l-1.1,3.3h-2.4l5.3-14.9h2.7l5.4,14.9h-2.8ZM1161.4,134.1c-.8,0-1.3-.6-1.3-1.3s.6-1.3,1.3-1.3,1.3.6,1.3,1.3-.6,1.3-1.3,1.3ZM1164.1,140.4c-.3-.8-.5-1.5-.7-2.3h0c-.2.8-.4,1.6-.7,2.4l-1.7,4.6h4.8l-1.7-4.7h0ZM1165.7,134.1c-.8,0-1.3-.6-1.3-1.3s.6-1.3,1.3-1.3,1.3.6,1.3,1.3-.6,1.3-1.3,1.3Z"/>
      <path class="st3" d="M1176.8,137.4v12.9h-2.4v-12.9h-4.1v-2h10.6v2h-4.1Z"/>
      <path class="st3" d="M1051.7,177.1h-4.1v-14.9h4.7c3.2,0,4.9,1.3,4.9,3.6s-1,2.9-2.5,3.4h0c1.9.4,2.8,1.9,2.8,3.4s-1.3,4.6-5.8,4.6h0ZM1051.9,164h-1.9v4.4h1.3c2.2,0,3.4-.9,3.4-2.4s-.7-2.1-2.8-2.1h0ZM1051.4,170.3h-1.3v4.7c.4,0,1,.1,1.7.1,2.2,0,3.2-1.1,3.2-2.6s-1.5-2.3-3.6-2.3h0Z"/>
      <path class="st3" d="M1061.6,177v-14.9h7.9v2h-5.5v4.2h5.2v2h-5.2v4.6h5.5v2.1h-7.9Z"/>
      <path class="st3" d="M1080.8,177l-4.6-6.4h0v6.4h-2.4v-14.9h4c3.1,0,5.2,1.1,5.2,4s-1.8,3.9-4.2,4.2c.4.5.9,1.1,1.3,1.6l3.9,5.2h-3.1ZM1077.3,164h-1.3v4.7h1.2c1.9,0,3.1-1,3.1-2.5s-1-2.3-3-2.3h0Z"/>
      <path class="st3" d="M1087.3,177v-14.9h2.4v12.8h5.1v2.1h-7.5Z"/>
      <path class="st3" d="M1097.8,177v-14.9h2.4v14.9h-2.4Z"/>
      <path class="st3" d="M1114.2,177l-5.1-8.5c-.7-1.1-1.2-2.1-1.7-3.1,0,1.5,0,4.5,0,6.6v5h-2.3v-14.9h3.2l4.9,8.1c.7,1.1,1.3,2.3,1.8,3.4,0-1.7-.2-4.9-.2-7.1v-4.4h2.3v14.9h-3.1,0Z"/>
    </g>
  </g>
  <g id="layer1">
    <path id="polygon10" d="M1545.3,115.7l-4.8,6.6,2,1.1,6.2-6.2-3.4-1.5h0ZM1431.5,125.4l-.6,1.4-13.4,30.4h3.7l3.7-8.6h13l3.6,8.6h3.8l-13-30.4-.6-1.4h-.2ZM1361.9,126.1c-9.9,0-16,7.4-16,15.9s6.2,15.7,16,15.7,6.4-1.1,9-2.9v-4.1c-2.4,2.4-5.7,4-9.1,4-7.4,0-12.2-6.1-12.2-12.7s4.8-12.7,12.2-12.7,6.8,1.5,9.2,4v-4.1c-2.7-2-5.6-3-9-3h0ZM1384.2,126.8v30.4h3.4v-14.9h10.3v-3.1h-10.3v-12.3h-3.4ZM1402.5,126.8v30.4h3.4v-30.4s-3.4,0-3.4,0ZM1456.3,126.8v30.4h3.4v-13.3h4.6l6.9,13.3h3.9l-7.4-13.8c3.1-.9,6.2-3.3,6.2-8.2s-4.6-8.4-9.6-8.4c0,0-8,0-8,0ZM1489.1,126.8v30.4h3.4v-30.4s-3.4,0-3.4,0ZM1505.3,126.8v3.1h7.3v27.2h3.4v-27.2h7.4v-3.1h-18.1ZM1535.6,126.8v30.4h16.4v-3.1h-13.1v-11.9h11.2v-3.1h-11.2v-9h12.6v-3.1h-15.9v-.2ZM1459.7,129.9h4.2c3.5,0,6.6,1.4,6.6,5.3s-2.7,5.7-6.6,5.7h-4.2v-10.9h0ZM1431.5,133.2l5.1,12.2h-10.3l5.2-12.2h0Z"/>
    <path id="path26" class="st4" d="M1315.1,142c0-24.2,19.5-43.8,44.2-43.8s20.7,3.9,28.3,10.4v6.7c-7.1-7.5-17.1-12.2-28.1-12.2-21.6,0-38.5,17.3-38.5,38.7s16.9,38.7,38.5,38.7,21.1-4.7,28.1-12.2v7c-7.6,6.5-17.5,10.4-28.3,10.4-24.7,0-44.2-19.6-44.2-43.8h0Z"/>
    <path id="path30" class="st4" d="M1451.9,166.3c-.4,0-.7.3-.7.7s.3.7.7.7.7-.3.7-.7-.3-.7-.7-.7ZM1453.9,166.3h0c-.3,0-.6.4-.6.7s.3.7.7.7.7-.3.7-.7-.3-.7-.7-.7h0ZM1436.3,168.1h-1.3c-.6.3-1,.9-1,1.7s0,.9.4,1.2h0c0,.1.2.3.3.3s.2.1.4.2c.3.1.6.2,1,.3.2,0,.3,0,.4.1.9.3,1.2.6,1.2,1.1s-.3.9-.8,1h-.7c-.7,0-1.4-.3-1.9-.9l-.8.8c.5.6,1.3,1,2.2,1.1h.4c1.8,0,2.7-.9,2.7-2.2s0-.7-.2-1h0c-.4-.6-1.1-.9-1.9-1.1-.3,0-.6-.2-.8-.3,0,0-.2,0-.3-.1-.4-.2-.5-.4-.5-.7s0-.1,0-.2v-.2c0-.3.5-.5,1.1-.5s1.1.2,1.5.5c0,0,0,.1.2.2l.8-.8c-.6-.6-1.4-1-2.4-1v.5ZM1466.1,168.1c-1.3,0-2.4.8-2.4,2s.7,1.7,2.2,2.1c1.2.4,1.6.6,1.6,1.2s-.3.9-.8,1h-.7c-.7,0-1.4-.3-1.9-.9l-.8.8c.5.6,1.3,1,2.2,1.1h.4c1.8,0,2.7-.9,2.7-2.2s0-.7-.2-1h0c-.4-.6-1.1-.9-1.9-1.1-.3,0-.6-.2-.8-.3,0,0-.2,0-.3-.1-.4-.2-.5-.4-.5-.7s0-.1,0-.2v-.2c0-.3.5-.5,1.1-.5s1.1.2,1.5.5c0,0,0,.1.2.2l.8-.8c-.6-.6-1.4-1-2.4-1h.1ZM1394.9,168.2v4.2c0,2,.9,3.1,2.7,3.1s2.8-1.1,2.8-3.1v-4.2h-1.1v4.2c0,1.3-.5,2-1.7,2s-1.6-.7-1.6-2.1v-4.1h-1.1ZM1402.3,168.2v7.2h1v-5.4c0,.2.4.6.5.9l2.9,4.5h1v-7.2h-1v5.4c0-.2-.4-.7-.6-1l-2.7-4.4h-1.1ZM1409.9,168.2v7.2h1.1v-7.2h-1.1ZM1412.6,168.2l2.5,7.2h1.1l2.5-7.2h-1.1l-1.5,4.6c0,.2-.2.5-.2.7s0,.5-.2.6c0-.3-.3-.9-.4-1.3l-1.5-4.6h-1.2ZM1420.3,168.2v7.2h4.8v-1h-3.7v-2.3h2.1v-1h-2.1v-1.8h3.5v-1h-4.6ZM1426.7,168.2v7.2h1.1v-2.8h1.6l1.4,2.8h1.2l-1.5-2.9c1-.2,1.6-1,1.6-2.1s-1.1-2.1-2.3-2.1h-3.2.1ZM1440.7,168.2v7.2h1.1v-7.2h-1.1ZM1443.4,168.2v1.1h2.1v6.1h1.1v-6.1h2.1v-1.1h-5.3,0ZM1452.4,168.2l-2.6,7.2h1.1l.6-1.7h2.9l.6,1.7h1.1l-2.6-7.2h-1.1ZM1457.3,168.2v1.1h2.1v6.1h1.1v-6.1h2.1v-1.1h-5.3,0ZM1470.5,168.2v7.2h1v-5.1c0,.2.3.7.5,1.1l1.7,4,1.7-4c.2-.4.4-.9.5-1.1v5.1h1.1v-7.2h-1.1l-1.6,3.8c0,.2-.2.4-.3.7,0,.2-.2.4-.2.6,0-.3-.3-.8-.5-1.2l-1.6-3.8h-1.2ZM1478.9,168.2v7.2h4.8v-1h-3.7v-2.3h2.1v-1h-2.1v-1.8h3.5v-1h-4.6ZM1485.4,168.2v7.2h2c1.9,0,3.5-1.1,3.5-3.6s-1.6-3.6-3.5-3.6h-2ZM1492.6,168.2v7.2h1.1v-7.2h-1.1ZM1495.7,168.2v1h4.1c-.2.2-.6.6-.8.9l-3.5,4.2v1h5.5v-1h-4.2c.2-.2.6-.6.8-.9l3.5-4.2v-1h-5.4ZM1502.8,168.2v7.2h1.1v-7.2h-1.1ZM1506,168.2v7.2h1v-5.4c0,.2.4.6.5.9l2.9,4.5h1v-7.2h-1v5.4c0-.2-.4-.7-.6-1l-2.7-4.4h-1.1ZM1516.4,168.2v7.2h3.2c1.4,0,2.2-.8,2.2-2.2s-.6-1.5-1.2-1.7c.5-.3.9-.7.9-1.4,0-1.2-.8-1.9-2.1-1.9h-3ZM1523.6,168.2v7.2h4.8v-1h-3.7v-2.3h2.1v-1h-2.1v-1.8h3.5v-1h-4.6ZM1530,168.2v7.2h1.1v-2.8h1.6l1.4,2.8h1.2l-1.5-2.9c1-.2,1.6-1,1.6-2.1s-1.1-2.1-2.3-2.1h-3.2.1ZM1537.3,168.2v7.2h4.7v-1.1h-3.6v-6.1h-1.1ZM1543.7,168.2v7.2h1.1v-7.2h-1.1ZM1546.8,168.2v7.2h1v-5.4c0,.2.4.6.5.9l2.9,4.5h1v-7.2h-1v5.4c0-.2-.4-.7-.6-1l-2.7-4.4h-1.1ZM1517.5,169.2h1.9c.7,0,1,.4,1,.9s-.3.9-1,.9h-1.9v-1.9h0ZM1427.8,169.2h2.1c.7,0,1.2.4,1.2,1.2s-.5,1.1-1.2,1.1h-2.1v-2.3ZM1531.1,169.2h2.1c.7,0,1.2.4,1.2,1.2s-.5,1.1-1.2,1.1h-2.1v-2.3ZM1486.5,169.2h.9c1.7,0,2.4,1,2.4,2.5s-.7,2.5-2.4,2.5h-.9v-5.1h0ZM1453,169.4c0,.3.4,1.1.5,1.6l.6,1.6h-2.2l.6-1.6c.2-.5.4-1.4.5-1.7h0ZM1517.5,172h1.9c.8,0,1.3.4,1.3,1.2s-.4,1.2-1.3,1.2h-1.9v-2.4Z"/>
  </g>
</svg>