<svg width="443" height="299" viewBox="0 0 443 299" fill="none" xmlns="http://www.w3.org/2000/svg">
<g clip-path="url(#clip0_0_1)">
<mask id="mask0_0_1" style="mask-type:luminance" maskUnits="userSpaceOnUse" x="-1477" y="-3510" width="1920" height="7031">
<path d="M-1477 -3510H443V3521H-1477V-3510Z" fill="white"/>
</mask>
<g mask="url(#mask0_0_1)">
<mask id="mask1_0_1" style="mask-type:luminance" maskUnits="userSpaceOnUse" x="-53" y="-97" width="556" height="482">
<path d="M502.677 153.493L86.3581 384.253L-52.235 134.213L364.084 -96.5462L502.677 153.493Z" fill="white"/>
</mask>
<g mask="url(#mask1_0_1)">
<path d="M24.6578 146.292C61.2934 88.3166 156.632 -0.190504 209.609 0.0371884C294.656 0.403693 353.493 25.2522 415.01 49.024C570.901 109.264 361.746 250.118 253.567 280.766C190.535 298.623 88.9074 315.455 28.542 266.581C-13.2862 232.714 -3.23533 190.433 24.6578 146.292Z" fill="#A58971"/>
</g>
<mask id="mask2_0_1" style="mask-type:luminance" maskUnits="userSpaceOnUse" x="-20" y="-130" width="526" height="475">
<path d="M505.485 135.353L127.412 344.914L-19.2695 80.2832L358.804 -129.278L505.485 135.353Z" fill="white"/>
</mask>
<g mask="url(#mask2_0_1)">
<path d="M21.0195 63.1387C63.9216 16.4752 169.602 16.3982 230.633 12.6545C291.664 8.9108 398.816 -4.02984 444.844 37.1367C551.306 132.352 309.346 256.445 245.827 260.34C175.523 264.651 91.7661 242.705 39.8955 180.639C13.8293 149.449 -10.3129 97.2159 21.0194 63.1364" fill="#00A75D"/>
</g>
<path d="M67.6955 116.116L65.98 91.6583L73.348 91.1415L75.0635 115.599L67.6955 116.116ZM90.533 114.514L89.8643 104.98C89.7885 103.9 89.5694 103.138 89.207 102.695C88.8551 102.24 88.3153 102.038 87.5876 102.089C86.9622 102.133 86.4904 102.412 86.1722 102.925C85.8541 103.439 85.7217 104.077 85.7751 104.839L86.4737 114.799L79.208 115.309L77.983 97.8436L85.2487 97.334L85.4402 100.063L85.5084 100.058C86.0181 99.0169 86.7427 98.189 87.6823 97.5747C88.6211 96.9489 89.6647 96.5958 90.8131 96.5152C94.6336 96.2473 96.7129 98.5238 97.051 103.345L97.7987 114.005L90.533 114.514ZM113.088 92.262C112.319 92.0531 111.61 91.9714 110.962 92.0169C110.155 92.0735 109.573 92.3257 109.216 92.7735C108.858 93.21 108.704 93.7807 108.753 94.4857L108.837 95.6796L112.879 95.396L113.232 100.427L109.19 100.711L110.062 113.145L102.796 113.654L101.924 101.221L98.9903 101.426L98.6374 96.3949L101.571 96.1892L101.459 94.5859C101.359 93.1646 101.601 91.8908 102.185 90.7643C102.768 89.6265 103.663 88.7124 104.872 88.022C106.092 87.3309 107.6 86.9223 109.396 86.7963C110.693 86.7054 111.799 86.7535 112.714 86.9406L113.088 92.262ZM134.943 102.315C135.15 105.26 134.419 107.637 132.752 109.445C131.096 111.252 128.671 112.268 125.476 112.492C122.303 112.714 119.773 112.069 117.884 110.556C116.006 109.031 114.966 106.825 114.763 103.936C114.633 102.083 114.936 100.445 115.67 99.0224C116.404 97.5997 117.513 96.4707 118.997 95.6353C120.481 94.7999 122.224 94.3121 124.225 94.1717C126.295 94.0266 128.112 94.2819 129.678 94.9376C131.255 95.5926 132.495 96.5683 133.397 97.8647C134.31 99.1604 134.826 100.644 134.943 102.315ZM127.577 102.866C127.411 100.49 126.418 99.3655 124.598 99.4931C122.779 99.6207 121.957 100.93 122.131 103.42C122.316 106.046 123.329 107.295 125.171 107.166C126.967 107.04 127.77 105.607 127.577 102.866ZM150.633 99.0039C150.352 98.8979 149.974 98.8101 149.501 98.7405C149.027 98.6709 148.637 98.6468 148.33 98.6684C145.931 98.8366 144.829 100.308 145.023 103.082L145.555 110.655L138.289 111.165L137.064 93.6997L144.33 93.1901L144.545 96.2601L144.613 96.2553C144.979 95.1213 145.552 94.2413 146.33 93.6153C147.108 92.978 148.043 92.6211 149.135 92.5445C149.533 92.5166 149.884 92.5605 150.19 92.6762L150.633 99.0039ZM176.187 108.507L175.481 98.4437C175.422 97.6023 175.224 96.9877 174.889 96.5999C174.563 96.1999 174.06 96.0238 173.378 96.0717C172.707 96.1187 172.202 96.4113 171.862 96.9493C171.522 97.4759 171.384 98.1883 171.447 99.0866L172.127 108.791L164.862 109.301L164.168 99.4086C164.043 97.6234 163.372 96.7735 162.155 96.8589C161.416 96.9107 160.877 97.2113 160.539 97.7606C160.199 98.2986 160.063 99.0509 160.131 100.017L160.802 109.586L153.537 110.095L152.312 92.6302L159.577 92.1206L159.771 94.8836L159.839 94.8788C160.078 94.3708 160.475 93.8458 161.032 93.3041C161.598 92.7501 162.246 92.2933 162.975 91.9337C163.703 91.5627 164.505 91.3465 165.38 91.2851C166.62 91.1981 167.677 91.3696 168.553 91.7995C169.44 92.2287 170.205 92.952 170.848 93.9696C171.393 92.9487 172.159 92.1408 173.146 91.546C174.132 90.9398 175.25 90.5928 176.501 90.5051C178.331 90.3767 179.778 90.8751 180.839 92.0004C181.901 93.1258 182.51 94.8141 182.668 97.0654L183.435 107.998L176.187 108.507ZM192.864 85.0553C192.936 86.0787 192.619 86.935 191.913 87.6244C191.218 88.313 190.263 88.7 189.046 88.7853C187.864 88.8682 186.868 88.6067 186.06 88.0006C185.264 87.3938 184.831 86.6014 184.762 85.6236C184.692 84.623 184.999 83.7902 185.684 83.1251C186.379 82.4479 187.341 82.0662 188.569 81.9801C189.786 81.8948 190.785 82.1389 191.568 82.7124C192.362 83.2738 192.794 84.0547 192.864 85.0553ZM186.727 107.767L185.502 90.3022L192.768 89.7926L193.993 107.258L186.727 107.767ZM203.298 99.9034C203.476 100.645 203.949 101.206 204.718 101.586C205.487 101.955 206.48 102.097 207.696 102.012C209.39 101.893 210.971 101.456 212.438 100.702L212.761 105.307C211.048 106.136 208.935 106.638 206.422 106.814C203.375 107.028 200.949 106.415 199.146 104.977C197.342 103.538 196.345 101.454 196.154 98.7248C196.022 96.8487 196.276 95.1683 196.914 93.6838C197.564 92.1985 198.588 91.0012 199.987 90.0918C201.397 89.1702 202.983 88.6477 204.745 88.524C206.553 88.3972 208.124 88.6412 209.458 89.2561C210.793 89.8709 211.834 90.792 212.583 92.0192C213.343 93.2456 213.783 94.7117 213.903 96.4172L214.094 99.1461L203.298 99.9034ZM207.397 95.7937C207.256 93.7811 206.464 92.8255 205.019 92.9268C204.417 92.9691 203.93 93.2831 203.56 93.869C203.189 94.4435 203.001 95.1879 202.997 96.1024L207.397 95.7937ZM229.431 93.477C229.149 93.3711 228.771 93.2833 228.298 93.2137C227.825 93.144 227.434 93.12 227.127 93.1415C224.728 93.3098 223.626 94.7811 223.821 97.5555L224.352 105.128L217.086 105.638L215.861 88.1728L223.127 87.6632L223.342 90.7332L223.41 90.7285C223.776 89.5944 224.349 88.7144 225.128 88.0885C225.906 87.4512 226.84 87.0942 227.932 87.0177C228.33 86.9898 228.682 87.0337 228.987 87.1494L229.431 93.477ZM244.614 103.467C244.296 103.649 243.766 103.835 243.025 104.024C242.285 104.225 241.386 104.362 240.329 104.436C238.305 104.578 236.679 104.132 235.453 103.098C234.238 102.064 233.558 100.518 233.414 98.4595L232.963 92.0295L230.217 92.2221L229.864 87.1907L232.61 86.9981L232.369 83.5699L239.394 81.089L239.773 86.4956L243.406 86.2408L243.759 91.2723L240.126 91.5271L240.493 96.7632C240.601 98.2982 241.263 99.023 242.48 98.9377C243.048 98.8978 243.642 98.7304 244.261 98.4356L244.614 103.467ZM275.671 92.2219C275.805 94.1321 275.605 95.8487 275.072 97.3715C274.55 98.8821 273.737 100.082 272.634 100.97C271.53 101.848 270.244 102.338 268.778 102.441C267.652 102.52 266.671 102.383 265.835 102.03C265.01 101.665 264.341 101.169 263.828 100.543L263.76 100.547L263.887 102.355L256.621 102.865L254.807 77.0085L262.073 76.4988L262.828 87.261L262.896 87.2562C263.404 86.3521 264.124 85.6161 265.055 85.048C265.998 84.4791 267.055 84.1536 268.226 84.0714C270.432 83.9167 272.172 84.5317 273.446 85.9163C274.731 87.3002 275.473 89.402 275.671 92.2219ZM268.318 92.9604C268.236 91.7893 267.947 90.924 267.451 90.3646C266.966 89.8045 266.303 89.5539 265.461 89.6129C264.722 89.6648 264.124 90.0209 263.668 90.6814C263.222 91.3297 263.034 92.1484 263.103 93.1377L263.177 94.1951C263.247 95.1957 263.525 95.9761 264.01 96.5363C264.495 97.0964 265.113 97.3502 265.863 97.2975C266.739 97.2361 267.39 96.8305 267.817 96.0807C268.244 95.3195 268.411 94.2794 268.318 92.9604ZM279.066 101.291L277.253 75.4341L284.518 74.9245L286.332 100.781L279.066 101.291ZM295.637 93.4267C295.815 94.1683 296.288 94.7293 297.058 95.1095C297.826 95.4784 298.819 95.6202 300.036 95.5348C301.73 95.416 303.31 94.9795 304.777 94.2253L305.1 98.8303C303.387 99.6589 301.274 100.161 298.761 100.338C295.714 100.551 293.289 99.9387 291.485 98.4998C289.682 97.0609 288.684 94.977 288.493 92.2481C288.361 90.372 288.615 88.6916 289.253 87.2071C289.903 85.7218 290.928 84.5245 292.327 83.6151C293.736 82.6935 295.322 82.1709 297.084 82.0473C298.892 81.9205 300.463 82.1645 301.798 82.7794C303.132 83.3942 304.173 84.3153 304.922 85.5425C305.682 86.7689 306.122 88.2349 306.242 89.9405L306.433 92.6694L295.637 93.4267ZM299.737 89.317C299.595 87.3044 298.803 86.3488 297.359 86.4501C296.756 86.4923 296.27 86.8064 295.899 87.3923C295.528 87.9668 295.341 88.7112 295.336 89.6256L299.737 89.317ZM315.562 76.4492C315.634 77.4726 315.317 78.3289 314.611 79.0183C313.917 79.7069 312.961 80.0939 311.745 80.1792C310.562 80.2621 309.567 80.0006 308.759 79.3945C307.962 78.7877 307.529 77.9953 307.461 77.0175C307.391 76.0169 307.698 75.1841 308.383 74.519C309.078 73.8418 310.039 73.4601 311.267 73.374C312.484 73.2887 313.484 73.5328 314.267 74.1063C315.06 74.6677 315.492 75.4486 315.562 76.4492ZM309.425 99.1611L308.2 81.6961L315.466 81.1865L316.691 98.6515L309.425 99.1611ZM339.254 87.7621C339.388 89.6724 339.189 91.3889 338.656 92.9117C338.133 94.4224 337.32 95.622 336.217 96.5107C335.113 97.3879 333.828 97.878 332.361 97.9809C331.235 98.0599 330.255 97.923 329.419 97.5703C328.593 97.2054 327.924 96.7096 327.412 96.0828L327.343 96.0876L327.47 97.8955L320.205 98.4051L318.391 72.5487L325.657 72.0391L326.412 82.8012L326.48 82.7964C326.988 81.8924 327.707 81.1563 328.639 80.5882C329.582 80.0193 330.638 79.6938 331.81 79.6117C334.016 79.457 335.755 80.0719 337.029 81.4566C338.315 82.8404 339.056 84.9423 339.254 87.7621ZM331.902 88.5007C331.82 87.3295 331.53 86.4642 331.034 85.9049C330.549 85.3447 329.886 85.0941 329.045 85.1532C328.306 85.205 327.708 85.5612 327.251 86.2216C326.806 86.8699 326.617 87.6887 326.687 88.6779L326.761 89.7354C326.831 90.736 327.109 91.5163 327.593 92.0765C328.078 92.6367 328.696 92.8904 329.447 92.8378C330.322 92.7764 330.973 92.3708 331.401 91.6209C331.827 90.8597 331.994 89.8196 331.902 88.5007ZM348.441 89.723C348.619 90.4646 349.093 91.0256 349.862 91.4058C350.631 91.7747 351.623 91.9165 352.84 91.8311C354.534 91.7123 356.115 91.2758 357.581 90.5216L357.904 95.1266C356.192 95.9552 354.079 96.4576 351.566 96.6339C348.518 96.8476 346.093 96.235 344.29 94.7961C342.486 93.3572 341.489 91.2733 341.297 88.5444C341.166 86.6682 341.419 84.9879 342.058 83.5034C342.708 82.0181 343.732 80.8208 345.131 79.9114C346.54 78.9898 348.126 78.4672 349.889 78.3436C351.697 78.2168 353.268 78.4608 354.602 79.0757C355.936 79.6905 356.978 80.6116 357.727 81.8388C358.487 83.0652 358.927 84.5312 359.046 86.2368L359.238 88.9657L348.441 89.723ZM352.541 85.6133C352.4 83.6007 351.607 82.6451 350.163 82.7464C349.561 82.7886 349.074 83.1027 348.704 83.6886C348.333 84.2631 348.145 85.0075 348.141 85.9219L352.541 85.6133ZM373.555 94.6631L372.886 85.129C372.81 84.0488 372.591 83.2871 372.229 82.8441C371.877 82.3889 371.337 82.1868 370.609 82.2378C369.984 82.2817 369.512 82.5604 369.194 83.0741C368.876 83.5877 368.743 84.2255 368.797 84.9873L369.495 94.9478L362.23 95.4574L361.005 77.9924L368.27 77.4828L368.462 80.2117L368.53 80.2069C369.04 79.1656 369.764 78.3378 370.704 77.7235C371.643 77.0977 372.686 76.7446 373.835 76.664C377.655 76.3961 379.735 78.6726 380.073 83.4937L380.82 94.1535L373.555 94.6631ZM391.039 85.1583L385.206 85.5675L383.147 69.4121L390.805 68.875L391.039 85.1583ZM392.581 90.2778C392.652 91.2897 392.34 92.1457 391.647 92.8456C390.964 93.5448 390.009 93.9374 388.781 94.0236C387.587 94.1073 386.586 93.8462 385.778 93.2401C384.982 92.6333 384.548 91.8352 384.479 90.846C384.409 89.8454 384.716 89.0126 385.401 88.3475C386.096 87.6703 387.063 87.2882 388.303 87.2013C389.508 87.1168 390.502 87.3613 391.285 87.9348C392.078 88.4962 392.51 89.2772 392.581 90.2778Z" fill="white"/>
<path d="M106.677 161.522L106.037 152.397L97.5769 152.99L98.217 162.115L90.8489 162.632L89.1334 138.174L96.5015 137.657L97.1367 146.714L105.596 146.12L104.961 137.064L112.329 136.547L114.045 161.005L106.677 161.522ZM124.36 138C124.432 139.023 124.115 139.88 123.409 140.569C122.715 141.257 121.759 141.644 120.543 141.73C119.36 141.813 118.365 141.551 117.557 140.945C116.76 140.338 116.327 139.546 116.259 138.568C116.189 137.567 116.496 136.735 117.18 136.07C117.876 135.392 118.837 135.011 120.065 134.925C121.282 134.839 122.282 135.083 123.065 135.657C123.858 136.218 124.29 136.999 124.36 138ZM118.223 160.712L116.998 143.247L124.264 142.737L125.489 160.202L118.223 160.712ZM134.794 152.848C134.972 153.59 135.445 154.15 136.215 154.531C136.983 154.9 137.976 155.041 139.193 154.956C140.887 154.837 142.467 154.401 143.934 153.646L144.257 158.252C142.544 159.08 140.431 159.583 137.918 159.759C134.871 159.973 132.446 159.36 130.642 157.921C128.839 156.482 127.841 154.398 127.65 151.669C127.518 149.793 127.772 148.113 128.41 146.628C129.06 145.143 130.085 143.946 131.484 143.036C132.893 142.115 134.479 141.592 136.241 141.469C138.049 141.342 139.62 141.586 140.955 142.201C142.289 142.815 143.33 143.736 144.079 144.964C144.839 146.19 145.279 147.656 145.399 149.362L145.59 152.091L134.794 152.848ZM138.894 148.738C138.752 146.726 137.96 145.77 136.516 145.871C135.913 145.914 135.427 146.228 135.056 146.813C134.685 147.388 134.498 148.132 134.493 149.047L138.894 148.738ZM160.927 146.421C160.645 146.316 160.268 146.228 159.794 146.158C159.321 146.089 158.931 146.064 158.624 146.086C156.225 146.254 155.122 147.726 155.317 150.5L155.848 158.073L148.582 158.582L147.357 141.117L154.623 140.608L154.838 143.678L154.907 143.673C155.273 142.539 155.845 141.659 156.624 141.033C157.402 140.396 158.337 140.039 159.428 139.962C159.826 139.934 160.178 139.978 160.483 140.094L160.927 146.421ZM192.313 153.064C192.548 156.418 191.673 159.102 189.689 161.115C187.717 163.139 184.707 164.293 180.66 164.577C179.568 164.653 178.505 164.642 177.469 164.543C176.434 164.444 175.687 164.303 175.228 164.118L174.829 158.421C175.588 158.825 176.467 159.129 177.464 159.333C178.461 159.537 179.34 159.613 180.102 159.559C181.728 159.445 183.002 158.962 183.925 158.109C184.848 157.256 185.264 156.181 185.173 154.885L185.098 153.81L185.029 153.815C184.562 154.648 183.885 155.335 182.997 155.877C182.121 156.418 181.16 156.726 180.114 156.799C177.863 156.957 176.029 156.303 174.612 154.837C173.194 153.36 172.389 151.245 172.196 148.493C172.063 146.606 172.288 144.916 172.869 143.424C173.45 141.932 174.321 140.757 175.484 139.899C176.645 139.029 177.959 138.542 179.426 138.44C181.439 138.298 182.992 138.938 184.086 140.358L184.154 140.353L184.027 138.545L191.259 138.038L192.313 153.064ZM184.724 146.775C184.652 145.751 184.362 144.955 183.854 144.385C183.357 143.814 182.727 143.556 181.965 143.609C181.147 143.666 180.519 144.076 180.081 144.838C179.643 145.6 179.466 146.589 179.552 147.806C179.631 148.932 179.898 149.81 180.354 150.441C180.809 151.071 181.48 151.356 182.367 151.294C183.197 151.235 183.822 150.854 184.241 150.151C184.671 149.435 184.846 148.509 184.766 147.372L184.724 146.775ZM201.789 148.149C201.966 148.891 202.44 149.451 203.209 149.832C203.978 150.201 204.971 150.342 206.187 150.257C207.881 150.138 209.462 149.702 210.929 148.947L211.252 153.553C209.539 154.381 207.426 154.884 204.913 155.06C201.866 155.273 199.44 154.661 197.637 153.222C195.833 151.783 194.836 149.699 194.645 146.97C194.513 145.094 194.766 143.414 195.405 141.929C196.055 140.444 197.079 139.247 198.478 138.337C199.888 137.416 201.473 136.893 203.236 136.769C205.044 136.643 206.615 136.887 207.949 137.502C209.284 138.116 210.325 139.037 211.074 140.265C211.834 141.491 212.274 142.957 212.394 144.663L212.585 147.392L201.789 148.149ZM205.888 144.039C205.747 142.027 204.954 141.071 203.51 141.172C202.908 141.215 202.421 141.529 202.051 142.114C201.68 142.689 201.492 143.433 201.488 144.348L205.888 144.039ZM226.834 153.094L226.135 143.133C226.013 141.394 225.287 140.57 223.957 140.664C223.308 140.709 222.831 140.994 222.525 141.518C222.219 142.031 222.092 142.674 222.146 143.447L222.843 153.374L215.577 153.883L213.763 128.027L221.029 127.517L221.784 138.279L221.852 138.275C222.415 137.333 223.122 136.592 223.976 136.052C224.84 135.5 225.783 135.188 226.807 135.116C228.694 134.984 230.175 135.491 231.25 136.639C232.324 137.774 232.943 139.519 233.108 141.873L233.861 152.601L226.834 153.094ZM249.416 151.27C249.097 151.452 248.567 151.638 247.827 151.827C247.086 152.027 246.188 152.165 245.13 152.239C243.106 152.381 241.481 151.935 240.254 150.901C239.039 149.867 238.359 148.32 238.215 146.262L237.764 139.832L235.018 140.025L234.665 134.994L237.411 134.801L237.171 131.373L244.195 128.892L244.575 134.298L248.207 134.044L248.56 139.075L244.928 139.33L245.295 144.566C245.402 146.101 246.065 146.826 247.281 146.74C247.85 146.701 248.444 146.533 249.063 146.238L249.416 151.27ZM267.214 143.56C267.392 144.302 267.866 144.863 268.635 145.243C269.404 145.612 270.396 145.753 271.613 145.668C273.307 145.549 274.887 145.113 276.354 144.359L276.677 148.964C274.964 149.792 272.851 150.295 270.339 150.471C267.291 150.685 264.866 150.072 263.062 148.633C261.259 147.194 260.262 145.11 260.07 142.381C259.939 140.505 260.192 138.825 260.831 137.34C261.481 135.855 262.505 134.658 263.904 133.748C265.313 132.827 266.899 132.304 268.661 132.181C270.469 132.054 272.04 132.298 273.375 132.913C274.709 133.527 275.751 134.448 276.499 135.676C277.26 136.902 277.699 138.368 277.819 140.074L278.011 142.803L267.214 143.56ZM271.314 139.45C271.173 137.438 270.38 136.482 268.936 136.583C268.333 136.626 267.847 136.94 267.477 137.525C267.106 138.1 266.918 138.844 266.913 139.759L271.314 139.45ZM294.786 142.5C294.925 144.479 294.276 146.067 292.841 147.264C291.416 148.45 289.356 149.137 286.661 149.326C285.876 149.381 284.898 149.37 283.728 149.292C282.568 149.213 281.616 149.086 280.873 148.909L280.515 143.81C282.731 144.614 284.561 144.966 286.005 144.864C287.426 144.765 288.111 144.345 288.059 143.606C288.038 143.299 287.855 143.06 287.512 142.89C287.168 142.709 286.28 142.434 284.849 142.066C283.268 141.685 282.097 141.116 281.336 140.358C280.574 139.601 280.148 138.573 280.057 137.277C279.93 135.469 280.546 133.992 281.906 132.846C283.275 131.687 285.262 131.016 287.866 130.834C289.39 130.727 291.02 130.835 292.757 131.159L293.1 136.054C292.362 135.797 291.56 135.596 290.692 135.451C289.825 135.307 289.102 135.255 288.522 135.295C288.044 135.329 287.669 135.435 287.396 135.614C287.123 135.793 286.996 136.025 287.016 136.309C287.039 136.639 287.211 136.895 287.533 137.079C287.854 137.262 288.485 137.463 289.426 137.683C291.248 138.081 292.574 138.662 293.405 139.426C294.236 140.191 294.696 141.215 294.786 142.5ZM315.477 141.82L322.675 141.315L323.028 146.347L306.296 147.52L306.06 144.16L313.27 134.536L306.157 135.035L305.804 130.004L321.649 128.892L321.939 133.02L315.477 141.82ZM336.502 145.402L336.313 142.707L336.244 142.712C335.7 143.584 335.197 144.231 334.735 144.651C334.285 145.071 333.761 145.422 333.164 145.704C332.578 145.985 331.881 146.154 331.074 146.211C329.163 146.345 327.665 145.827 326.577 144.658C325.49 143.489 324.861 141.693 324.691 139.271L323.952 128.731L331.217 128.221L331.918 138.216C332.039 139.933 332.741 140.746 334.026 140.656C334.731 140.607 335.244 140.337 335.563 139.846C335.895 139.354 336.03 138.682 335.97 137.829L335.277 127.937L342.542 127.427L343.767 144.892L336.502 145.402ZM369.897 143.059L369.191 132.996C369.132 132.155 368.934 131.54 368.599 131.153C368.274 130.753 367.77 130.577 367.088 130.624C366.417 130.671 365.912 130.964 365.572 131.502C365.232 132.029 365.094 132.741 365.157 133.639L365.837 143.344L358.572 143.854L357.878 133.961C357.753 132.176 357.082 131.326 355.865 131.412C355.126 131.463 354.587 131.764 354.249 132.313C353.909 132.851 353.774 133.604 353.841 134.57L354.512 144.138L347.247 144.648L346.022 127.183L353.287 126.673L353.481 129.436L353.549 129.432C353.788 128.923 354.185 128.399 354.742 127.857C355.308 127.303 355.956 126.846 356.685 126.486C357.413 126.115 358.215 125.899 359.091 125.838C360.33 125.751 361.387 125.922 362.263 126.352C363.15 126.781 363.915 127.505 364.558 128.522C365.103 127.501 365.869 126.694 366.856 126.099C367.842 125.493 368.96 125.146 370.211 125.058C372.041 124.929 373.488 125.428 374.549 126.553C375.611 127.678 376.221 129.367 376.378 131.618L377.145 142.551L369.897 143.059Z" fill="white"/>
</g>
</g>
<defs>
<clipPath id="clip0_0_1">
<rect width="1920" height="7031" fill="white" transform="translate(-1477 -3510)"/>
</clipPath>
</defs>
</svg>
