<svg width="141" height="51" viewBox="0 0 141 51" fill="none" xmlns="http://www.w3.org/2000/svg">
<path d="M90.667 23.7749C88.959 22.6122 86.6511 22.03 83.7418 22.03C83.135 22.03 82.395 22.0739 81.5216 22.1633C80.6483 22.2527 79.8013 22.4281 78.9788 22.6947C78.1563 22.9595 77.4549 23.3523 76.8727 23.8714C76.2904 24.3905 75.9993 25.0674 75.9993 25.9021C75.9993 26.6106 76.2396 27.1858 76.7201 27.6277C77.2006 28.0714 77.8705 28.2924 78.7315 28.2924C79.54 28.2924 80.3309 28.2099 81.1025 28.0469C81.8741 27.882 82.7018 27.7996 83.5892 27.7996C84.3976 27.7996 84.9676 27.9329 85.2973 28.1977C85.6252 28.4625 85.7918 28.8115 85.7918 29.2411C85.7918 29.6199 85.6778 29.918 85.4498 30.132C85.2219 30.3477 84.7414 30.5301 84.0083 30.6826L81.6181 31.2508C80.6308 31.4788 79.7592 31.7453 78.9998 32.0487C78.2405 32.3521 77.6075 32.7309 77.1024 33.1869C76.5956 33.6428 76.2097 34.1864 75.945 34.8195C75.6801 35.4526 75.5469 36.1997 75.5469 37.059C75.5469 38.6285 76.0028 39.8473 76.913 40.7206C77.8232 41.5939 79.0384 42.0306 80.5554 42.0306C82.0232 42.0306 83.1543 41.6185 83.9522 40.7978C84.3047 40.4348 84.6203 40.0244 84.9009 39.5737C84.8045 39.6141 85.1043 39.3598 85.0114 39.3896C82.8264 40.1103 81.2551 38.3163 82.3897 36.738C82.5194 36.5574 82.7334 36.3452 82.9894 36.1628C83.3279 35.9243 83.7347 35.7227 84.0609 35.5736C85.7006 34.8266 86.0391 33.7551 86.0391 33.7551C85.9391 34.3881 85.7918 37.671 85.7935 37.6657V38.2339C85.7935 39.3721 86.1355 40.291 86.8177 40.9854C87.5016 41.6816 88.3977 42.0289 89.5113 42.0289C90.6494 42.0289 91.5544 41.6816 92.2242 40.9854C92.8941 40.291 93.2291 39.3721 93.2291 38.2339V29.2411C93.2274 26.7597 92.3733 24.9394 90.667 23.7749Z" fill="#00376C"/>
<path d="M106.22 36.5627L105.613 36.4488C105.133 36.347 104.759 36.1699 104.494 35.9174C104.229 35.6649 104.096 35.2598 104.096 34.7039V27.7593H105.234C106.018 27.7593 106.644 27.5314 107.112 27.0772C107.581 26.6212 107.814 25.9899 107.814 25.1797V25.0289C107.814 24.2187 107.581 23.5874 107.112 23.1314C106.644 22.6755 106.018 22.4492 105.234 22.4492H104.096V20.3624C104.096 19.8065 103.926 19.3698 103.584 19.0524C103.242 18.735 102.781 18.5771 102.199 18.5771C101.692 18.5771 101.301 18.6859 101.022 18.8998C100.743 19.1138 100.452 19.3996 100.149 19.7539C99.8699 20.1327 99.4718 20.5886 98.9527 21.12C98.4336 21.6513 97.7953 22.1073 97.0359 22.4861L96.1258 22.942C95.4927 23.2717 95.0315 23.6312 94.7404 24.024C94.4493 24.4169 94.3037 24.9289 94.3037 25.5602C94.3037 26.1933 94.5001 26.6738 94.8912 27.0035C95.284 27.3315 95.7452 27.5472 96.2766 27.6489L96.6572 27.6874V35.7315C96.6572 37.757 97.2201 39.3108 98.3459 40.398C99.4718 41.487 101.047 42.0307 103.07 42.0307C103.602 42.0307 104.152 41.9868 104.722 41.8974C105.29 41.808 105.817 41.6449 106.297 41.4029C106.778 41.1626 107.17 40.8347 107.474 40.4156C107.777 39.9982 107.93 39.4598 107.93 38.8022C107.93 38.1446 107.779 37.6448 107.474 37.3028C107.169 36.9608 106.751 36.7136 106.22 36.5627Z" fill="#00376C"/>
<path d="M73.6103 23.2612C73.0159 22.4387 72.0092 22.0283 70.5941 22.0283C69.4296 22.0283 68.5265 22.3194 67.8811 22.9016C67.2358 23.4839 66.8763 24.3309 66.7991 25.4445L65.5838 39.4843L64.5211 25.9372C64.4194 24.7237 64.0266 23.7925 63.3444 23.1489C62.6622 22.5036 61.6241 22.1809 60.2334 22.1809H58.2605C56.8699 22.1809 55.8317 22.5036 55.1495 23.1489C54.4656 23.7943 54.0745 24.7237 53.9728 25.9372L52.9101 39.4843L51.6948 25.4445C51.6194 24.3309 51.2511 23.4839 50.5952 22.9016C49.9376 22.3194 49.0135 22.0283 47.8245 22.0283C46.4075 22.0283 45.4009 22.4404 44.8081 23.2612C44.2137 24.0836 44.005 25.0885 44.1821 26.2775L46.1181 37.7377C46.2953 38.953 46.8196 39.9455 47.6929 40.7171C48.5663 41.4888 49.7991 41.8746 51.3932 41.8746H53.1012C54.6953 41.8746 55.9211 41.4835 56.7822 40.6978C57.6415 39.914 58.1115 38.9144 58.1869 37.7008L59.211 24.4957L60.2352 37.7008C60.3105 38.9161 60.7788 39.9157 61.6399 40.6978C62.4991 41.4818 63.7267 41.8746 65.3208 41.8746H67.0288C68.623 41.8746 69.8488 41.4888 70.7098 40.7171C71.5691 39.9455 72.1005 38.953 72.3039 37.7377L74.2399 26.2775C74.4118 25.0902 74.2048 24.0836 73.6103 23.2612Z" fill="#00376C"/>
<path d="M125.589 30.3758C125.589 29.1114 125.385 27.9662 124.98 26.9421C124.575 25.918 123.995 25.0394 123.235 24.3046C122.476 23.5716 121.566 23.0086 120.503 22.6158C119.44 22.2247 118.251 22.0283 116.936 22.0283C115.621 22.0283 114.425 22.2686 113.35 22.7491C112.275 23.2296 111.358 23.9135 110.598 24.7991C109.839 25.6847 109.251 26.7404 108.834 27.968C108.417 29.1956 108.208 30.5547 108.208 32.047C108.208 33.5148 108.448 34.8617 108.929 36.0875C109.409 37.315 110.086 38.3707 110.958 39.2563C111.831 40.142 112.899 40.8259 114.165 41.3064C115.43 41.7869 116.834 42.0271 118.378 42.0271C118.958 42.0271 119.649 41.9763 120.445 41.8746C121.241 41.7729 122.001 41.5835 122.721 41.3064C123.442 41.0275 124.051 40.6365 124.543 40.1297C125.036 39.6246 125.283 38.967 125.283 38.1568C125.283 37.4746 125.048 36.9117 124.58 36.468C124.112 36.0261 123.435 35.8034 122.549 35.8034C122.094 35.8034 121.632 35.842 121.164 35.9174C120.696 35.9928 120.208 36.0314 119.703 36.0314C118.565 36.0314 117.616 35.8227 116.857 35.4053C116.098 34.9879 115.58 34.3619 115.302 33.5271H122.511C124.563 33.5254 125.589 32.4767 125.589 30.3758ZM115.153 30.111C115.203 29.2254 115.405 28.5677 115.761 28.1381C116.115 27.7085 116.582 27.4928 117.164 27.4928C118.402 27.4928 119.061 28.3661 119.137 30.111H115.153Z" fill="#00376C"/>
<path d="M140.33 22.977C139.887 22.4456 139.287 22.1808 138.528 22.1808C137.642 22.1808 136.965 22.5789 136.497 23.3768C136.029 24.173 135.618 25.4321 135.264 27.1525C135.264 27.1525 135.085 28.1118 134.762 29.4428C134.447 30.7458 133.195 31.3157 132.114 30.837C131.148 30.409 130.861 28.7185 132.009 27.9364C132.609 27.5278 134.021 27.2472 134.847 26.2143V25.825C134.847 24.6868 134.512 23.7697 133.842 23.0735C133.17 22.379 132.267 22.03 131.129 22.03C130.015 22.03 129.117 22.3772 128.435 23.0735C127.753 23.7697 127.411 24.6868 127.411 25.825V38.2339C127.411 39.3721 127.753 40.2892 128.435 40.9854C129.117 41.6816 130.015 42.0289 131.129 42.0289C132.267 42.0289 133.172 41.6816 133.842 40.9854C134.512 40.291 134.847 39.3721 134.847 38.2339V30.1285C135.099 29.9268 135.403 29.6971 135.757 29.5445C136.111 29.3919 136.478 29.2604 136.858 29.1464C137.237 29.0324 137.61 28.9377 137.977 28.8623C138.343 28.7869 138.64 28.7115 138.87 28.6344C139.704 28.3818 140.267 27.9452 140.558 27.3261C140.849 26.7071 140.993 25.9916 140.993 25.1831C140.995 24.2414 140.772 23.5084 140.33 22.977Z" fill="#00376C"/>
<path d="M18.7522 18.3964C18.3208 17.1811 17.7017 16.1324 16.8933 15.2468C16.0831 14.3612 15.0975 13.679 13.9331 13.1985C12.7687 12.718 11.4411 12.4778 9.94876 12.4778C8.45638 12.4778 7.12711 12.718 5.96442 13.1985C4.79999 13.679 3.81443 14.363 3.00424 15.2468C2.19404 16.1324 1.575 17.1829 1.14535 18.3964C0.713947 19.6099 0.5 20.9638 0.5 22.4561C0.5 23.924 0.713947 25.276 1.14535 26.5159C1.575 27.7557 2.1958 28.8114 3.00424 29.6848C3.81443 30.5581 4.79999 31.2403 5.96442 31.733C7.12711 32.2258 8.45463 32.4731 9.94876 32.4731C11.4411 32.4731 12.7687 32.2258 13.9331 31.733C15.0958 31.2403 16.0831 30.5563 16.8933 29.6848C17.7035 28.8114 18.3225 27.7557 18.7522 26.5159C19.1818 25.276 19.3975 23.924 19.3975 22.4561C19.3975 20.9655 19.1818 19.6099 18.7522 18.3964ZM11.485 25.6829C11.1693 26.4668 10.6555 26.8596 9.94876 26.8596C9.24027 26.8596 8.7282 26.4685 8.41254 25.6829C8.09688 24.899 7.9373 23.824 7.9373 22.4579C7.9373 21.0918 8.09513 20.0221 8.41254 19.2504C8.7282 18.4788 9.24027 18.093 9.94876 18.093C10.6572 18.093 11.1693 18.4788 11.485 19.2504C11.8006 20.0221 11.9585 21.09 11.9585 22.4579C11.9585 23.824 11.8006 24.899 11.485 25.6829Z" fill="#00376C"/>
<path d="M32.8867 31.4315C33.5566 32.126 34.4614 32.4749 35.5996 32.4749C36.7132 32.4749 37.611 32.1259 38.2932 31.4315C38.9754 30.7353 39.3174 29.8181 39.3174 28.68V17.5232C39.3174 15.9291 38.8737 14.691 37.9881 13.8036C37.1025 12.918 35.8504 12.4744 34.2317 12.4744C33.397 12.4744 32.6692 12.6147 32.0502 12.8917C31.4294 13.1706 30.905 13.5686 30.4754 14.0877C30.044 14.6068 29.6915 15.2399 29.4126 15.9852C29.1619 16.6604 28.9532 17.4162 28.7848 18.2457C28.7463 18.5666 28.7305 18.8121 28.7305 19.0015C28.9321 18.7735 29.1671 18.5648 29.4319 18.3755C29.6967 18.1861 30.0457 18.0914 30.4754 18.0914C31.4118 18.0914 31.8783 18.521 31.8783 19.3803V28.6782C31.8818 29.8199 32.2168 30.7353 32.8867 31.4315Z" fill="#00376C"/>
<path d="M28.7326 28.6799V22.5596C28.2819 23.0875 27.5857 23.2418 26.9018 23.1138C25.6128 22.8735 25.078 21.3724 25.8338 20.1536C26.3213 19.3662 27.0298 18.9155 27.5857 18.2964C28.0171 17.8142 28.3573 17.3617 28.7344 16.4586V16.2727C28.7344 15.1346 28.3994 14.2174 27.7295 13.5212C27.0596 12.8268 26.1547 12.4778 25.0166 12.4778C23.903 12.4778 23.0051 12.8268 22.323 13.5212C21.639 14.2174 21.2988 15.1346 21.2988 16.2727V28.6817C21.2988 29.8198 21.6408 30.737 22.323 31.4332C23.0069 32.1276 23.9048 32.4766 25.0166 32.4766C26.1547 32.4766 27.0596 32.1276 27.7295 31.4332C28.3959 30.7352 28.7326 29.818 28.7326 28.6799Z" fill="#00376C"/>
<path d="M6.07998 47.8527C5.98879 48.2631 5.91163 48.7454 5.83797 49.2031C5.75731 48.7454 5.67488 48.2614 5.57492 47.8527L5.02953 45.6414H4.07378L3.52489 47.8527C3.42317 48.2666 3.34426 48.7541 3.26184 49.2153C3.18994 48.7541 3.11102 48.2648 3.01983 47.8527L2.49899 45.6414H1.49414L2.70066 50.1342H3.75286L4.34736 47.837C4.43504 47.4967 4.4894 47.1372 4.54727 46.7637C4.6104 47.1495 4.67178 47.5143 4.75245 47.837L5.35045 50.1342H6.39915L7.60918 45.6414H6.60257L6.07998 47.8527Z" fill="#00376C"/>
<path d="M9.36095 46.7217C8.60687 46.7217 8.06499 47.0566 7.89137 47.6423L8.72086 47.7809C8.79276 47.5634 9.00671 47.3916 9.35744 47.3916C9.6959 47.3916 9.88529 47.5547 9.88529 47.8405V47.8563C9.88529 48.0773 9.6468 48.1 9.06808 48.1579C8.4052 48.2211 7.79492 48.4385 7.79492 49.1926C7.79492 49.8589 8.27367 50.2027 8.91727 50.2027C9.41531 50.2027 9.73974 49.9835 9.90283 49.6696H9.93264V50.1378H10.7884V47.8668C10.7902 47.0479 10.0835 46.7217 9.36095 46.7217ZM9.89056 48.9295C9.89056 49.2855 9.59418 49.5661 9.17331 49.5661C8.87518 49.5661 8.66299 49.4311 8.66299 49.168C8.66299 48.8962 8.8857 48.7664 9.22065 48.7191C9.41882 48.691 9.77832 48.6437 9.89056 48.5648V48.9295Z" fill="#00376C"/>
<path d="M13.6225 48.1842L13.0158 48.0632C12.6966 47.9966 12.5809 47.8791 12.5809 47.7107C12.5809 47.509 12.8106 47.3705 13.1052 47.3705C13.4332 47.3705 13.6243 47.5336 13.6962 47.7633L14.4994 47.6213C14.3731 47.0724 13.8926 46.7234 13.0947 46.7234C12.2407 46.7234 11.6777 47.1215 11.6777 47.7703C11.6777 48.2736 11.9969 48.5928 12.6493 48.7261L13.2315 48.8471C13.5278 48.9067 13.6664 49.0154 13.6664 49.1943C13.6664 49.396 13.4524 49.5416 13.1087 49.5416C12.7369 49.5416 12.5212 49.3872 12.4336 49.0716L11.5918 49.2171C11.7093 49.8449 12.267 50.2062 13.0824 50.2062C13.9663 50.2062 14.5906 49.7625 14.5906 49.0996C14.5888 48.6156 14.2749 48.3175 13.6225 48.1842Z" fill="#00376C"/>
<path d="M17.2612 48.1842L16.6544 48.0632C16.3353 47.9966 16.2195 47.8791 16.2195 47.7107C16.2195 47.509 16.4493 47.3705 16.7439 47.3705C17.0718 47.3705 17.263 47.5336 17.3349 47.7633L18.1381 47.6213C18.0118 47.0724 17.5313 46.7234 16.7334 46.7234C15.8793 46.7234 15.3164 47.1215 15.3164 47.7703C15.3164 48.2736 15.6356 48.5928 16.2879 48.7261L16.8701 48.8471C17.1665 48.9067 17.3051 49.0154 17.3051 49.1943C17.3051 49.396 17.0911 49.5416 16.7474 49.5416C16.3756 49.5416 16.1599 49.3872 16.0722 49.0716L15.2305 49.2171C15.348 49.8449 15.9056 50.2062 16.7211 50.2062C17.6049 50.2062 18.2292 49.7625 18.2292 49.0996C18.2257 48.6156 17.9118 48.3175 17.2612 48.1842Z" fill="#00376C"/>
<path d="M20.4954 46.7217C19.5098 46.7217 18.875 47.4266 18.875 48.4683C18.875 49.5328 19.5081 50.2027 20.5392 50.2027C21.3231 50.2027 21.8597 49.838 22.0263 49.2768L21.2056 49.1224C21.1092 49.382 20.8707 49.5205 20.555 49.5205C20.0991 49.5205 19.7922 49.2364 19.7711 48.6858H22.0789V48.4332C22.0789 47.2793 21.3757 46.7217 20.4954 46.7217ZM19.7781 48.1176C19.815 47.702 20.0728 47.4021 20.5042 47.4021C20.9233 47.4021 21.1618 47.6757 21.2074 48.1176H19.7781Z" fill="#00376C"/>
<path d="M23.7918 47.353H23.755V46.7656H22.8799V50.1379H23.7848V48.2194C23.7848 47.8002 24.0899 47.5144 24.5055 47.5144C24.6388 47.5144 24.8159 47.5354 24.8984 47.56V46.7515C24.8177 46.734 24.6984 46.7217 24.6055 46.7217C24.2267 46.7182 23.9163 46.9356 23.7918 47.353Z" fill="#00376C"/>
<path d="M29.9208 47.8527C29.8296 48.2631 29.7524 48.7454 29.6788 49.2031C29.5981 48.7454 29.5157 48.2614 29.4157 47.8527L28.8704 45.6414H27.9146L27.3657 47.8527C27.264 48.2666 27.1851 48.7541 27.1027 49.2153C27.0308 48.7541 26.9518 48.2648 26.8607 47.8527L26.3398 45.6414H25.335L26.5415 50.1342H27.5937L28.1882 47.837C28.2759 47.4967 28.3302 47.1372 28.3881 46.7637C28.4512 47.1495 28.5126 47.5143 28.5933 47.837L29.1913 50.1342H30.24L31.45 45.6414H30.4434L29.9208 47.8527Z" fill="#00376C"/>
<rect x="32.1699" y="46.7639" width="0.904892" height="3.3723" fill="#00376C"/>
<path d="M32.6221 45.3943C32.3485 45.3943 32.124 45.603 32.124 45.859C32.124 46.1185 32.3467 46.3237 32.6221 46.3237C32.8939 46.3237 33.1201 46.1185 33.1201 45.859C33.1201 45.603 32.8939 45.3943 32.6221 45.3943Z" fill="#00376C"/>
<path d="M35.9097 48.1842L35.3029 48.0632C34.9837 47.9966 34.868 47.8791 34.868 47.7107C34.868 47.509 35.0977 47.3705 35.3923 47.3705C35.7203 47.3705 35.9114 47.5336 35.9833 47.7633L36.7865 47.6213C36.6602 47.0724 36.1797 46.7234 35.3818 46.7234C34.5278 46.7234 33.9648 47.1215 33.9648 47.7703C33.9648 48.2736 34.284 48.5928 34.9364 48.7261L35.5186 48.8471C35.815 48.9067 35.9535 49.0154 35.9535 49.1943C35.9535 49.396 35.7395 49.5416 35.3958 49.5416C35.0241 49.5416 34.8083 49.3872 34.7207 49.0716L33.8789 49.2171C33.9964 49.8449 34.5541 50.2062 35.3695 50.2062C36.2534 50.2062 36.8777 49.7625 36.8777 49.0996C36.8742 48.6156 36.562 48.3175 35.9097 48.1842Z" fill="#00376C"/>
<path d="M39.5493 48.1842L38.9425 48.0632C38.6234 47.9966 38.5076 47.8791 38.5076 47.7107C38.5076 47.509 38.7374 47.3705 39.032 47.3705C39.3599 47.3705 39.5511 47.5336 39.623 47.7633L40.4261 47.6213C40.2999 47.0724 39.8194 46.7234 39.0215 46.7234C38.1674 46.7234 37.6045 47.1215 37.6045 47.7703C37.6045 48.2736 37.9236 48.5928 38.576 48.7261L39.1582 48.8471C39.4546 48.9067 39.5931 49.0154 39.5931 49.1943C39.5931 49.396 39.3792 49.5416 39.0355 49.5416C38.6637 49.5416 38.448 49.3872 38.3603 49.0716L37.5186 49.2171C37.636 49.8449 38.1937 50.2062 39.0092 50.2062C39.893 50.2062 40.5173 49.7625 40.5173 49.0996C40.5138 48.6156 40.1999 48.3175 39.5493 48.1842Z" fill="#00376C"/>
<path d="M42.7825 46.7217C41.7969 46.7217 41.1621 47.4266 41.1621 48.4683C41.1621 49.5328 41.7952 50.2027 42.8264 50.2027C43.6102 50.2027 44.1469 49.838 44.3134 49.2768L43.4927 49.1224C43.3963 49.382 43.1578 49.5205 42.8421 49.5205C42.3862 49.5205 42.0793 49.2364 42.0582 48.6858H44.3661V48.4332C44.3661 47.2793 43.6628 46.7217 42.7825 46.7217ZM42.0652 48.1176C42.1021 47.702 42.3599 47.4021 42.7913 47.4021C43.2104 47.4021 43.4489 47.6757 43.4945 48.1176H42.0652Z" fill="#00376C"/>
<path d="M47.084 46.7217C46.5649 46.7217 46.2246 46.99 46.0352 47.46L46.023 46.7637H45.1689V50.136H46.0739V48.1842C46.0739 47.7388 46.3421 47.4792 46.728 47.4792C47.1085 47.4792 47.3365 47.73 47.3365 48.1492V50.136H48.2414V47.9913C48.2414 47.2022 47.7837 46.7217 47.084 46.7217Z" fill="#00376C"/>
<path d="M51.2998 45.3943C51.0262 45.3943 50.8018 45.603 50.8018 45.859C50.8018 46.1185 51.0245 46.3237 51.2998 46.3237C51.5716 46.3237 51.7979 46.1185 51.7979 45.859C51.7961 45.603 51.5699 45.3943 51.2998 45.3943Z" fill="#00376C"/>
<rect x="50.8477" y="46.7639" width="0.904892" height="3.3723" fill="#00376C"/>
<path d="M54.6142 46.7217C54.0952 46.7217 53.7549 46.99 53.5656 47.46L53.5533 46.7637H52.6992V50.136H53.6041V48.1842C53.6041 47.7388 53.8724 47.4792 54.2582 47.4792C54.6388 47.4792 54.8668 47.73 54.8668 48.1492V50.136H55.7716V47.9913C55.7716 47.2022 55.3139 46.7217 54.6142 46.7217Z" fill="#00376C"/>
<path d="M60.8573 47.8071V47.7615C61.3185 47.6599 61.6657 47.3301 61.6657 46.797C61.6657 46.1254 61.1677 45.6414 60.1821 45.6414H58.4004V50.1342H60.2979C61.3115 50.1342 61.8411 49.6064 61.8411 48.8944C61.8394 48.2298 61.3624 47.8317 60.8573 47.8071ZM59.3193 46.3937H60.0646C60.496 46.3937 60.7346 46.6164 60.7346 46.9461C60.7346 47.3073 60.4417 47.5318 60.0471 47.5318H59.3211V46.3937H59.3193ZM60.1155 49.3784H59.3193V48.1596H60.14C60.6013 48.1596 60.8941 48.4315 60.8941 48.8085C60.8924 49.1487 60.6539 49.3784 60.1155 49.3784Z" fill="#00376C"/>
<path d="M64.1263 46.7217C63.1407 46.7217 62.5059 47.4266 62.5059 48.4683C62.5059 49.5328 63.1389 50.2027 64.1701 50.2027C64.954 50.2027 65.4906 49.838 65.6572 49.2768L64.8365 49.1224C64.7401 49.382 64.5015 49.5205 64.1859 49.5205C63.7299 49.5205 63.423 49.2364 63.402 48.6858H65.7098V48.4332C65.7098 47.2793 65.0084 46.7217 64.1263 46.7217ZM63.409 48.1176C63.4458 47.702 63.7036 47.4021 64.135 47.4021C64.5541 47.4021 64.7927 47.6757 64.8383 48.1176H63.409Z" fill="#00376C"/>
<path d="M67.4255 47.353H67.3887V46.7656H66.5137V50.1379H67.4185V48.2194C67.4185 47.8002 67.7237 47.5144 68.1393 47.5144C68.2726 47.5144 68.4497 47.5354 68.5321 47.56V46.7515C68.4514 46.734 68.3322 46.7217 68.2393 46.7217C67.8587 46.7182 67.5483 46.9356 67.4255 47.353Z" fill="#00376C"/>
<rect x="69.3066" y="45.6414" width="0.904892" height="4.49289" fill="#00376C"/>
<path d="M71.6113 45.3943C71.3378 45.3943 71.1133 45.603 71.1133 45.859C71.1133 46.1185 71.336 46.3237 71.6113 46.3237C71.8831 46.3237 72.1094 46.1185 72.1094 45.859C72.1094 45.603 71.8831 45.3943 71.6113 45.3943Z" fill="#00376C"/>
<rect x="71.1602" y="46.7639" width="0.904892" height="3.3723" fill="#00376C"/>
<path d="M74.9345 46.7217C74.4155 46.7217 74.0752 46.99 73.8858 47.46L73.8736 46.7637H73.0195V50.136H73.9244V48.1842C73.9244 47.7388 74.1927 47.4792 74.5786 47.4792C74.9591 47.4792 75.1871 47.73 75.1871 48.1492V50.136H76.0919V47.9913C76.0919 47.2022 75.6325 46.7217 74.9345 46.7217Z" fill="#00376C"/>
<path d="M140.13 9.84565C138.571 9.84565 137.01 9.84565 135.425 9.84565C135.425 8.28313 135.425 6.75569 135.425 5.20895C132.309 5.20895 129.217 5.20895 126.113 5.20895C124.575 6.74516 123.027 8.29365 121.492 9.82811C118.371 9.82811 115.277 9.82811 112.166 9.82811C113.697 8.30242 115.216 6.78901 116.733 5.27559C116.717 5.25279 116.703 5.23 116.687 5.20545C113.608 5.20545 110.528 5.20545 107.43 5.20545C107.217 4.98799 107.011 4.77229 106.8 4.56185C105.53 3.29395 104.261 2.0278 102.993 0.758147C102.914 0.679232 102.86 0.577519 102.793 0.486328C105.899 0.486328 109.006 0.486328 112.112 0.486328C112.124 0.51088 112.131 0.540692 112.151 0.559982C113.682 2.08567 115.212 3.61136 116.745 5.14056C119.868 5.14056 122.993 5.14056 126.117 5.14056C127.651 3.61312 129.182 2.08743 130.711 0.559983C130.731 0.540692 130.738 0.51088 130.75 0.486328C130.769 0.486328 130.789 0.486328 130.808 0.486328C130.86 0.552968 130.908 0.624868 130.967 0.684493C133.954 3.66748 136.94 6.64871 139.929 9.62819C139.988 9.68782 140.06 9.73517 140.127 9.78778C140.13 9.80707 140.13 9.82636 140.13 9.84565Z" fill="#00376C"/>
</svg>
