<svg width="962" height="268" viewBox="0 0 962 268" fill="none" xmlns="http://www.w3.org/2000/svg">
<path d="M41.2553 231.398L35.4168 255.959H35.1074L28.6833 231.398H21.7089L15.2672 255.906H14.9734L9.13491 231.398H0.989258L11.0817 266.67H18.3499L25.0482 243.608H25.3244L32.0422 266.67H39.3085L49.4009 231.398H41.2553Z" fill="white"/>
<mask id="mask0_1_701" style="mask-type:alpha" maskUnits="userSpaceOnUse" x="0" y="0" width="962" height="268">
<rect x="0.078125" width="961.843" height="267.187" fill="#D9D9D9"/>
</mask>
<g mask="url(#mask0_1_701)">
<path d="M59.4736 267.169C57.7853 267.169 56.2811 266.875 54.963 266.282C53.641 265.69 52.599 264.813 51.8352 263.648C51.0733 262.482 50.6914 261.027 50.6914 259.282C50.6914 257.813 50.9617 256.579 51.5003 255.578C52.0389 254.579 52.7753 253.776 53.7037 253.169C54.636 252.56 55.6936 252.1 56.8824 251.788C58.0693 251.479 59.3189 251.262 60.6291 251.134C62.1666 250.974 63.4064 250.823 64.3484 250.68C65.2886 250.537 65.9721 250.32 66.3971 250.034C66.8221 249.746 67.0356 249.323 67.0356 248.761V248.657C67.0356 247.564 66.6928 246.722 66.0093 246.124C65.3277 245.527 64.3582 245.229 63.1087 245.229C61.7867 245.229 60.7369 245.517 59.9554 246.097C59.1759 246.679 58.6588 247.403 58.4062 248.275L51.6198 247.724C51.9645 246.118 52.6421 244.726 53.6528 243.549C54.6634 242.374 55.9697 241.465 57.5718 240.828C59.172 240.192 61.0306 239.871 63.142 239.871C64.6129 239.871 66.0211 240.043 67.3705 240.39C68.72 240.734 69.9186 241.267 70.9703 241.99C72.0201 242.714 72.8505 243.641 73.4577 244.771C74.0668 245.903 74.3724 247.254 74.3724 248.829V266.67H67.4136V263.001H67.206C66.7829 263.828 66.213 264.554 65.502 265.179C64.7911 265.806 63.9352 266.294 62.9363 266.642C61.9375 266.995 60.7839 267.169 59.4736 267.169ZM61.5751 262.106C62.6543 262.106 63.6081 261.891 64.4346 261.46C65.2611 261.029 65.9094 260.447 66.3814 259.711C66.8515 258.976 67.0865 258.146 67.0865 257.216V254.407C66.8574 254.558 66.544 254.693 66.1464 254.812C65.7508 254.934 65.3062 255.044 64.8126 255.14C64.3191 255.237 63.8255 255.324 63.332 255.398C62.8384 255.472 62.3918 255.537 61.9884 255.596C61.1266 255.721 60.3765 255.923 59.7321 256.197C59.0897 256.473 58.5903 256.843 58.2338 257.31C57.8774 257.774 57.6991 258.352 57.6991 259.041C57.6991 260.038 58.0654 260.8 58.794 261.323C59.5226 261.844 60.449 262.106 61.5751 262.106Z" fill="white"/>
<path d="M103.488 247.76L96.7722 248.173C96.6567 247.599 96.4099 247.08 96.0319 246.616C95.6519 246.15 95.1564 245.776 94.5414 245.496C93.9284 245.214 93.1959 245.074 92.3459 245.074C91.208 245.074 90.2502 245.311 89.4688 245.787C88.6893 246.265 88.2995 246.9 88.2995 247.691C88.2995 248.324 88.5522 248.858 89.0555 249.293C89.5608 249.73 90.4285 250.081 91.6565 250.343L96.4452 251.309C99.0167 251.835 100.934 252.687 102.197 253.857C103.459 255.028 104.091 256.567 104.091 258.473C104.091 260.204 103.582 261.728 102.568 263.036C101.551 264.345 100.163 265.363 98.3998 266.092C96.6371 266.82 94.608 267.187 92.3106 267.187C88.8087 267.187 86.0237 266.454 83.9496 264.991C81.8774 263.528 80.6631 261.532 80.3086 259.006L87.5239 258.628C87.7413 259.695 88.2701 260.508 89.1084 261.064C89.9447 261.62 91.02 261.9 92.3283 261.9C93.6131 261.9 94.6511 261.65 95.4365 261.15C96.2238 260.651 96.6234 260.005 96.6332 259.213C96.6234 258.547 96.3414 257.999 95.791 257.568C95.2387 257.137 94.3887 256.808 93.241 256.579L88.6599 255.664C86.0765 255.147 84.1572 254.252 82.8998 252.979C81.6424 251.704 81.0137 250.081 81.0137 248.104C81.0137 246.406 81.4759 244.943 82.4003 243.713C83.3248 242.485 84.6272 241.537 86.3096 240.871C87.9901 240.207 89.9623 239.873 92.2264 239.873C95.5658 239.873 98.1981 240.58 100.121 241.992C102.045 243.402 103.167 245.327 103.488 247.76Z" fill="white"/>
<path d="M132.14 247.76L125.424 248.173C125.308 247.599 125.061 247.08 124.683 246.616C124.303 246.15 123.808 245.776 123.193 245.496C122.58 245.214 121.847 245.074 120.997 245.074C119.859 245.074 118.902 245.311 118.12 245.787C117.341 246.265 116.951 246.9 116.951 247.691C116.951 248.324 117.204 248.858 117.707 249.293C118.212 249.73 119.08 250.081 120.308 250.343L125.097 251.309C127.668 251.835 129.586 252.687 130.849 253.857C132.11 255.028 132.743 256.567 132.743 258.473C132.743 260.204 132.234 261.728 131.219 263.036C130.203 264.345 128.814 265.363 127.051 266.092C125.288 266.82 123.259 267.187 120.962 267.187C117.46 267.187 114.675 266.454 112.601 264.991C110.529 263.528 109.314 261.532 108.96 259.006L116.175 258.628C116.393 259.695 116.922 260.508 117.76 261.064C118.596 261.62 119.671 261.9 120.98 261.9C122.264 261.9 123.302 261.65 124.088 261.15C124.875 260.651 125.275 260.005 125.285 259.213C125.275 258.547 124.993 257.999 124.442 257.568C123.89 257.137 123.04 256.808 121.892 256.579L117.311 255.664C114.728 255.147 112.809 254.252 111.551 252.979C110.294 251.704 109.665 250.081 109.665 248.104C109.665 246.406 110.127 244.943 111.052 243.713C111.976 242.485 113.279 241.537 114.961 240.871C116.641 240.207 118.614 239.873 120.878 239.873C124.217 239.873 126.849 240.58 128.773 241.992C130.696 243.402 131.818 245.327 132.14 247.76Z" fill="white"/>
<path d="M150.836 267.187C148.116 267.187 145.777 266.634 143.819 265.524C141.86 264.417 140.354 262.845 139.298 260.806C138.241 258.769 137.714 256.354 137.714 253.565C137.714 250.842 138.241 248.457 139.298 246.4C140.354 244.346 141.844 242.744 143.768 241.596C145.691 240.448 147.949 239.873 150.544 239.873C152.289 239.873 153.917 240.151 155.427 240.707C156.935 241.265 158.257 242.099 159.387 243.214C160.517 244.328 161.401 245.725 162.031 247.407C162.662 249.09 162.977 251.056 162.977 253.306V255.32H140.64V250.774H156.071C156.071 249.718 155.842 248.784 155.384 247.967C154.924 247.153 154.289 246.512 153.48 246.046C152.671 245.582 151.733 245.351 150.664 245.351C149.551 245.351 148.566 245.603 147.71 246.114C146.854 246.628 146.187 247.311 145.705 248.165C145.223 249.021 144.974 249.971 144.964 251.015V255.337C144.964 256.648 145.207 257.778 145.695 258.731C146.185 259.683 146.876 260.418 147.771 260.937C148.666 261.452 149.73 261.71 150.958 261.71C151.772 261.71 152.519 261.597 153.196 261.366C153.874 261.137 154.454 260.792 154.935 260.332C155.417 259.873 155.785 259.311 156.038 258.645L162.823 259.092C162.478 260.723 161.775 262.143 160.713 263.356C159.652 264.566 158.285 265.508 156.614 266.178C154.943 266.852 153.018 267.187 150.836 267.187Z" fill="white"/>
<path d="M169.22 266.67V240.215H176.333V244.834H176.607C177.091 243.19 177.9 241.947 179.036 241.103C180.174 240.26 181.482 239.837 182.963 239.837C183.331 239.837 183.727 239.861 184.152 239.906C184.577 239.951 184.949 240.018 185.27 240.096V246.606C184.927 246.502 184.449 246.41 183.842 246.33C183.233 246.25 182.677 246.211 182.172 246.211C181.093 246.211 180.131 246.444 179.287 246.908C178.443 247.372 177.777 248.018 177.289 248.845C176.801 249.671 176.557 250.625 176.557 251.702V266.67H169.22Z" fill="white"/>
<path d="M198.526 266.67L188.434 231.398H196.579L202.418 255.906H202.712L209.153 231.398H216.128L222.552 255.957H222.861L228.7 231.398H236.845L226.753 266.67H219.487L212.769 243.61H212.493L205.794 266.67H198.526Z" fill="white"/>
<path d="M245.826 236.807C244.736 236.807 243.801 236.447 243.028 235.722C242.252 234.998 241.864 234.126 241.864 233.106C241.864 232.083 242.254 231.208 243.035 230.479C243.817 229.749 244.747 229.385 245.826 229.385C246.917 229.385 247.85 229.747 248.625 230.47C249.399 231.192 249.787 232.064 249.787 233.088C249.787 234.109 249.399 234.986 248.625 235.715C247.85 236.443 246.917 236.807 245.826 236.807ZM242.14 240.215H249.477V266.67H242.14V240.215Z" fill="white"/>
<path d="M278.797 247.76L272.081 248.173C271.965 247.599 271.718 247.08 271.341 246.616C270.961 246.15 270.465 245.776 269.85 245.496C269.237 245.214 268.504 245.074 267.654 245.074C266.517 245.074 265.559 245.311 264.777 245.787C263.998 246.265 263.608 246.9 263.608 247.691C263.608 248.324 263.861 248.858 264.364 249.293C264.869 249.73 265.737 250.081 266.965 250.343L271.754 251.309C274.325 251.835 276.243 252.687 277.506 253.857C278.767 255.028 279.4 256.567 279.4 258.473C279.4 260.204 278.891 261.728 277.876 263.036C276.86 264.345 275.471 265.363 273.708 266.092C271.946 266.82 269.917 267.187 267.619 267.187C264.117 267.187 261.332 266.454 259.258 264.991C257.186 263.528 255.972 261.532 255.617 259.006L262.832 258.628C263.05 259.695 263.579 260.508 264.417 261.064C265.253 261.62 266.329 261.9 267.637 261.9C268.922 261.9 269.96 261.65 270.745 261.15C271.532 260.651 271.932 260.005 271.942 259.213C271.932 258.547 271.65 257.999 271.1 257.568C270.547 257.137 269.697 256.808 268.55 256.579L263.968 255.664C261.385 255.147 259.466 254.252 258.208 252.979C256.951 251.704 256.322 250.081 256.322 248.104C256.322 246.406 256.784 244.943 257.709 243.713C258.633 242.485 259.936 241.537 261.618 240.871C263.299 240.207 265.271 239.873 267.535 239.873C270.874 239.873 273.507 240.58 275.43 241.992C277.353 243.402 278.476 245.327 278.797 247.76Z" fill="white"/>
<path d="M307.447 247.76L300.731 248.173C300.616 247.599 300.369 247.08 299.991 246.616C299.611 246.15 299.115 245.776 298.5 245.496C297.887 245.214 297.155 245.074 296.305 245.074C295.167 245.074 294.209 245.311 293.428 245.787C292.648 246.265 292.259 246.9 292.259 247.691C292.259 248.324 292.511 248.858 293.015 249.293C293.522 249.73 294.387 250.081 295.616 250.343L300.404 251.309C302.976 251.835 304.893 252.687 306.156 253.857C307.418 255.028 308.05 256.567 308.05 258.473C308.05 260.204 307.541 261.728 306.527 263.036C305.51 264.345 304.122 265.363 302.359 266.092C300.596 266.82 298.567 267.187 296.27 267.187C292.768 267.187 289.985 266.454 287.909 264.991C285.836 263.528 284.622 261.532 284.268 259.006L291.483 258.628C291.7 259.695 292.229 260.508 293.067 261.064C293.904 261.62 294.979 261.9 296.287 261.9C297.574 261.9 298.61 261.65 299.397 261.15C300.183 260.651 300.582 260.005 300.592 259.213C300.582 258.547 300.3 257.999 299.752 257.568C299.198 257.137 298.348 256.808 297.2 256.579L292.619 255.664C290.036 255.147 288.116 254.252 286.859 252.979C285.601 251.704 284.973 250.081 284.973 248.104C284.973 246.406 285.435 244.943 286.359 243.713C287.284 242.485 288.586 241.537 290.269 240.871C291.949 240.207 293.921 239.873 296.185 239.873C299.525 239.873 302.157 240.58 304.08 241.992C306.004 243.402 307.126 245.327 307.447 247.76Z" fill="white"/>
<path d="M326.145 267.187C323.424 267.187 321.086 266.634 319.127 265.524C317.169 264.417 315.663 262.845 314.607 260.806C313.549 258.769 313.022 256.354 313.022 253.565C313.022 250.842 313.549 248.457 314.607 246.4C315.663 244.346 317.153 242.744 319.076 241.596C321 240.448 323.258 239.873 325.853 239.873C327.598 239.873 329.226 240.151 330.736 240.707C332.244 241.265 333.566 242.099 334.696 243.214C335.826 244.328 336.709 245.725 337.34 247.407C337.971 249.09 338.286 251.056 338.286 253.306V255.32H315.949V250.774H331.38C331.38 249.718 331.151 248.784 330.693 247.967C330.232 247.153 329.598 246.512 328.789 246.046C327.98 245.582 327.042 245.351 325.972 245.351C324.86 245.351 323.875 245.603 323.019 246.114C322.163 246.628 321.495 247.311 321.013 248.165C320.532 249.021 320.283 249.971 320.273 251.015V255.337C320.273 256.648 320.516 257.778 321.004 258.731C321.493 259.683 322.185 260.418 323.08 260.937C323.975 261.452 325.038 261.71 326.266 261.71C327.081 261.71 327.827 261.597 328.505 261.366C329.183 261.137 329.762 260.792 330.244 260.332C330.726 259.873 331.094 259.311 331.347 258.645L338.131 259.092C337.786 260.723 337.083 262.143 336.022 263.356C334.96 264.566 333.593 265.508 331.923 266.178C330.252 266.852 328.327 267.187 326.145 267.187Z" fill="white"/>
<path d="M351.865 251.377V266.672H344.528V240.217H351.52V244.886H351.83C352.415 243.345 353.399 242.127 354.775 241.224C356.152 240.323 357.823 239.873 359.787 239.873C361.625 239.873 363.225 240.276 364.592 241.079C365.959 241.882 367.02 243.028 367.778 244.514C368.536 246.001 368.914 247.771 368.914 249.828V266.672H361.578V251.136C361.589 249.518 361.176 248.251 360.338 247.339C359.5 246.426 358.346 245.97 356.877 245.97C355.89 245.97 355.018 246.183 354.268 246.606C353.516 247.031 352.931 247.65 352.511 248.459C352.092 249.268 351.877 250.241 351.865 251.377Z" fill="white"/>
<path d="M392.525 236.807C391.436 236.807 390.501 236.447 389.728 235.722C388.952 234.998 388.564 234.126 388.564 233.106C388.564 232.083 388.954 231.208 389.736 230.479C390.517 229.749 391.447 229.385 392.525 229.385C393.618 229.385 394.55 229.747 395.325 230.47C396.099 231.192 396.487 232.064 396.487 233.088C396.487 234.109 396.099 234.986 395.325 235.715C394.55 236.443 393.618 236.807 392.525 236.807ZM388.841 240.215H396.177V266.67H388.841V240.215Z" fill="white"/>
<path d="M410.774 251.377V266.672H403.438V240.217H410.43V244.886H410.739C411.325 243.345 412.308 242.127 413.685 241.224C415.062 240.323 416.732 239.873 418.697 239.873C420.534 239.873 422.134 240.276 423.501 241.079C424.868 241.882 425.93 243.028 426.688 244.514C427.445 246.001 427.823 247.771 427.823 249.828V266.672H420.487V251.136C420.499 249.518 420.085 248.251 419.247 247.339C418.409 246.426 417.255 245.97 415.786 245.97C414.799 245.97 413.928 246.183 413.177 246.606C412.425 247.031 411.84 247.65 411.421 248.459C411.001 249.268 410.786 250.241 410.774 251.377Z" fill="white"/>
<path d="M447.887 266.67V231.398H462.006C464.605 231.398 466.765 231.784 468.503 232.553C470.236 233.323 471.54 234.389 472.412 235.748C473.283 237.109 473.72 238.672 473.72 240.443C473.72 241.819 473.444 243.028 472.894 244.066C472.343 245.106 471.585 245.954 470.63 246.616C469.668 247.276 468.575 247.742 467.347 248.018V248.363C468.689 248.422 469.952 248.8 471.127 249.501C472.304 250.2 473.26 251.179 473.994 252.437C474.729 253.692 475.097 255.189 475.097 256.924C475.097 258.794 474.635 260.461 473.712 261.924C472.786 263.389 471.421 264.547 469.619 265.397C467.817 266.245 465.594 266.67 462.956 266.67H447.887ZM455.343 246.16H460.87C461.892 246.16 462.803 245.977 463.602 245.615C464.397 245.255 465.028 244.742 465.496 244.074C465.962 243.408 466.191 242.611 466.191 241.68C466.191 240.407 465.745 239.379 464.842 238.598C463.939 237.818 462.66 237.428 461.009 237.428H455.343V246.16ZM455.343 260.573H461.422C463.502 260.573 465.016 260.175 465.97 259.378C466.922 258.579 467.4 257.513 467.4 256.182C467.4 255.206 467.163 254.344 466.693 253.598C466.223 252.854 465.553 252.266 464.685 251.841C463.82 251.416 462.787 251.205 461.593 251.205H455.343V260.573Z" fill="white"/>
<path d="M493.31 267.187C490.587 267.187 488.249 266.634 486.29 265.524C484.334 264.417 482.826 262.845 481.77 260.806C480.712 258.769 480.186 256.354 480.186 253.565C480.186 250.842 480.712 248.457 481.77 246.4C482.826 244.346 484.316 242.744 486.239 241.596C488.163 240.448 490.421 239.873 493.018 239.873C494.761 239.873 496.389 240.151 497.899 240.707C499.409 241.265 500.729 242.099 501.859 243.214C502.989 244.328 503.872 245.725 504.503 247.407C505.136 249.09 505.451 251.056 505.451 253.306V255.32H483.114V250.774H498.545C498.545 249.718 498.316 248.784 497.856 247.967C497.397 247.153 496.763 246.512 495.954 246.046C495.145 245.582 494.205 245.351 493.138 245.351C492.023 245.351 491.04 245.603 490.182 246.114C489.328 246.628 488.66 247.311 488.176 248.165C487.695 249.021 487.448 249.971 487.436 251.015V255.337C487.436 256.648 487.681 257.778 488.169 258.731C488.656 259.683 489.35 260.418 490.245 260.937C491.14 261.452 492.201 261.71 493.431 261.71C494.246 261.71 494.99 261.597 495.668 261.366C496.346 261.137 496.927 260.792 497.409 260.332C497.891 259.873 498.257 259.311 498.51 258.645L505.296 259.092C504.952 260.723 504.248 262.143 503.187 263.356C502.123 264.566 500.758 265.508 499.088 266.178C497.417 266.852 495.49 267.187 493.31 267.187Z" fill="white"/>
<path d="M511.695 266.67V240.215H518.807V244.834H519.083C519.567 243.19 520.376 241.947 521.512 241.103C522.648 240.26 523.958 239.837 525.439 239.837C525.805 239.837 526.2 239.861 526.625 239.906C527.05 239.951 527.424 240.018 527.746 240.096V246.606C527.403 246.502 526.923 246.41 526.316 246.33C525.707 246.25 525.151 246.211 524.645 246.211C523.568 246.211 522.604 246.444 521.762 246.908C520.918 247.372 520.25 248.018 519.763 248.845C519.275 249.671 519.032 250.625 519.032 251.702V266.67H511.695Z" fill="white"/>
<rect x="533.697" y="231.398" width="7.33677" height="35.2717" fill="white"/>
<path d="M552.03 236.807C550.939 236.807 550.006 236.447 549.231 235.722C548.455 234.998 548.069 234.126 548.069 233.106C548.069 232.083 548.459 231.208 549.241 230.479C550.02 229.749 550.95 229.385 552.03 229.385C553.12 229.385 554.055 229.747 554.828 230.47C555.604 231.192 555.992 232.064 555.992 233.088C555.992 234.109 555.604 234.986 554.828 235.715C554.055 236.443 553.12 236.807 552.03 236.807ZM548.345 240.215H555.682V266.67H548.345V240.215Z" fill="white"/>
<path d="M570.327 251.377V266.672H562.99V240.217H569.98V244.886H570.292C570.877 243.345 571.859 242.127 573.235 241.224C574.614 240.323 576.285 239.873 578.247 239.873C580.085 239.873 581.687 240.276 583.054 241.079C584.419 241.882 585.48 243.028 586.238 244.514C586.998 246.001 587.376 247.771 587.376 249.828V266.672H580.039V251.136C580.051 249.518 579.638 248.251 578.8 247.339C577.959 246.426 576.808 245.97 575.339 245.97C574.35 245.97 573.48 246.183 572.73 246.606C571.976 247.031 571.391 247.65 570.971 248.459C570.552 249.268 570.337 250.241 570.327 251.377Z" fill="white"/>
<path d="M80.0872 69.6758C80.0872 79.214 78.9807 86.7231 76.7753 92.1953C74.5641 97.6714 70.9878 100.408 66.0444 100.408C61.099 100.408 57.5227 97.6714 55.3154 92.1953C53.1042 86.7231 52.0035 79.214 52.0035 69.6758C52.0035 60.1376 53.1042 52.6794 55.3154 47.2894C57.5227 41.9034 61.099 39.2084 66.0444 39.2084C70.9878 39.2084 74.5641 41.9034 76.7753 47.2894C78.9807 52.6794 80.0872 60.1376 80.0872 69.6758ZM127.508 98.024C130.51 89.371 132.013 79.9229 132.013 69.6758C132.013 59.2562 130.51 49.8081 127.508 41.3295C124.503 32.8509 120.177 25.524 114.527 19.3408C108.872 13.1596 101.984 8.39047 93.8618 5.0335C85.7377 1.68044 76.4639 0 66.0444 0C55.6229 0 46.3491 1.68044 38.227 5.0335C30.1009 8.39047 23.2126 13.1596 17.5622 19.3408C11.9078 25.524 7.58137 32.8509 4.58085 41.3295C1.57642 49.8081 0.078125 59.2562 0.078125 69.6758C0.078125 79.9229 1.57642 89.371 4.58085 98.024C7.58137 106.681 11.9078 114.051 17.5622 120.146C23.2126 126.239 30.1009 131.008 38.227 134.451C46.3491 137.896 55.6229 139.616 66.0444 139.616C76.4639 139.616 85.7377 137.896 93.8618 134.451C101.984 131.008 108.872 126.239 114.527 120.146C120.177 114.051 124.503 106.681 127.508 98.024ZM197.144 25.4064C196.935 17.9678 194.624 11.9178 190.164 7.28388C185.481 2.43057 179.169 0 171.221 0C163.447 0 157.18 2.43057 152.411 7.28388C147.642 12.145 145.258 18.5436 145.258 26.4915V113.124C145.258 121.072 147.642 127.477 152.411 132.332C157.18 137.187 163.447 139.616 171.221 139.616C179.169 139.616 185.481 137.187 190.164 132.332C194.841 127.477 197.184 121.072 197.184 113.124V72.4765C193.584 75.1068 188.691 75.5005 184.4 74.2705C175.598 71.746 171.668 62.1079 176.942 53.596C183.172 43.5388 190.754 41.3374 197.049 25.379L197.144 25.4064ZM271.1 113.124V35.2345C271.1 24.1079 268.007 15.457 261.826 9.27182C255.643 3.09257 246.9 0 235.599 0C229.77 0 224.692 0.973404 220.365 2.91434C216.035 4.85919 212.372 7.6423 209.372 11.2598C206.365 14.8811 203.894 19.2977 201.953 24.5055C200.972 27.1358 200.082 29.9346 199.281 32.8999C199.507 36.5918 199.849 39.7725 200.233 42.6751C200.834 42.1717 201.43 41.6644 202.084 41.1963C203.941 39.8704 206.365 39.2084 209.372 39.2084C215.904 39.2084 219.172 42.2148 219.172 48.2178V113.124C219.172 121.072 221.511 127.477 226.194 132.332C230.871 137.187 237.189 139.616 245.137 139.616C252.907 139.616 259.178 137.187 263.945 132.332C268.716 127.477 271.1 121.072 271.1 113.124Z" fill="white"/>
<path d="M498.295 96.3062C499.529 88.0058 498.073 80.9864 493.925 75.2439C489.773 69.5072 482.751 66.634 472.863 66.634C464.737 66.634 458.424 68.667 453.921 72.7271C449.417 76.7911 446.9 82.7079 446.371 90.4775L437.893 188.501L430.474 93.9207C429.765 85.444 427.03 78.9534 422.261 74.4487C417.492 69.946 410.248 67.6936 400.537 67.6936H386.761C377.044 67.6936 369.805 69.946 365.036 74.4487C360.267 78.9534 357.527 85.444 356.824 93.9207L349.405 188.501L340.926 90.4775C340.397 82.7079 337.836 76.7911 333.245 72.7271C328.65 68.667 322.204 66.634 313.906 66.634C304.011 66.634 296.992 69.5072 292.842 75.2439C288.692 80.9864 287.232 88.0058 288.472 96.3062L301.982 176.315C303.216 184.792 306.885 191.725 312.978 197.111C319.071 202.501 327.681 205.192 338.807 205.192H350.731C361.857 205.192 370.422 202.454 376.429 196.978C382.43 191.506 385.701 184.526 386.23 176.049L393.384 83.8537L400.537 176.049C401.068 184.526 404.333 191.506 410.34 196.978C416.343 202.454 424.911 205.192 436.038 205.192H447.96C459.086 205.192 467.651 202.501 473.658 197.111C479.659 191.725 483.368 184.792 484.784 176.315L498.295 96.3062ZM621.357 198.966C626.034 194.111 628.378 187.706 628.378 179.758V116.971C628.378 99.6632 622.416 86.9463 610.495 78.8202C598.573 70.7 582.454 66.634 562.146 66.634C557.905 66.634 552.739 66.9435 546.646 67.5604C540.552 68.1813 534.632 69.4152 528.895 71.2699C523.155 73.1247 518.252 75.8647 514.192 79.4822C510.126 83.1055 508.099 87.8276 508.099 93.6563C508.099 98.6036 509.774 102.623 513.133 105.711C516.484 108.804 521.167 110.347 527.174 110.347C532.824 110.347 538.341 109.775 543.731 108.626C549.117 107.478 554.899 106.904 561.086 106.904C566.736 106.904 570.708 107.83 573.006 109.685C575.299 111.54 576.451 113.969 576.451 116.971C576.451 119.619 575.656 121.697 574.065 123.195C572.475 124.699 569.12 125.978 563.998 127.038L547.308 131.012C540.419 132.602 534.326 134.455 529.028 136.574C523.73 138.693 519.312 141.343 515.783 144.522C512.245 147.701 509.554 151.502 507.702 155.915C505.847 160.332 504.92 165.543 504.92 171.546C504.92 182.499 508.099 191.018 514.457 197.111C520.814 203.204 529.293 206.252 539.891 206.252C550.132 206.252 558.036 203.379 563.601 197.642C565.816 195.358 567.771 192.759 569.578 189.982C566.435 191.792 562.541 192.272 558.63 191.001C550.392 188.325 543.62 179.345 552.586 167.96C558.787 160.087 564.7 155.504 573.525 142.759L575.483 143.396C572.005 159.115 576.243 165.426 576.398 175.916C576.414 175.869 576.435 175.83 576.451 175.785V179.758C576.451 187.706 578.835 194.111 583.604 198.966C588.373 203.823 594.64 206.252 602.414 206.252C610.361 206.252 616.674 203.823 621.357 198.966ZM703.085 155.12V106.638H711.033C716.506 106.638 720.877 105.047 724.146 101.869C727.413 98.6898 729.048 94.2772 729.048 88.6228V87.5632C729.048 81.9128 727.413 77.4962 724.146 74.3175C720.877 71.1387 716.506 69.5484 711.033 69.5484H703.085V54.9767C703.085 51.0929 701.893 48.0473 699.509 45.8361C697.124 43.6308 693.9 42.5242 689.838 42.5242C686.303 42.5242 683.567 43.2782 681.626 44.7765C679.681 46.2807 677.652 48.2667 675.533 50.7384C673.586 53.3863 670.805 56.567 667.187 60.2746C663.564 63.9841 659.106 67.1629 653.808 69.8128L647.449 72.9915C643.032 75.2889 639.808 77.8076 637.779 80.5418C635.748 83.2818 634.732 86.8581 634.732 91.2727C634.732 95.6893 636.099 99.0462 638.839 101.34C641.577 103.637 644.801 105.139 648.508 105.844L651.158 106.107V162.272C651.158 176.405 655.087 187.268 662.947 194.859C670.805 202.454 681.8 206.252 695.931 206.252C699.64 206.252 703.481 205.942 707.457 205.324C711.429 204.703 715.093 203.557 718.45 201.88C721.803 200.204 724.543 197.906 726.665 194.992C728.784 192.078 729.843 188.327 729.843 183.732C729.843 179.142 728.784 175.651 726.665 173.268C724.543 170.884 721.629 169.161 717.92 168.101L713.681 167.308C710.324 166.603 707.721 165.365 705.867 163.598C704.012 161.836 703.085 159.008 703.085 155.12ZM809.326 123.064H781.508C781.859 116.885 783.269 112.294 785.746 109.288C788.218 106.285 791.483 104.783 795.547 104.783C804.2 104.783 808.795 110.876 809.326 123.064ZM854.363 124.919C854.363 116.088 852.947 108.095 850.122 100.942C847.296 93.7875 843.236 87.6553 837.936 82.5278C832.638 77.4081 826.281 73.4792 818.862 70.7392C811.445 68.0031 803.139 66.634 793.957 66.634C784.773 66.634 776.428 68.3145 768.923 71.6675C761.413 75.0245 755.013 79.7936 749.715 85.9729C744.415 92.158 740.31 99.53 737.396 108.095C734.481 116.663 733.024 126.155 733.024 136.574C733.024 146.819 734.701 156.226 738.058 164.789C741.411 173.358 746.139 180.732 752.232 186.911C758.325 193.096 765.785 197.863 774.618 201.218C783.447 204.571 793.25 206.252 804.026 206.252C808.086 206.252 812.902 205.895 818.464 205.192C824.029 204.483 829.326 203.159 834.36 201.218C839.393 199.276 843.632 196.541 847.077 193.004C850.52 189.475 852.242 184.884 852.242 179.228C852.242 174.459 850.608 170.532 847.341 167.439C844.07 164.35 839.348 162.803 833.169 162.803C829.988 162.803 826.763 163.068 823.498 163.598C820.227 164.127 816.829 164.392 813.298 164.392C805.35 164.392 798.726 162.936 793.428 160.02C788.13 157.108 784.509 152.736 782.568 146.908H832.903C847.21 146.908 854.363 139.581 854.363 124.919ZM918.39 86.6349C917.428 81.6209 915.307 77.3728 911.982 73.9199C907.301 69.0627 900.986 66.634 893.038 66.634C885.265 66.634 878.997 69.0627 874.228 73.9199C869.459 78.7791 867.076 85.1777 867.076 93.1275V179.758C867.076 187.706 869.459 194.111 874.228 198.966C878.997 203.823 885.265 206.252 893.038 206.252C900.986 206.252 907.301 203.823 911.982 198.966C916.661 194.111 919.001 187.706 919.001 179.758V128.728C915.63 131.502 910.979 132.489 906.3 130.969C898.062 128.291 891.287 119.313 900.256 107.928C905.775 100.921 911.071 96.504 918.39 86.6349ZM961.921 88.6228C961.921 82.091 960.374 76.9654 957.285 73.2579C954.192 69.5484 949.999 67.6936 944.699 67.6936C938.516 67.6936 933.792 70.4748 930.527 76.039C927.376 81.3977 924.603 89.7803 922.195 101.12C922.908 106.81 924.293 111.552 924.044 118.001C924.019 118.628 923.962 119.239 923.876 119.832C924.375 119.588 924.828 119.317 925.361 119.09C927.83 118.031 930.394 117.104 933.044 116.307C935.692 115.514 938.297 114.85 940.859 114.321C943.418 113.792 945.497 113.261 947.085 112.731C952.914 110.968 956.842 107.92 958.875 103.592C960.903 99.2656 961.921 94.2772 961.921 88.6228Z" fill="white"/>
</g>
</svg>
