<svg width="1153" height="321" viewBox="0 0 1153 321" fill="none" xmlns="http://www.w3.org/2000/svg">
<path d="M49.91 277.174L42.918 306.585H42.547L34.854 277.174H26.504L18.79 306.521H18.438L11.446 277.174H1.69199L13.778 319.412H22.478L30.499 291.795H30.83L38.875 319.412H47.575L59.661 277.174H49.91Z" fill="white"/>
<mask id="mask0_51_165" style="mask-type:luminance" maskUnits="userSpaceOnUse" x="0" y="0" width="1153" height="321">
<path d="M0.601013 0.0769958H1152.4V320.031H0.601013V0.0769958Z" fill="white"/>
</mask>
<g mask="url(#mask0_51_165)">
<path d="M71.727 320.01C69.8719 320.045 68.0309 319.682 66.327 318.948C64.7972 318.285 63.4949 317.189 62.581 315.794C61.6204 314.224 61.1439 312.405 61.211 310.566C61.1612 309.03 61.4941 307.506 62.18 306.131C62.8016 304.962 63.7096 303.969 64.819 303.246C65.9901 302.492 67.2758 301.934 68.626 301.593C70.0987 301.214 71.599 300.952 73.113 300.81C74.9543 300.617 76.439 300.436 77.567 300.266C78.4296 300.181 79.265 299.918 80.02 299.492C80.2689 299.326 80.4703 299.099 80.6044 298.831C80.7385 298.564 80.8008 298.267 80.785 297.968V297.844C80.8183 297.279 80.7253 296.713 80.5127 296.189C80.3001 295.664 79.9733 295.194 79.556 294.811C78.5688 294.04 77.3329 293.659 76.083 293.739C74.7451 293.668 73.4204 294.033 72.307 294.778C71.4145 295.416 70.7614 296.334 70.452 297.386L62.325 296.727C62.6998 294.881 63.5373 293.161 64.759 291.727C66.0333 290.274 67.6448 289.155 69.452 288.469C71.5826 287.668 73.8461 287.278 76.122 287.322C77.8295 287.315 79.531 287.524 81.186 287.944C82.7251 288.322 84.1848 288.971 85.497 289.86C86.7434 290.714 87.7653 291.857 88.476 293.19C89.2422 294.693 89.6203 296.364 89.576 298.05V319.414H81.235V315.021H80.986C80.4777 316.012 79.7854 316.897 78.946 317.629C78.0458 318.407 77.0023 319.003 75.874 319.381C74.5374 319.825 73.1351 320.038 71.727 320.012M74.244 313.949C75.4313 313.973 76.6066 313.708 77.668 313.175C78.617 312.696 79.4215 311.973 79.999 311.081C80.5657 310.189 80.8591 309.15 80.843 308.093V304.727C80.4924 304.941 80.1133 305.104 79.717 305.212C79.1909 305.371 78.6569 305.502 78.117 305.604C77.5257 305.721 76.9347 305.825 76.344 305.914C75.753 306.003 75.218 306.081 74.735 306.151C73.8078 306.274 72.9004 306.516 72.035 306.871C71.3316 307.152 70.7134 307.611 70.241 308.203C69.8005 308.802 69.575 309.533 69.601 310.276C69.5729 310.805 69.6782 311.332 69.9073 311.81C70.1364 312.287 70.4819 312.699 70.912 313.008C71.8948 313.665 73.0607 313.994 74.242 313.946M124.433 296.767L116.391 297.262C116.254 296.577 115.949 295.936 115.504 295.397C115.022 294.817 114.41 294.357 113.719 294.055C112.889 293.701 111.992 293.53 111.09 293.555C109.885 293.515 108.692 293.81 107.645 294.409C107.226 294.625 106.874 294.952 106.627 295.354C106.381 295.756 106.248 296.217 106.245 296.689C106.242 297.056 106.322 297.42 106.478 297.752C106.635 298.084 106.865 298.377 107.15 298.608C108.074 299.267 109.142 299.698 110.265 299.865L115.999 301.021C118.528 301.4 120.907 302.454 122.887 304.072C123.639 304.777 124.231 305.636 124.622 306.589C125.013 307.543 125.195 308.57 125.155 309.6C125.187 311.576 124.543 313.505 123.33 315.065C122.018 316.703 120.296 317.965 118.339 318.724C116.018 319.636 113.54 320.082 111.047 320.035C106.854 320.035 103.516 319.159 101.035 317.406C99.8395 316.591 98.832 315.53 98.08 314.294C97.328 313.058 96.849 311.675 96.675 310.239L105.315 309.786C105.417 310.376 105.637 310.939 105.964 311.441C106.291 311.943 106.716 312.372 107.215 312.704C108.373 313.413 109.715 313.761 111.071 313.704C112.372 313.763 113.663 313.451 114.793 312.804C115.215 312.578 115.57 312.244 115.822 311.837C116.073 311.429 116.213 310.963 116.226 310.484C116.224 310.099 116.132 309.721 115.957 309.379C115.781 309.036 115.528 308.74 115.217 308.514C114.301 307.895 113.257 307.49 112.163 307.33L106.677 306.23C104.109 305.866 101.708 304.747 99.777 303.015C99.0257 302.245 98.4381 301.331 98.0499 300.327C97.6616 299.324 97.4807 298.252 97.518 297.177C97.472 295.288 98.0564 293.438 99.179 291.919C100.392 290.371 102.013 289.193 103.86 288.519C106.125 287.677 108.529 287.27 110.945 287.319C114.945 287.319 118.096 288.165 120.399 289.857C121.519 290.66 122.457 291.69 123.152 292.88C123.846 294.071 124.282 295.394 124.431 296.764M158.743 296.767L150.701 297.262C150.564 296.577 150.259 295.936 149.814 295.397C149.332 294.817 148.72 294.357 148.029 294.055C147.199 293.701 146.302 293.53 145.4 293.555C144.195 293.515 143.002 293.81 141.955 294.409C141.536 294.625 141.184 294.952 140.937 295.354C140.691 295.756 140.558 296.217 140.555 296.689C140.552 297.056 140.632 297.42 140.788 297.752C140.945 298.084 141.175 298.377 141.46 298.608C142.384 299.267 143.452 299.698 144.575 299.865L150.309 301.021C152.836 301.4 155.214 302.452 157.193 304.068C157.945 304.773 158.537 305.632 158.928 306.585C159.319 307.539 159.501 308.566 159.461 309.596C159.493 311.572 158.849 313.501 157.636 315.061C156.324 316.699 154.602 317.961 152.645 318.72C150.324 319.632 147.846 320.078 145.353 320.031C141.16 320.031 137.822 319.155 135.341 317.402C134.145 316.587 133.138 315.526 132.386 314.29C131.634 313.054 131.155 311.671 130.981 310.235L139.621 309.782C139.723 310.372 139.943 310.935 140.27 311.437C140.597 311.939 141.022 312.368 141.521 312.7C142.679 313.339 143.976 313.682 145.297 313.699C146.619 313.717 147.925 313.408 149.099 312.8C149.521 312.574 149.876 312.24 150.128 311.833C150.379 311.425 150.519 310.959 150.532 310.48C150.53 310.096 150.438 309.717 150.263 309.375C150.088 309.032 149.835 308.736 149.524 308.51C148.608 307.891 147.564 307.486 146.47 307.326L140.984 306.226C138.416 305.862 136.015 304.743 134.084 303.011C133.333 302.241 132.745 301.327 132.357 300.323C131.969 299.32 131.788 298.248 131.825 297.173C131.779 295.284 132.363 293.434 133.486 291.915C134.699 290.367 136.32 289.189 138.167 288.515C140.432 287.673 142.836 287.266 145.252 287.315C149.252 287.315 152.403 288.161 154.706 289.853C155.826 290.656 156.764 291.686 157.459 292.876C158.153 294.067 158.589 295.39 158.738 296.76M181.133 320.03C178.207 320.111 175.311 319.424 172.733 318.039C170.408 316.735 168.524 314.768 167.32 312.389C166.07 309.685 165.423 306.743 165.423 303.764C165.423 300.785 166.07 297.843 167.32 295.139C168.518 292.75 170.375 290.753 172.672 289.386C175.137 287.968 177.944 287.254 180.787 287.322C182.78 287.306 184.76 287.644 186.634 288.322C188.411 288.971 190.029 289.994 191.376 291.322C192.786 292.744 193.867 294.458 194.542 296.343C195.339 298.611 195.723 301.003 195.675 303.407V305.818H168.923V300.374H187.402C187.425 299.201 187.141 298.043 186.579 297.013C186.043 296.053 185.254 295.258 184.299 294.713C183.268 294.142 182.104 293.854 180.926 293.88C179.685 293.855 178.462 294.171 177.389 294.795C176.387 295.388 175.559 296.235 174.989 297.251C174.406 298.294 174.101 299.468 174.102 300.663V305.839C174.066 307.244 174.366 308.637 174.977 309.903C175.53 311.007 176.394 311.926 177.463 312.544C178.631 313.185 179.947 313.504 181.279 313.47C182.189 313.481 183.095 313.341 183.96 313.057C184.737 312.803 185.449 312.38 186.043 311.819C186.63 311.255 187.082 310.564 187.363 309.8L195.487 310.335C195.104 312.228 194.233 313.988 192.961 315.441C191.617 316.942 189.934 318.101 188.052 318.821C185.845 319.664 183.496 320.074 181.133 320.029M203.146 319.411V287.733H211.664V293.263H211.992C212.44 291.493 213.463 289.922 214.9 288.795C216.258 287.788 217.91 287.255 219.6 287.28C220.076 287.282 220.551 287.31 221.024 287.362C221.475 287.408 221.922 287.484 222.363 287.589V295.389C221.802 295.235 221.231 295.124 220.653 295.058C219.99 294.967 219.322 294.919 218.653 294.915C217.449 294.894 216.259 295.181 215.198 295.75C214.204 296.291 213.377 297.093 212.806 298.07C212.209 299.11 211.906 300.293 211.929 301.492V319.415L203.146 319.411ZM238.24 319.412L226.154 277.174H235.908L242.9 306.521H243.252L250.966 277.174H259.318L267.011 306.582H267.382L274.374 277.174H284.128L272.042 319.412H263.342L255.297 291.798H254.966L246.945 319.412H238.24ZM294.887 283.652C293.642 283.677 292.438 283.21 291.535 282.352C291.096 281.955 290.744 281.471 290.504 280.929C290.264 280.388 290.141 279.803 290.141 279.21C290.142 278.618 290.268 278.033 290.509 277.493C290.751 276.952 291.103 276.468 291.544 276.073C292.455 275.232 293.649 274.764 294.889 274.762C296.129 274.76 297.324 275.223 298.238 276.061C298.676 276.459 299.026 276.943 299.266 277.484C299.505 278.025 299.629 278.61 299.629 279.202C299.629 279.793 299.505 280.378 299.266 280.919C299.026 281.46 298.676 281.944 298.238 282.342C297.337 283.204 296.132 283.674 294.886 283.651M290.472 287.732H299.258V319.411H290.472V287.732ZM334.364 296.767L326.322 297.262C326.185 296.577 325.88 295.936 325.436 295.397C324.954 294.817 324.342 294.357 323.651 294.055C322.821 293.701 321.924 293.53 321.022 293.555C319.817 293.515 318.624 293.81 317.577 294.409C317.158 294.625 316.806 294.952 316.559 295.354C316.313 295.756 316.18 296.217 316.177 296.689C316.174 297.056 316.254 297.42 316.41 297.752C316.567 298.084 316.797 298.377 317.082 298.608C318.006 299.267 319.074 299.698 320.197 299.865L325.931 301.021C328.46 301.4 330.839 302.454 332.819 304.072C333.571 304.777 334.163 305.636 334.554 306.589C334.945 307.543 335.127 308.57 335.087 309.6C335.119 311.576 334.475 313.505 333.262 315.065C331.95 316.703 330.228 317.965 328.271 318.724C325.95 319.636 323.472 320.082 320.979 320.035C316.786 320.035 313.448 319.159 310.967 317.406C309.771 316.591 308.764 315.53 308.012 314.294C307.26 313.058 306.781 311.675 306.607 310.239L315.247 309.786C315.349 310.376 315.569 310.939 315.896 311.441C316.223 311.943 316.648 312.372 317.147 312.704C318.305 313.343 319.602 313.686 320.923 313.703C322.245 313.721 323.551 313.412 324.725 312.804C325.147 312.578 325.502 312.244 325.754 311.837C326.005 311.429 326.145 310.963 326.158 310.484C326.156 310.1 326.064 309.721 325.889 309.379C325.714 309.036 325.461 308.74 325.15 308.514C324.234 307.895 323.19 307.491 322.096 307.33L316.61 306.23C314.042 305.865 311.641 304.746 309.71 303.015C308.959 302.245 308.371 301.331 307.983 300.327C307.595 299.324 307.414 298.252 307.451 297.177C307.405 295.288 307.989 293.438 309.112 291.919C310.325 290.371 311.946 289.193 313.793 288.519C316.058 287.677 318.462 287.27 320.878 287.319C324.878 287.319 328.029 288.165 330.332 289.857C331.452 290.66 332.39 291.69 333.085 292.88C333.779 294.071 334.215 295.394 334.364 296.764M368.672 296.767L360.63 297.262C360.493 296.577 360.188 295.936 359.743 295.397C359.261 294.817 358.649 294.357 357.958 294.055C357.128 293.701 356.231 293.53 355.329 293.555C354.124 293.515 352.931 293.81 351.884 294.409C351.465 294.625 351.113 294.952 350.866 295.354C350.62 295.756 350.487 296.217 350.484 296.689C350.481 297.056 350.561 297.42 350.717 297.752C350.874 298.084 351.104 298.377 351.389 298.608C352.314 299.267 353.381 299.698 354.504 299.865L360.238 301.021C362.767 301.4 365.146 302.454 367.126 304.072C367.878 304.777 368.47 305.636 368.861 306.589C369.252 307.543 369.434 308.57 369.394 309.6C369.426 311.576 368.782 313.505 367.569 315.065C366.257 316.703 364.535 317.965 362.578 318.724C360.257 319.636 357.779 320.082 355.286 320.035C351.093 320.035 347.755 319.159 345.274 317.406C344.078 316.591 343.071 315.53 342.319 314.294C341.567 313.058 341.088 311.675 340.914 310.239L349.554 309.786C349.656 310.376 349.876 310.939 350.203 311.441C350.53 311.943 350.955 312.372 351.454 312.704C352.612 313.343 353.909 313.686 355.232 313.703C356.554 313.721 357.86 313.412 359.034 312.804C359.456 312.578 359.81 312.244 360.061 311.836C360.313 311.429 360.452 310.962 360.465 310.484C360.463 310.1 360.371 309.721 360.197 309.379C360.022 309.037 359.769 308.741 359.459 308.514C358.542 307.896 357.497 307.491 356.403 307.33L350.917 306.23C348.349 305.866 345.948 304.747 344.017 303.015C343.266 302.245 342.678 301.331 342.29 300.327C341.902 299.324 341.721 298.252 341.758 297.177C341.712 295.288 342.296 293.438 343.419 291.919C344.632 290.371 346.253 289.193 348.1 288.519C350.365 287.677 352.769 287.27 355.185 287.319C359.185 287.319 362.336 288.165 364.639 289.857C365.759 290.66 366.697 291.69 367.392 292.88C368.086 294.071 368.522 295.394 368.671 296.764M391.066 320.03C388.14 320.111 385.244 319.424 382.666 318.039C380.341 316.735 378.457 314.768 377.253 312.389C376.003 309.685 375.356 306.743 375.356 303.764C375.356 300.785 376.003 297.843 377.253 295.139C378.451 292.75 380.308 290.753 382.605 289.386C385.07 287.968 387.877 287.254 390.72 287.322C392.713 287.306 394.693 287.644 396.567 288.322C398.344 288.971 399.962 289.994 401.309 291.322C402.717 292.746 403.794 294.462 404.466 296.348C405.263 298.616 405.647 301.008 405.599 303.412V305.823H378.853V300.379H397.332C397.355 299.206 397.071 298.048 396.509 297.018C395.973 296.058 395.184 295.263 394.229 294.718C393.198 294.147 392.034 293.859 390.856 293.885C389.615 293.86 388.392 294.176 387.319 294.8C386.317 295.393 385.489 296.24 384.919 297.256C384.336 298.299 384.031 299.473 384.032 300.668V305.844C383.996 307.249 384.296 308.642 384.907 309.908C385.46 311.012 386.324 311.931 387.393 312.549C388.561 313.19 389.877 313.509 391.209 313.475C392.119 313.486 393.025 313.346 393.89 313.062C394.667 312.808 395.379 312.385 395.973 311.824C396.56 311.26 397.012 310.569 397.293 309.805L405.417 310.34C405.034 312.233 404.163 313.993 402.891 315.446C401.547 316.947 399.864 318.106 397.982 318.826C395.775 319.669 393.426 320.079 391.063 320.034M421.863 301.099V319.414H413.077V287.735H421.45V293.326H421.821C422.491 291.521 423.729 289.982 425.348 288.94C427.144 287.82 429.232 287.257 431.348 287.322C433.361 287.275 435.349 287.775 437.101 288.767C438.746 289.738 440.072 291.168 440.917 292.881C441.869 294.864 442.335 297.045 442.277 299.244V319.414H433.491V300.814C433.603 299.163 433.07 297.533 432.006 296.266C431.474 295.711 430.828 295.277 430.113 294.994C429.398 294.711 428.63 294.586 427.862 294.627C426.772 294.605 425.695 294.867 424.738 295.389C423.834 295.905 423.103 296.677 422.638 297.608C422.109 298.696 421.844 299.893 421.864 301.103M470.557 283.652C469.313 283.676 468.11 283.209 467.208 282.352C466.769 281.955 466.417 281.471 466.177 280.929C465.937 280.388 465.814 279.803 465.814 279.21C465.815 278.618 465.941 278.033 466.182 277.493C466.424 276.952 466.776 276.468 467.217 276.073C468.128 275.232 469.322 274.764 470.562 274.762C471.802 274.76 472.997 275.223 473.911 276.061C474.349 276.459 474.699 276.943 474.939 277.484C475.178 278.025 475.302 278.61 475.302 279.202C475.302 279.793 475.178 280.378 474.939 280.919C474.699 281.46 474.349 281.944 473.911 282.342C473.01 283.204 471.804 283.675 470.557 283.651M466.145 287.732H474.931V319.411H466.145V287.732ZM492.406 301.099V319.414H483.62V287.735H491.993V293.326H492.364C493.034 291.521 494.272 289.982 495.891 288.94C497.687 287.82 499.775 287.257 501.891 287.322C503.904 287.275 505.892 287.775 507.644 288.767C509.289 289.738 510.615 291.168 511.46 292.881C512.412 294.864 512.878 297.045 512.82 299.244V319.414H504.034V300.814C504.146 299.163 503.613 297.533 502.549 296.266C502.017 295.711 501.371 295.277 500.656 294.994C499.941 294.711 499.173 294.586 498.405 294.627C497.315 294.605 496.238 294.867 495.281 295.389C494.377 295.905 493.646 296.677 493.181 297.608C492.652 298.696 492.387 299.893 492.407 301.103M536.848 319.412V277.174H553.756C556.417 277.091 559.067 277.562 561.536 278.558C563.442 279.339 565.072 280.671 566.217 282.383C567.276 284.064 567.821 286.018 567.784 288.005C567.817 289.511 567.477 291.001 566.794 292.344C566.152 293.567 565.221 294.615 564.083 295.398C562.892 296.205 561.558 296.775 560.152 297.077V297.49C561.752 297.557 563.308 298.026 564.679 298.853C566.107 299.71 567.29 300.921 568.113 302.369C569.027 304.009 569.483 305.865 569.433 307.742C569.468 309.856 568.892 311.935 567.775 313.73C566.577 315.56 564.875 317.004 562.875 317.888C560.359 318.975 557.635 319.495 554.896 319.412H536.848ZM545.777 294.851H552.396C553.521 294.871 554.637 294.648 555.668 294.199C556.578 293.802 557.362 293.164 557.936 292.353C558.507 291.509 558.798 290.506 558.769 289.487C558.794 288.79 558.662 288.096 558.383 287.456C558.103 286.817 557.683 286.249 557.153 285.795C555.843 284.787 554.212 284.29 552.563 284.395H545.778L545.777 294.851ZM545.777 312.11H553.057C555.548 312.11 557.363 311.633 558.503 310.679C559.062 310.215 559.508 309.628 559.805 308.964C560.101 308.301 560.242 307.578 560.215 306.851C560.236 305.76 559.942 304.686 559.368 303.757C558.781 302.845 557.95 302.117 556.968 301.657C555.809 301.123 554.543 300.862 553.268 300.895H545.784L545.777 312.11ZM591.241 320.03C588.313 320.112 585.415 319.425 582.835 318.039C580.51 316.734 578.626 314.767 577.422 312.389C576.172 309.685 575.525 306.743 575.525 303.764C575.525 300.785 576.172 297.843 577.422 295.139C578.62 292.75 580.477 290.753 582.774 289.386C585.24 287.968 588.047 287.254 590.891 287.322C592.883 287.306 594.862 287.644 596.736 288.322C598.514 288.97 600.131 289.993 601.478 291.322C602.888 292.744 603.969 294.458 604.644 296.343C605.443 298.61 605.828 301.003 605.779 303.407V305.818H579.031V300.374H597.51C597.533 299.201 597.248 298.042 596.684 297.013C596.15 296.053 595.362 295.257 594.407 294.713C593.376 294.142 592.212 293.854 591.034 293.88C589.793 293.855 588.568 294.171 587.495 294.795C586.494 295.389 585.666 296.236 585.095 297.251C584.513 298.294 584.208 299.469 584.208 300.663V305.839C584.172 307.244 584.473 308.638 585.085 309.903C585.637 311.008 586.501 311.926 587.571 312.544C588.739 313.185 590.055 313.505 591.387 313.47C592.296 313.481 593.201 313.341 594.065 313.057C594.843 312.803 595.555 312.38 596.15 311.819C596.737 311.255 597.188 310.564 597.468 309.8L605.595 310.335C605.212 312.228 604.341 313.988 603.069 315.441C601.724 316.941 600.042 318.1 598.16 318.821C595.953 319.664 593.604 320.074 591.241 320.029M613.258 319.411V287.733H621.774V293.263H622.105C622.553 291.493 623.576 289.922 625.013 288.795C626.371 287.787 628.022 287.255 629.713 287.28C630.188 287.282 630.662 287.31 631.134 287.362C631.586 287.408 632.034 287.484 632.476 287.589V295.389C631.915 295.235 631.342 295.124 630.764 295.058C630.101 294.967 629.433 294.919 628.764 294.915C627.561 294.894 626.372 295.181 625.312 295.75C624.317 296.29 623.488 297.092 622.917 298.07C622.32 299.11 622.018 300.293 622.042 301.492V319.415L613.258 319.411ZM639.605 277.174H648.391V319.412H639.605V277.174ZM661.557 283.652C660.312 283.677 659.108 283.209 658.205 282.352C657.766 281.955 657.415 281.47 657.176 280.929C656.936 280.387 656.813 279.802 656.814 279.21C656.815 278.618 656.941 278.033 657.182 277.492C657.424 276.952 657.776 276.468 658.217 276.073C659.128 275.232 660.321 274.764 661.56 274.762C662.8 274.76 663.994 275.223 664.908 276.061C665.347 276.458 665.697 276.943 665.937 277.484C666.177 278.025 666.301 278.61 666.301 279.202C666.301 279.793 666.177 280.378 665.937 280.919C665.697 281.46 665.347 281.945 664.908 282.342C664.008 283.204 662.802 283.675 661.556 283.651M657.144 287.732H665.93V319.411H657.144V287.732ZM683.471 301.099V319.414H674.685V287.735H683.056V293.326H683.429C684.099 291.521 685.336 289.982 686.954 288.94C688.751 287.821 690.838 287.258 692.954 287.322C694.968 287.275 696.957 287.775 698.71 288.767C700.354 289.739 701.679 291.168 702.524 292.881C703.478 294.863 703.946 297.045 703.887 299.244V319.414H695.101V300.814C695.213 299.163 694.68 297.533 693.616 296.266C693.084 295.711 692.438 295.277 691.723 294.995C691.008 294.712 690.24 294.586 689.472 294.627C688.382 294.604 687.305 294.867 686.348 295.389C685.441 295.903 684.708 296.676 684.242 297.608C683.712 298.696 683.448 299.893 683.47 301.103M96.411 83.513C96.411 94.935 95.089 103.924 92.445 110.48C89.801 117.036 85.5177 120.314 79.595 120.314C73.673 120.314 69.3903 117.036 66.747 110.48C64.1037 103.924 62.7817 94.935 62.781 83.513C62.781 72.091 64.103 63.1553 66.747 56.706C69.391 50.2567 73.6737 47.031 79.595 47.029C85.515 47.029 89.7983 50.2547 92.445 56.706C95.0917 63.1573 96.4137 72.093 96.411 83.513ZM153.201 117.46C156.889 106.527 158.713 95.051 158.595 83.513C158.746 71.9735 156.922 60.4931 153.201 49.569C149.848 39.8321 144.559 30.8749 137.652 23.237C130.776 15.7621 122.323 9.91016 112.906 6.105C103.177 2.08634 92.0737 0.077002 79.595 0.077002C67.1163 0.077002 56.0127 2.08634 46.284 6.105C36.8658 9.90779 28.4126 15.7601 21.538 23.237C14.629 30.8728 9.3407 39.8308 5.99301 49.569C2.27151 60.493 0.447826 71.9735 0.601009 83.513C0.481511 95.051 2.30429 106.527 5.99301 117.46C9.26488 127.28 14.5606 136.305 21.538 143.951C28.4695 151.361 36.9073 157.2 46.284 161.077C56.01 165.202 67.1137 167.264 79.595 167.262C92.0763 167.26 103.18 165.198 112.906 161.077C122.282 157.197 130.719 151.356 137.652 143.946C144.627 136.299 149.924 127.277 153.201 117.46ZM236.59 30.501C236.339 21.593 233.572 14.349 228.231 8.801C222.621 2.985 215.058 0.077002 205.543 0.077002C196.234 0.077002 188.726 2.98433 183.018 8.799C177.31 14.6137 174.455 22.2803 174.453 31.799V135.542C174.453 145.059 177.308 152.726 183.018 158.542C188.728 164.358 196.236 167.265 205.543 167.264C215.06 167.264 222.622 164.357 228.227 158.542C233.832 152.727 236.634 145.061 236.633 135.542V86.867C232.322 90.017 226.464 90.488 221.325 89.015C210.785 85.992 206.078 74.45 212.394 64.257C219.855 52.214 228.933 49.577 236.471 30.467L236.59 30.501ZM325.151 135.543V42.27C325.151 28.946 321.449 18.5827 314.046 11.18C306.643 3.77733 296.172 0.0763353 282.635 0.077002C276.376 -0.0635116 270.158 1.12603 264.393 3.567C259.291 5.83468 254.784 9.2558 251.229 13.561C247.397 18.311 244.393 23.6736 242.345 29.423C241.17 32.573 240.103 35.9237 239.145 39.475C239.415 43.896 239.825 47.705 240.285 51.181C241.005 50.581 241.718 49.971 242.501 49.41C245.087 47.7173 248.141 46.8841 251.228 47.029C259.05 47.029 262.962 50.6253 262.964 57.818V135.543C262.964 145.06 265.767 152.727 271.372 158.543C276.977 164.359 284.539 167.266 294.056 167.265C303.36 167.265 310.867 164.358 316.578 158.543C322.289 152.728 325.145 145.062 325.146 135.543M597.209 115.403C598.686 105.464 596.942 97.0563 591.977 90.181C587.012 83.3057 578.604 79.869 566.755 79.871C557.022 79.871 549.461 82.3043 544.073 87.171C538.685 92.0377 535.671 99.123 535.032 108.427L524.88 225.806L515.996 112.546C515.147 102.395 511.869 94.6227 506.162 89.228C500.455 83.8333 491.783 81.137 480.147 81.139H463.647C452.012 81.139 443.34 83.8353 437.632 89.228C431.924 94.6207 428.646 102.393 427.798 112.546L418.914 225.806L408.764 108.423C408.131 99.119 405.064 92.0337 399.564 87.167C394.064 82.3003 386.346 79.868 376.409 79.87C364.56 79.87 356.152 83.3067 351.185 90.18C346.218 97.0533 344.474 105.461 345.953 115.402L362.131 211.212C363.335 220.841 368.018 229.697 375.298 236.112C382.595 242.567 392.905 245.792 406.229 245.789H420.509C433.833 245.789 444.091 242.51 451.282 235.953C458.473 229.396 462.385 221.042 463.018 210.891L471.586 100.491L480.151 210.891C480.786 221.042 484.699 229.396 491.889 235.953C499.079 242.51 509.337 245.789 522.662 245.789H536.938C550.262 245.789 560.52 242.563 567.711 236.112C574.921 229.62 579.634 220.812 581.035 211.212L597.209 115.403ZM744.577 238.337C750.177 232.523 752.98 224.856 752.985 215.337V140.148C752.985 119.422 745.846 104.194 731.569 94.463C717.292 84.7323 697.992 79.868 673.669 79.87C668.591 79.87 662.404 80.2397 655.108 80.979C647.886 81.7049 640.761 83.1939 633.852 85.421C627.359 87.4291 621.36 90.7795 616.245 95.255C611.378 99.5937 608.945 105.251 608.945 112.228C608.848 114.927 609.336 117.615 610.377 120.107C611.417 122.599 612.985 124.836 614.973 126.664C618.986 130.367 624.59 132.218 631.787 132.215C638.45 132.227 645.097 131.536 651.615 130.153C658.451 128.739 665.417 128.048 672.397 128.091C679.164 128.091 683.922 129.201 686.671 131.421C687.995 132.45 689.058 133.775 689.775 135.291C690.492 136.807 690.842 138.47 690.797 140.146C690.874 141.52 690.659 142.894 690.166 144.179C689.674 145.463 688.915 146.629 687.94 147.6C686.035 149.4 682.017 150.933 675.885 152.2L655.898 156.959C648.443 158.62 641.125 160.846 634.009 163.62C628.202 165.832 622.832 169.054 618.147 173.137C613.942 176.904 610.636 181.566 608.47 186.78C606.127 192.736 604.995 199.099 605.14 205.498C605.14 218.613 608.947 228.818 616.56 236.112C624.173 243.406 634.326 247.055 647.017 247.058C659.284 247.058 668.748 243.621 675.41 236.748C678.086 233.928 680.483 230.856 682.568 227.575C680.593 228.693 678.403 229.379 676.144 229.59C673.884 229.8 671.605 229.529 669.458 228.795C659.593 225.595 651.483 214.838 662.22 201.204C669.645 191.776 676.726 186.288 687.294 171.026L689.639 171.788C685.474 190.612 690.549 198.169 690.739 210.73C690.758 210.674 690.784 210.63 690.802 210.573V215.332C690.802 224.849 693.657 232.516 699.367 238.332C705.077 244.148 712.585 247.056 721.892 247.057C731.409 247.057 738.971 244.149 744.576 238.332M842.445 185.827V127.774H851.963C858.516 127.774 863.749 125.87 867.663 122.063C871.577 118.256 873.534 112.968 873.533 106.201V104.933C873.533 98.1663 871.576 92.879 867.663 89.071C863.75 85.263 858.516 83.3593 851.963 83.36H842.445V65.911C842.445 61.2603 841.017 57.6117 838.162 54.965C835.307 52.3183 831.446 50.9963 826.581 50.999C822.348 50.999 819.07 51.899 816.747 53.699C814.08 55.8274 811.634 58.2192 809.447 60.838C806.375 64.8638 803.036 68.6791 799.453 72.258C794.79 76.9326 789.376 80.7924 783.437 83.677L775.822 87.487C770.533 90.2383 766.674 93.252 764.243 96.528C761.812 99.804 760.596 104.087 760.594 109.378C760.594 114.667 762.233 118.685 765.512 121.433C768.838 124.206 772.828 126.065 777.091 126.827L780.264 127.141V194.399C780.264 211.323 784.97 224.33 794.381 233.421C803.792 242.512 816.959 247.059 833.881 247.064C838.503 247.049 843.117 246.678 847.681 245.952C852.256 245.267 856.697 243.876 860.846 241.829C864.746 239.918 868.121 237.087 870.682 233.58C873.219 230.09 874.488 225.596 874.489 220.097C874.49 214.598 873.221 210.421 870.682 207.566C867.859 204.54 864.223 202.392 860.21 201.379L855.135 200.429C851.663 199.85 848.421 198.311 845.777 195.987C843.556 193.876 842.446 190.492 842.447 185.834M969.669 147.448H936.357C936.777 140.048 938.469 134.548 941.432 130.948C942.836 129.2 944.627 127.803 946.664 126.866C948.701 125.93 950.927 125.481 953.168 125.554C963.53 125.554 969.03 132.851 969.668 147.446M1023.6 149.667C1023.74 139.861 1022.01 130.119 1018.52 120.955C1015.3 112.639 1010.33 105.116 1003.93 98.903C997.388 92.65 989.606 87.8408 981.087 84.787C971.516 81.3943 961.417 79.7297 951.263 79.871C940.956 79.7321 930.737 81.7868 921.285 85.899C912.433 89.816 904.573 95.6699 898.285 103.029C891.716 110.833 886.708 119.826 883.533 129.52C879.927 140.522 878.158 152.043 878.298 163.62C878.166 175.161 880.211 186.624 884.326 197.407C888.111 207.306 893.888 216.323 901.299 223.898C908.884 231.491 918.033 237.339 928.109 241.034C939.382 245.173 951.317 247.216 963.325 247.062C969.109 246.995 974.883 246.571 980.615 245.793C987.129 244.982 993.521 243.384 999.65 241.034C1005.38 238.902 1010.58 235.545 1014.88 231.198C1019 226.971 1021.06 221.471 1021.06 214.698C1021.14 212.063 1020.66 209.442 1019.65 207.008C1018.64 204.575 1017.12 202.384 1015.2 200.581C1011.28 196.882 1005.62 195.032 998.224 195.03C994.344 195.035 990.471 195.354 986.642 195.982C982.603 196.625 978.518 196.943 974.428 196.932C964.911 196.932 956.979 195.187 950.634 191.697C944.416 188.362 939.748 182.727 937.629 175.997H997.905C1015.04 175.997 1023.61 167.22 1023.61 149.666M1100.28 103.821C1099.28 98.0988 1096.61 92.8004 1092.6 88.595C1087 82.7783 1079.44 79.87 1069.92 79.87C1060.61 79.87 1053.1 82.7783 1047.39 88.595C1041.69 94.4117 1038.83 102.078 1038.83 111.595V215.335C1038.83 224.852 1041.68 232.519 1047.39 238.335C1053.1 244.151 1060.61 247.059 1069.92 247.06C1079.44 247.06 1087 244.152 1092.6 238.335C1098.21 232.518 1101.01 224.852 1101.01 215.335V154.228C1098.91 155.932 1096.41 157.072 1093.75 157.542C1091.09 158.011 1088.35 157.794 1085.8 156.911C1075.93 153.705 1067.82 142.954 1078.56 129.32C1085.17 120.928 1091.51 115.64 1100.28 103.82M1152.4 106.201C1152.4 98.379 1150.55 92.2457 1146.85 87.801C1143.15 83.3563 1138.13 81.1353 1131.78 81.138C1124.38 81.138 1118.72 84.4693 1114.81 91.132C1111.04 97.549 1107.72 107.587 1104.84 121.167C1105.69 127.98 1107.35 133.658 1107.05 141.382C1107.02 142.116 1106.95 142.848 1106.85 143.575C1107.45 143.282 1107.99 142.958 1108.63 142.686C1111.63 141.402 1114.7 140.29 1117.83 139.353C1121 138.403 1124.12 137.61 1127.18 136.975C1129.7 136.484 1132.19 135.85 1134.64 135.075C1141.62 132.964 1146.33 129.317 1148.76 124.132C1151.28 118.499 1152.53 112.377 1152.41 106.206" fill="white"/>
</g>
</svg>
